<svg width="286" height="241" viewBox="0 0 286 241" fill="none" xmlns="http://www.w3.org/2000/svg">
<path opacity="0.7" d="M93.56 224.34C97.1 225.87 108.46 223.51 111.21 220.58C114.38 217.19 112.74 205.31 120.49 208.62C123.03 209.71 123.58 213.62 125.57 215.23C129.88 218.7 129.54 216 133.13 214.32C133.85 213.05 134.88 212.08 136.23 211.42C137.94 211.17 139.24 211.75 140.13 213.17C142.67 212.33 142.03 209.56 145.23 209.64C148.86 209.73 150.09 213.96 153.98 213.79C156.65 213.67 160.95 209.6 159.51 214.98C158.58 218.45 150.56 221.08 157.94 223.72C160.69 224.7 163.36 222.05 166.08 222.55C169.72 223.23 168.15 225.15 170.75 226.29C176.16 228.67 180.28 226.19 186.21 229.3C191.47 232.05 197.57 232.44 202.47 235.52C206.44 238.02 208.95 244.17 213.35 238.84C216.96 234.47 211.27 225.49 218.99 225.12C226.97 224.75 224.08 234.59 229.17 236.14C230.98 236.69 233.67 233.71 235.22 233.3C238.45 232.45 240.68 233.4 243.78 233.69C250.6 234.34 255.22 228.85 261.33 232.25C266.26 234.99 267.46 241.97 273.52 235.64C278.18 230.78 278.45 225.01 285.99 222.43C282.04 216.92 286.09 208.89 281.83 202.55C279.53 199.12 276.56 197.16 274.95 193.24C274.11 191.2 275.29 189.7 273.82 187.51C272.73 185.9 270.1 185.67 268.77 184.26C266.63 182 266.45 178.97 264.81 176.44C262.87 173.45 259.62 171.82 258.25 168.22C256.84 164.53 258.1 160.83 256.02 157.49C253.66 153.71 250.36 152.9 249.14 148.23C248.14 144.41 249.77 144.08 246.36 140.05C243.56 136.75 240.21 134.31 237.3 131.16C230.67 123.98 226.26 115.51 221.68 107.45C216.88 99.01 207.8 93.31 203.64 84.3C201.87 80.47 200.77 78.94 198.17 75.68C194.79 71.44 195.73 67.61 194.12 62.76C191.29 54.22 185.75 44.6 181.46 36.59C177.02 28.33 174.13 19.89 170.86 11.2C169.7 8.13 166.17 -1.24 162.2 0.22C158 1.77 159.91 8.75999 159.67 11.68C159.3 16.09 158.2 21.49 156.33 25.56C152.2 34.54 143.49 38.88 135.36 43.17C132.39 44.74 130.29 46.3 127.02 47.04C120.85 48.43 114.69 45.31 108.59 45.96C104.62 46.38 102.04 48.35 97.92 47.58C93.59 46.77 91.02 45.43 86.14 45.52C81.23 45.62 76.41 45.03 71.49 44.82C69.57 44.74 67.76 44.29 65.86 44.78C64.06 45.24 62.51 47.42 60.84 47.67C56.42 48.33 52.19 44.29 47.4 44.15C42.19 43.99 37.76 45.65 32.54 45.24C27.57 44.85 24.9 47.55 20.21 48.05C13.95 48.71 11.72 49.38 6.47998 53.74C5.45998 54.59 1.09002 57.64 0.900024 58.45C1.12002 57.52 4.32997 66.7 4.15997 66.46C5.87997 68.91 9.42999 71.5 11.55 73.81C13.24 75.65 16.62 79.94 19.2 76.42C21.13 73.79 17.5 69.92 19.8 67.19C22.68 67.58 22.6 71.94 25.12 72.68C28.78 73.75 30.89 66.94 34.26 68.64C33.66 70.6 31.84 74.04 32.56 76.23C32.94 77.36 38.07 80.58 39.1 80.49C41.61 80.27 45.37 72.31 46.38 80.68C50.7 76.45 52.94 78.36 53.33 83.46C53.87 90.47 53.17 91.88 59.76 93.95C61.72 94.57 63.6 92.64 65.37 94.88C66.69 96.56 64.96 98.22 65.69 99.53C67.75 103.24 73.99 101.97 74.2 107.84C74.45 115.13 64.74 113.95 62.61 118.84C61.28 121.9 64.26 126.56 63.05 130.37C62.71 131.45 59.98 134.36 60.58 135.78C61.65 138.31 63.14 135.46 64.64 137.02C67.56 140.04 65 141.9 64.19 145.56C62.1 155.05 70.92 146.18 77.46 150.4C82.04 153.36 83.06 156.35 88.7 157.39C91.81 157.96 99.77 156.64 100.32 161.73C100.84 166.53 93.26 164.86 93.35 170.55C93.43 175.86 98.62 178.54 95.89 184.57C93.65 189.51 91.08 189.7 91.5 195.75C91.85 200.84 93.29 206.63 87.31 209.46C86.87 209.67 90.8 223.13 93.56 224.33V224.34Z" fill="url(#paint0_linear_156_1258)"/>
<defs>
<linearGradient id="paint0_linear_156_1258" x1="246.7" y1="-38.42" x2="81.78" y2="247.22" gradientUnits="userSpaceOnUse">
<stop stop-color="#FFFFDC" stop-opacity="0.58"/>
<stop offset="0.69" stop-color="#FFFFBA" stop-opacity="0"/>
</linearGradient>
</defs>
</svg>
