<svg width="232" height="187" viewBox="0 0 232 187" fill="none" xmlns="http://www.w3.org/2000/svg">
<path d="M86.3499 186.3C90.8699 185.2 83.3399 179.49 81.0799 181.16C76.7999 184.32 83.9599 186.88 86.3499 186.3Z" fill="url(#paint0_linear_156_3415)"/>
<path d="M77.45 172.22C80.58 173.95 76.88 175.82 74.78 175.05C72.14 174.08 75.2 170.98 77.45 172.22Z" fill="url(#paint1_linear_156_3415)"/>
<path d="M75.56 150.46C79.61 149.2 77.84 157.14 74.15 154.5C72.26 153.15 73.91 150.97 75.56 150.46Z" fill="url(#paint2_linear_156_3415)"/>
<path d="M78.9299 155.94C78.6099 160.33 85.5999 161.83 85.0799 157.41C85.0299 156.99 79.1599 152.68 78.9299 155.94Z" fill="url(#paint3_linear_156_3415)"/>
<path d="M55.9099 145.12C57.5899 139.7 49.22 145.05 48.61 148.79C48.18 151.43 49.18 154.7 52.14 155.46C52.8 155.63 59.15 155.21 59.26 155.19C61.61 154.71 62.1 156.63 63.25 153.53C63.96 151.61 60.88 152.39 60.52 151.5C60.1 150.46 61.5499 147.88 60.2199 147.02C57.0299 144.95 57.64 149.16 55.58 149.8C53.31 150.5 56.01 144.82 55.92 145.13L55.9099 145.12Z" fill="url(#paint4_linear_156_3415)"/>
<path d="M42.1199 147.39C47.6399 143.61 41.62 135.06 35.9 141.67C34.73 143.02 34.7599 145.17 33.7399 146.53C32.8099 147.78 30.8899 148.27 30.0399 149.73C27.6299 153.89 30.3299 156.13 32.1599 159.52C32.7899 160.68 34.1099 161.35 34.4899 162.7C34.7799 163.73 33.2999 165.42 33.5999 166.56C34.5199 170.03 37.76 172.55 40.94 169.56C42.49 168.1 40.5899 165.46 42.8599 164.63C47.4799 162.95 44.9299 168.28 46.1099 170.19C48.4399 173.96 49.7499 171.49 53.1199 172.1C55.2699 172.49 56.4799 176.46 58.8499 173.42C59.6699 172.36 58.48 169.77 58.82 168.48C59.58 165.58 62.3799 163.88 60.9799 160.13C57.8399 151.71 50.56 161.24 45.88 159.09C46.58 159.41 42.6799 154.16 42.7999 154.38C41.8099 152.45 38.7299 149.72 42.1199 147.39Z" fill="url(#paint5_linear_156_3415)"/>
<path d="M96.46 154.46C101.49 156.11 93.9099 158.33 94.4899 157.31C94.6799 156.96 92.74 153.24 96.46 154.46Z" fill="url(#paint6_linear_156_3415)"/>
<path d="M99.9699 153.66C101.91 156.74 100.08 155.02 100.19 157C100.3 159.03 96.4899 160.48 101.18 163.76C104.47 166.06 103.15 165.21 105.06 162.12C105.63 161.2 106.72 158.74 106.96 157.55C107.17 156.52 105.91 154.51 106 154.16C106.37 152.76 113.21 145.22 108.61 145.36C108.01 145.38 100.19 154.02 99.9699 153.67V153.66Z" fill="url(#paint7_linear_156_3415)"/>
<path d="M113.56 159.15C112.84 157.48 109.71 162.33 110.04 161.51C109.5 162.85 109.02 162.82 108.99 164.67C109.01 163.45 112.41 169.72 111.16 168.86C113.34 170.36 111.65 170.61 113.67 169.65C111.93 170.48 115.12 163.56 115.11 165.4C115.11 163.49 114.6 161.57 113.56 159.15Z" fill="url(#paint8_linear_156_3415)"/>
<path d="M114.92 136.32C115.8 130.79 117.73 135.81 117.99 136.88C119.61 143.63 114.62 138.24 114.92 136.32Z" fill="url(#paint9_linear_156_3415)"/>
<path d="M153.5 130.95C153.72 128.86 148.78 117.52 156.08 121.54C157.86 122.52 156.74 126.74 156.24 128.09C156.68 126.88 153.08 134.91 153.49 130.95H153.5Z" fill="url(#paint10_linear_156_3415)"/>
<path d="M138.83 130.38C141.35 127.94 139.96 124.28 136.52 125.87C134.73 126.7 134.22 132.73 132.07 134.63C130.49 136.03 126.99 135.92 125.95 137.43C123.63 140.79 131.83 141.32 128.51 144.79C124.16 139.93 125.57 145.05 122.34 145.1C119.89 145.13 120.87 142.51 117.68 142.94C116.31 143.12 114.43 145.11 113.58 146.1C109.49 150.86 111.43 152.4 114.52 155.36C117.69 158.39 116.05 157.54 118.95 156.2C120.35 155.56 122.58 151.4 124.81 153.35C129.11 157.1 122.81 158.46 121.78 159.79C116.95 166.06 123.32 162.16 124.28 163.29C125.82 165.11 124.16 166.32 124.16 168.69C124.16 168.64 126.33 170.45 126.4 170.71C126.78 172.01 122.98 171.69 124.83 173.92C127.6 177.25 130.07 173.32 131.39 170.65C132.78 167.84 132.98 165.22 134.42 162.41C134.9 161.48 134.7 159.85 135.56 159.17C136.58 158.36 139.06 160.28 139.99 159.41C142.43 157.13 139.38 156.25 140.06 153.7C140.44 152.26 143.73 153.41 143.63 150.66C143.58 149.25 141.77 148.91 141.62 148.54C141.48 148.19 139.51 149.98 138.74 148.73C137.49 146.71 140.39 145.29 140.77 143.41C141.41 140.29 136.69 132.46 138.82 130.39L138.83 130.38Z" fill="url(#paint11_linear_156_3415)"/>
<path d="M228.68 55.9C228.31 57.83 229.07 61.9599 225.96 62.1699C221.72 62.4399 226.06 56.5699 222.89 56.1199C221.78 55.9599 218.76 69.84 218.88 71.58C219.36 78.87 219.27 76.06 215.63 79.65C213.8 81.47 212.97 84.8199 209.69 84.3799C204.9 83.7499 206.73 90.6399 206.24 93.9199C205.35 99.9499 203.99 103.14 199.59 106.65C197.92 107.99 196.01 108.47 194.26 110.06C193.29 110.94 191.45 113.44 191.21 113.63C188.81 115.59 190.14 116.38 185.96 115.98C184.34 115.82 183.63 112.73 181.85 114.17C178.83 116.61 187.36 119.15 183.9 121.91C182.19 123.27 181.15 118.95 180.22 119.08C176.97 119.55 179.03 120.48 177.13 122.09C175.13 123.81 174.2 126.29 170.98 124.05C169.48 123.01 169.87 118.1 168.38 117.77C166.23 117.28 165.63 120.74 164.37 120.39C163.27 120.09 162.99 117.81 162.89 117.77C163.06 117.81 161.2 116.2 160.8 116.12C161.4 116.24 159.44 118.67 158.78 118.75C157.86 118.86 156.68 118.22 155.56 117.22C155.75 117.49 155.92 117.71 156.04 117.9C153.43 118.05 151.53 116.88 149.47 116.79C148.48 116.76 146.25 117.23 145.22 117.14C142.81 116.93 141.59 117.46 139.5 115.87C137.63 114.43 138.61 111.35 136.53 110.1C134.56 108.9 132 111.17 129.79 110.26C127.26 109.23 129.78 105.64 125.8 105.99C119.83 106.52 128.23 113.55 128.87 114.86C131.34 119.87 128.74 122.45 124.21 122.66C119.15 122.91 121.87 122.74 120.99 119.55C120.77 118.78 122.72 119.07 121.66 117.28C120.43 115.22 119.16 115.57 117.44 115.29C117.56 115.3 113.99 116.75 113.41 116.74C111.15 116.71 109.08 113.6 106.93 116.61C116.19 121.98 111.34 121.48 105.06 121.65C100.4 121.77 95.38 128.1 101.3 127.32C104.35 126.91 111.15 118.85 112.94 127.03C114.65 134.91 104.48 129.46 103.3 132.53C103.59 133.46 106.36 133.6 106.83 134.7C107.2 135.56 105.67 139.98 105.49 140.96C104.53 146.21 100.86 152.25 93.8 149.77C86.02 147.03 97.25 143.61 94.05 138.27C90.47 132.3 90.83 144.08 86.19 143.17C83.33 142.61 84.73 139.2 80.39 139.79C75.79 140.42 79.17 142.33 76.98 144.39C71.24 149.8 65.78 142.69 62.13 140.89C58.99 139.34 57.85 141.1 57 137.07C56.6 135.18 58.15 131.67 58.44 129.76C58.62 128.53 60.8 120.46 58.08 120.8C56.44 121 56.95 125.45 54.64 126.18C54.71 124.56 51.35 123.34 51.07 124.91C50.78 126.52 59.57 129.78 52.36 133.5C46.26 136.63 47.65 129.33 45.61 128.6C42.5 127.49 42.85 134.96 40.88 136.69C39.29 138.09 31.97 139.32 29.83 139.18C24.12 138.82 24.14 137.19 24.75 133.09C25.75 130.32 26.36 126.33 25.48 124.27C24.36 121.67 21.92 121.2 20.04 119.43C17.68 117.24 17.6 115.35 15.85 112.84C14.52 110.94 12.82 109.9 11.08 108.89C10.66 108.52 10.19 108.15 9.66998 107.77C4.01998 103.61 3.57 100.5 2 93.7899C1.82 92.5399 1.55999 91.3 1.23999 90.08C1.08999 89.87 0.970005 89.6699 0.880005 89.4899C0.770005 89.0199 0.65001 88.55 0.51001 88.08C0.51001 88 0.530007 87.9299 0.570007 87.8699C2.36001 88.6099 7.01002 84.9299 7.71002 83.6099C8.19002 82.6999 8.37001 81.8 8.39001 80.9V80.8599C8.41001 80.7599 8.43001 80.6599 8.45001 80.5599C8.79001 78.3399 7.69001 76.5799 8.07001 74.4399C8.10001 74.2699 8.13999 74.12 8.17999 73.95C8.21999 73.78 8.27998 73.61 8.34998 73.45C9.08998 71.53 13.28 72.0599 12.99 68.6299C12.92 67.8799 12.61 67.4199 12.17 67.0999C12.16 66.9899 12.14 66.8799 12.13 66.7599C12.01 66.7599 9.38998 64.6699 9.09998 63.9099C9.16998 62.5699 9.89001 61.16 9.82001 59.89C9.73001 58.54 9.45001 57.3899 9.07001 56.3599C8.96001 55.7699 8.76997 55.1599 8.46997 54.5599C7.51997 52.6699 6.63 51.5199 5.94 50.5099C5.06 48.7699 4.48001 46.83 4.89001 44.08C4.92001 43.88 4.96 43.6599 5 43.4399C5.06 43.1599 5.11 42.8799 5.19 42.5999C5.22 42.4499 5.25998 42.3099 5.28998 42.1799C5.32998 41.9699 5.38997 41.7599 5.46997 41.5399C6.00997 39.7199 6.75998 37.8799 7.47998 36.1099C7.49998 36.0399 7.54 35.9799 7.56 35.9199C8.71 33.3299 10.01 30.7899 11.06 28.2199C11.07 28.1999 11.08 28.1899 11.09 28.1599C11.92 26.5399 12.64 24.91 12.93 23.4C13.25 21.63 12.58 19.72 12.97 18.03C12.97 18.01 12.98 17.9999 12.98 17.9899C14.15 15.8099 15.46 16.9699 17.2 15.4899C20.19 12.9399 22.59 11.0599 25.5 8.93994C26.05 8.54994 26.62 8.11995 27.22 7.69995C28.34 6.90995 29.31 6.14992 30.29 5.41992C31.26 4.71992 32.24 4.03995 33.35 3.38995C34.6 3.56995 35.72 3.34994 36.68 2.68994C36.69 2.68994 36.7 2.67993 36.71 2.67993C37.46 2.39993 37.94 1.78991 37.76 0.159912C38.44 0.339912 39.03 0.599963 39.57 0.899963C39.83 1.11996 40.11 1.36994 40.43 1.62994C41.16 2.20994 41.77 2.55993 42.33 2.73993C42.33 2.73993 42.33 2.74994 42.34 2.74994C42.99 3.13994 43.69 3.48994 44.53 3.68994C45.7 2.93994 47 2.54994 48.39 2.49994C48.54 2.55994 48.67 2.61994 48.79 2.68994C48.95 2.76994 49.09 2.86996 49.23 2.95996C49.93 3.46996 50.4 4.18993 50.64 5.11993C50.9 5.30993 51.13 5.49994 51.33 5.68994C52.16 7.22994 53 8.82997 55.19 9.58997C55.72 9.76997 56.3 9.81992 56.91 9.78992C57.14 9.80992 57.41 9.82992 57.69 9.85992C59.65 9.97992 62.62 8.24994 64.83 8.37994C65.05 8.43994 65.28 8.52995 65.48 8.63995C67.77 9.99995 65.52 11.5699 66.7 13.0699C66.81 14.5599 67.56 15.2199 68.97 15.0399C70.46 17.1999 73.16 18.9299 74.54 22.4899C75.66 25.3699 74.81 33.0099 75.84 34.7299C76.91 36.5399 79.55 36.8699 81.98 36.8699H82.02C83.57 37.0599 85.17 36.9099 86.78 36.7899C90.04 36.8299 92.28 37.1299 95.58 38.3199C96.18 38.5299 96.68 38.73 97.09 38.9C98.17 39.49 98.74 39.8599 99.56 39.8199C100.22 39.8599 100.97 39.5099 103.32 38.7199C106.33 37.7099 109.4 36.1099 112.54 35.6299C116.1 35.5299 119.35 36.8699 121.91 40.1899C122.85 42.3499 123.5 44.9 125.01 45.7C125.03 45.71 125.07 45.7199 125.1 45.7299C126.59 46.3399 132.43 44.9599 135.59 44.9399C139.22 45.9499 143.41 48.8499 146.6 48.1799C146.86 48.1199 147.09 48.05 147.3 47.95C148.98 47.27 152.39 45.2799 153.84 44.4199C154.85 44.3899 155.85 44.3499 156.64 43.9699C156.67 43.9599 156.7 43.9399 156.73 43.9299C157.05 43.7999 157.37 43.6099 157.66 43.3599C157.68 43.3399 157.7 43.3299 157.73 43.3199C160.56 41.2499 160.28 38.5299 164.97 38.1799C165.04 38.1799 165.1 38.1699 165.18 38.1799C167.27 38.4899 169.36 39.4399 171.43 39.8499C171.94 39.9499 172.46 40.0099 172.95 40.0499C174.19 40.3699 175.4 40.5799 176.52 40.4399C176.65 40.4299 176.78 40.4099 176.9 40.3799C178.78 38.4499 180.65 38.3199 182.23 37.3199C182.99 36.8599 183.67 36.19 184.26 35.03C185.6 32.45 183.76 30.2799 186.76 27.6599C187.01 27.4499 187.26 27.2499 187.55 27.0699C187.67 26.9899 187.8 26.9099 187.92 26.8499C190.66 25.3999 194.29 25.35 197.22 25.58C198.64 25.69 200.18 25.7399 201.6 26.1299C201.7 26.1499 201.8 26.1999 201.9 26.2299C203.69 26.9299 204.78 28.0699 205.63 29.3199C206.08 30.2399 206.4 31.1999 207.33 32.1299C207.33 32.1299 207.33 32.14 207.34 32.14C208.26 33.63 209.34 34.8899 211.45 35.2899C214.04 35.7899 216.93 33.4799 219.54 33.1799C219.63 33.1699 219.73 33.16 219.83 33.15C219.93 33.14 220.03 33.14 220.12 33.14C222.23 33.07 224.11 33.4999 226.4 33.6199C226.43 33.6199 226.47 33.6199 226.5 33.6299C227.82 33.8999 229.14 34.28 230.44 34.7C229.23 37.52 229.49 39.2999 231.67 41.3099C233.13 42.6699 229.13 53.5899 228.67 55.9899L228.68 55.9Z" fill="url(#paint12_linear_156_3415)"/>
<path d="M0.839951 89.4598C0.529951 88.8998 0.399895 88.4298 0.469895 88.0498C0.599895 88.5198 0.729951 88.9898 0.839951 89.4598Z" fill="url(#paint13_linear_156_3415)"/>
<path d="M7.42993 36.0698C6.69993 37.8498 5.94992 39.6798 5.41992 41.4998C5.91992 39.6398 6.63993 37.8398 7.42993 36.0698Z" fill="url(#paint14_linear_156_3415)"/>
<path d="M8.34998 80.8699C8.32998 81.7599 8.14998 82.6699 7.66998 83.5799C6.96998 84.8999 2.31003 88.5799 0.530029 87.8399C0.760029 87.1699 1.72 86.8699 3.37 86.9299C5.75 84.4999 7.63999 84.9199 8.35999 80.8699H8.34998Z" fill="url(#paint15_linear_156_3415)"/>
<path d="M9.0199 56.31C8.1799 54.05 6.84989 52.37 5.88989 50.47C6.56989 51.48 7.46986 52.63 8.41986 54.52C8.71986 55.12 8.9099 55.73 9.0199 56.31Z" fill="url(#paint16_linear_156_3415)"/>
<path d="M12.1299 67.0699C11.1699 66.3199 9.62994 66.2499 9.19994 65.0599C9.06994 64.6799 9.02991 64.2899 9.04991 63.8899C9.33991 64.6499 11.9599 66.7399 12.0799 66.7399C12.0899 66.8499 12.1099 66.9599 12.1199 67.0799L12.1299 67.0699Z" fill="url(#paint17_linear_156_3415)"/>
<path d="M12.89 23.36C12.6 24.87 11.8699 26.5 11.0499 28.12C11.4599 27.09 11.8599 26.04 12.1699 24.99C12.7699 23.01 12.05 19.9 12.77 18.32C12.83 18.2 12.8799 18.1 12.9399 18C12.5499 19.69 13.22 21.6 12.9 23.37L12.89 23.36Z" fill="url(#paint18_linear_156_3415)"/>
<path d="M25.03 130.91C26.16 122.59 23.98 124.09 19.03 118.63C15.46 114.69 14.7599 112.03 11.0399 108.86C12.7799 109.87 14.4799 110.91 15.8099 112.81C17.5699 115.31 17.6399 117.2 19.9999 119.4C21.8899 121.17 24.3299 121.64 25.4399 124.24C26.3199 126.3 25.71 130.29 24.71 133.06C24.81 132.41 24.92 131.7 25.02 130.91H25.03Z" fill="url(#paint19_linear_156_3415)"/>
<path d="M36.65 2.62988C35.69 3.28988 34.5699 3.5099 33.3199 3.3299C34.2999 2.7499 35.69 2.95988 36.65 2.62988Z" fill="url(#paint20_linear_156_3415)"/>
<path d="M42.3099 2.67981C41.7499 2.49981 41.1399 2.14982 40.4099 1.56982C40.0899 1.30982 39.8099 1.06984 39.5499 0.839844C40.5599 1.39984 41.3799 2.0898 42.3099 2.6698V2.67981Z" fill="url(#paint21_linear_156_3415)"/>
<path d="M56.8799 9.72986C56.2699 9.75986 55.6799 9.70991 55.1599 9.52991C52.9699 8.76991 52.1299 7.16988 51.2999 5.62988C53.3599 7.49988 53.3299 9.28986 56.8799 9.72986Z" fill="url(#paint22_linear_156_3415)"/>
<path d="M66.6799 13.0098C65.5099 11.5098 67.75 9.94983 65.46 8.57983C65.26 8.46983 65.0399 8.37982 64.8099 8.31982C65.3599 8.34982 65.8599 8.48981 66.2899 8.80981C66.9399 10.1598 67.0699 11.5598 66.6799 12.9998V13.0098Z" fill="url(#paint23_linear_156_3415)"/>
<path d="M86.7599 36.7199C85.1499 36.8399 83.5499 36.9899 81.9999 36.7999C83.3199 36.7999 84.5799 36.71 85.4799 36.71C85.9299 36.71 86.35 36.7099 86.77 36.7199H86.7599Z" fill="url(#paint24_linear_156_3415)"/>
<path d="M99.5399 39.7501C98.7199 39.7901 98.1499 39.4301 97.0699 38.8301C98.4699 39.4001 98.9699 39.7201 99.5399 39.7501Z" fill="url(#paint25_linear_156_3415)"/>
<path d="M121.89 40.13C119.33 36.81 116.08 35.47 112.52 35.57C114.98 35.18 117.46 35.49 119.98 37.33C120.82 37.93 121.39 38.97 121.89 40.14V40.13Z" fill="url(#paint26_linear_156_3415)"/>
<path d="M146.57 48.1301C143.37 48.8001 139.19 45.8901 135.56 44.8901C136.04 44.8801 136.45 44.91 136.79 44.98C139.73 45.58 143.55 48.6601 146.57 48.1301Z" fill="url(#paint27_linear_156_3415)"/>
<path d="M156.61 43.9099C155.83 44.2899 154.82 44.3199 153.81 44.3599C154.03 44.2399 154.2 44.1299 154.32 44.0599C155.17 44.2199 155.92 44.1699 156.6 43.9099H156.61Z" fill="url(#paint28_linear_156_3415)"/>
<path d="M165.16 38.1099C165.08 38.0999 165.01 38.1099 164.95 38.1099C160.25 38.4699 160.53 41.1799 157.71 43.2499C157.99 42.9999 158.25 42.7099 158.49 42.3799C159.23 40.8999 160.2 39.5998 161.41 38.4698C162.66 37.9598 163.91 37.9099 165.17 38.1099H165.16Z" fill="url(#paint29_linear_156_3415)"/>
<path d="M176.49 40.37C175.37 40.5 174.16 40.3 172.92 39.98C174.23 40.08 175.46 40.07 176.49 40.37Z" fill="url(#paint30_linear_156_3415)"/>
<defs>
<linearGradient id="paint0_linear_156_3415" x1="85.0299" y1="181.82" x2="82.6399" y2="185.95" gradientUnits="userSpaceOnUse">
<stop stop-color="#FFFFDC" stop-opacity="0.5"/>
<stop offset="0.69" stop-color="#FFFFBA" stop-opacity="0"/>
</linearGradient>
<linearGradient id="paint1_linear_156_3415" x1="77.16" y1="172.05" x2="75.2499" y2="175.36" gradientUnits="userSpaceOnUse">
<stop stop-color="#FFFFDC" stop-opacity="0.5"/>
<stop offset="0.69" stop-color="#FFFFBA" stop-opacity="0"/>
</linearGradient>
<linearGradient id="paint2_linear_156_3415" x1="76.96" y1="150.42" x2="74.48" y2="154.72" gradientUnits="userSpaceOnUse">
<stop stop-color="#FFFFDC" stop-opacity="0.5"/>
<stop offset="0.69" stop-color="#FFFFBA" stop-opacity="0"/>
</linearGradient>
<linearGradient id="paint3_linear_156_3415" x1="82.8199" y1="155.69" x2="80.6899" y2="159.39" gradientUnits="userSpaceOnUse">
<stop stop-color="#FFFFDC" stop-opacity="0.5"/>
<stop offset="0.69" stop-color="#FFFFBA" stop-opacity="0"/>
</linearGradient>
<linearGradient id="paint4_linear_156_3415" x1="59.38" y1="145.07" x2="52.9799" y2="156.15" gradientUnits="userSpaceOnUse">
<stop stop-color="#FFFFDC" stop-opacity="0.5"/>
<stop offset="0.69" stop-color="#FFFFBA" stop-opacity="0"/>
</linearGradient>
<linearGradient id="paint5_linear_156_3415" x1="53.3299" y1="146.19" x2="38.5899" y2="171.73" gradientUnits="userSpaceOnUse">
<stop stop-color="#FFFFDC" stop-opacity="0.5"/>
<stop offset="0.69" stop-color="#FFFFBA" stop-opacity="0"/>
</linearGradient>
<linearGradient id="paint6_linear_156_3415" x1="96.72" y1="154.46" x2="94.85" y2="157.71" gradientUnits="userSpaceOnUse">
<stop stop-color="#FFFFDC" stop-opacity="0.5"/>
<stop offset="0.69" stop-color="#FFFFBA" stop-opacity="0"/>
</linearGradient>
<linearGradient id="paint7_linear_156_3415" x1="109.75" y1="145.57" x2="99.6699" y2="163.04" gradientUnits="userSpaceOnUse">
<stop stop-color="#FFFFDC" stop-opacity="0.5"/>
<stop offset="0.69" stop-color="#FFFFBA" stop-opacity="0"/>
</linearGradient>
<linearGradient id="paint8_linear_156_3415" x1="115.13" y1="159.9" x2="110.01" y2="168.77" gradientUnits="userSpaceOnUse">
<stop stop-color="#FFFFDC" stop-opacity="0.5"/>
<stop offset="0.69" stop-color="#FFFFBA" stop-opacity="0"/>
</linearGradient>
<linearGradient id="paint9_linear_156_3415" x1="118.1" y1="134.86" x2="115.64" y2="139.12" gradientUnits="userSpaceOnUse">
<stop stop-color="#FFFFDC" stop-opacity="0.5"/>
<stop offset="0.69" stop-color="#FFFFBA" stop-opacity="0"/>
</linearGradient>
<linearGradient id="paint10_linear_156_3415" x1="156.15" y1="121.58" x2="150.98" y2="130.53" gradientUnits="userSpaceOnUse">
<stop stop-color="#FFFFDC" stop-opacity="0.5"/>
<stop offset="0.69" stop-color="#FFFFBA" stop-opacity="0"/>
</linearGradient>
<linearGradient id="paint11_linear_156_3415" x1="141.52" y1="127.12" x2="116.95" y2="169.69" gradientUnits="userSpaceOnUse">
<stop stop-color="#FFFFDC" stop-opacity="0.5"/>
<stop offset="0.69" stop-color="#FFFFBA" stop-opacity="0"/>
</linearGradient>
<linearGradient id="paint12_linear_156_3415" x1="150.09" y1="-11.7901" x2="54.02" y2="154.61" gradientUnits="userSpaceOnUse">
<stop stop-color="#FFFFDC" stop-opacity="0.5"/>
<stop offset="0.69" stop-color="#FFFFBA" stop-opacity="0"/>
</linearGradient>
<linearGradient id="paint13_linear_156_3415" x1="0.90996" y1="88.3098" x2="0.389975" y2="89.1999" gradientUnits="userSpaceOnUse">
<stop stop-color="#FFFFDC" stop-opacity="0.5"/>
<stop offset="0.69" stop-color="#FFFFBA" stop-opacity="0"/>
</linearGradient>
<linearGradient id="paint14_linear_156_3415" x1="7.85993" y1="36.3198" x2="4.99995" y2="41.2598" gradientUnits="userSpaceOnUse">
<stop stop-color="#FFFFDC" stop-opacity="0.5"/>
<stop offset="0.69" stop-color="#FFFFBA" stop-opacity="0"/>
</linearGradient>
<linearGradient id="paint15_linear_156_3415" x1="7.24999" y1="80.2399" x2="2.26994" y2="88.8499" gradientUnits="userSpaceOnUse">
<stop stop-color="#FFFFDC" stop-opacity="0.5"/>
<stop offset="0.69" stop-color="#FFFFBA" stop-opacity="0"/>
</linearGradient>
<linearGradient id="paint16_linear_156_3415" x1="8.3299" y1="51.88" x2="6.57989" y2="54.9" gradientUnits="userSpaceOnUse">
<stop stop-color="#FFFFDC" stop-opacity="0.5"/>
<stop offset="0.69" stop-color="#FFFFBA" stop-opacity="0"/>
</linearGradient>
<linearGradient id="paint17_linear_156_3415" x1="10.8999" y1="64.9399" x2="10.2199" y2="66.1099" gradientUnits="userSpaceOnUse">
<stop stop-color="#FFFFDC" stop-opacity="0.5"/>
<stop offset="0.69" stop-color="#FFFFBA" stop-opacity="0"/>
</linearGradient>
<linearGradient id="paint18_linear_156_3415" x1="14.42" y1="18.85" x2="9.56003" y2="27.2701" gradientUnits="userSpaceOnUse">
<stop stop-color="#FFFFDC" stop-opacity="0.5"/>
<stop offset="0.69" stop-color="#FFFFBA" stop-opacity="0"/>
</linearGradient>
<linearGradient id="paint19_linear_156_3415" x1="21.3999" y1="114.85" x2="14.3499" y2="127.07" gradientUnits="userSpaceOnUse">
<stop stop-color="#FFFFDC" stop-opacity="0.5"/>
<stop offset="0.69" stop-color="#FFFFBA" stop-opacity="0"/>
</linearGradient>
<linearGradient id="paint20_linear_156_3415" x1="35.55" y1="1.99987" x2="34.4099" y2="3.96989" gradientUnits="userSpaceOnUse">
<stop stop-color="#FFFFDC" stop-opacity="0.5"/>
<stop offset="0.69" stop-color="#FFFFBA" stop-opacity="0"/>
</linearGradient>
<linearGradient id="paint21_linear_156_3415" x1="40.9799" y1="1.66983" x2="40.8299" y2="1.92983" gradientUnits="userSpaceOnUse">
<stop stop-color="#FFFFDC" stop-opacity="0.5"/>
<stop offset="0.69" stop-color="#FFFFBA" stop-opacity="0"/>
</linearGradient>
<linearGradient id="paint22_linear_156_3415" x1="54.2899" y1="7.34987" x2="53.5099" y2="8.69987" gradientUnits="userSpaceOnUse">
<stop stop-color="#FFFFDC" stop-opacity="0.5"/>
<stop offset="0.69" stop-color="#FFFFBA" stop-opacity="0"/>
</linearGradient>
<linearGradient id="paint23_linear_156_3415" x1="66.6899" y1="9.02982" x2="64.9599" y2="12.0198" gradientUnits="userSpaceOnUse">
<stop stop-color="#FFFFDC" stop-opacity="0.5"/>
<stop offset="0.69" stop-color="#FFFFBA" stop-opacity="0"/>
</linearGradient>
<linearGradient id="paint24_linear_156_3415" x1="84.99" y1="35.7002" x2="83.7703" y2="37.82" gradientUnits="userSpaceOnUse">
<stop stop-color="#FFFFDC" stop-opacity="0.5"/>
<stop offset="0.69" stop-color="#FFFFBA" stop-opacity="0"/>
</linearGradient>
<linearGradient id="paint25_linear_156_3415" x1="98.4099" y1="39.1001" x2="98.1899" y2="39.4901" gradientUnits="userSpaceOnUse">
<stop stop-color="#FFFFDC" stop-opacity="0.5"/>
<stop offset="0.69" stop-color="#FFFFBA" stop-opacity="0"/>
</linearGradient>
<linearGradient id="paint26_linear_156_3415" x1="118.16" y1="36.2" x2="117.02" y2="38.17" gradientUnits="userSpaceOnUse">
<stop stop-color="#FFFFDC" stop-opacity="0.5"/>
<stop offset="0.69" stop-color="#FFFFBA" stop-opacity="0"/>
</linearGradient>
<linearGradient id="paint27_linear_156_3415" x1="141.74" y1="45.3401" x2="140.39" y2="47.6701" gradientUnits="userSpaceOnUse">
<stop stop-color="#FFFFDC" stop-opacity="0.5"/>
<stop offset="0.69" stop-color="#FFFFBA" stop-opacity="0"/>
</linearGradient>
<linearGradient id="paint28_linear_156_3415" x1="155.66" y1="43.3599" x2="154.77" y2="44.9099" gradientUnits="userSpaceOnUse">
<stop stop-color="#FFFFDC" stop-opacity="0.5"/>
<stop offset="0.69" stop-color="#FFFFBA" stop-opacity="0"/>
</linearGradient>
<linearGradient id="paint29_linear_156_3415" x1="163.47" y1="37.1399" x2="159.38" y2="44.2198" gradientUnits="userSpaceOnUse">
<stop stop-color="#FFFFDC" stop-opacity="0.5"/>
<stop offset="0.69" stop-color="#FFFFBA" stop-opacity="0"/>
</linearGradient>
<linearGradient id="paint30_linear_156_3415" x1="175.07" y1="39.55" x2="174.35" y2="40.8" gradientUnits="userSpaceOnUse">
<stop stop-color="#FFFFDC" stop-opacity="0.5"/>
<stop offset="0.69" stop-color="#FFFFBA" stop-opacity="0"/>
</linearGradient>
</defs>
</svg>
