<svg width="213" height="232" viewBox="0 0 213 232" fill="none" xmlns="http://www.w3.org/2000/svg">
<path d="M206.32 182.36C205.48 188.01 205 192.86 203.42 198.53C202.15 203.09 201.52 211.59 198.54 215.15C196.11 218.05 197.79 216.98 193.59 216.73C193.56 216.72 193.52 216.72 193.49 216.72C191.24 216.6 189.4 216.18 187.33 216.25C187.24 216.25 187.14 216.25 187.04 216.26C186.38 216.28 185.7 216.37 184.97 216.52C179.56 217.68 178.88 219.37 174.78 215.27C174.77 215.27 174.77 215.26 174.77 215.26C173.86 214.35 173.54 213.41 173.1 212.51C172.63 211.56 172.04 210.66 170.49 209.89C170.15 209.71 169.8 209.58 169.44 209.48C169.34 209.45 169.24 209.4 169.14 209.38C167.75 209 166.23 208.95 164.84 208.84C161.97 208.62 158.4 208.66 155.72 210.09C155.6 210.16 155.48 210.23 155.36 210.31C154.33 210.91 153.45 211.75 152.83 212.88C151.22 215.74 151.31 218.4 150.13 220.37C148.57 221.36 146.74 221.48 144.9 223.38C144.78 223.4 144.66 223.42 144.53 223.43C143.43 223.56 142.25 223.36 141.03 223.05C138.43 222.37 135.7 221.12 133.41 221.22C133.33 221.21 133.27 221.22 133.2 221.22C128.59 221.57 128.87 224.24 126.09 226.27C126.07 226.28 126.05 226.29 126.02 226.31C125.75 226.5 125.45 226.69 125.11 226.87C125.08 226.88 125.06 226.9 125.02 226.91C124.25 227.28 123.27 227.32 122.28 227.35C121.31 227.37 120.33 227.4 119.53 227.77C118.02 228.43 117.36 230.12 115.87 230.82C115.66 230.92 115.43 231 115.18 231.05C112.04 231.71 107.94 228.86 104.38 227.87C103.8 227.71 103.23 227.6 102.68 227.55C101.29 227.44 95.1901 228.95 94.0901 228.65C94.0601 228.64 94.0201 228.63 94.0001 228.62C93.3101 228.25 91.95 224.64 91.72 224.29C91.48 223.91 91.2201 223.54 90.9601 223.22C88.4501 219.96 85.2601 218.65 81.7701 218.75C79.1601 218.8 76.4 219.65 73.61 221.04C71.11 222.29 69.92 222.82 69.04 222.85C68.24 222.89 67.6801 222.53 66.6201 221.95C65.8101 221.5 64.7001 220.91 62.9501 220.27C60.8701 219.51 58.6801 219.68 56.5101 219.88C54.9301 220 53.3601 220.14 51.8401 219.96H51.8001C51.6501 219.94 51.5001 219.92 51.3601 219.89C44.9301 218.79 46.7801 217.19 46.2401 211.84C45.8501 207.92 43.4201 201.61 40.5601 198.77C38.9101 197.14 38.6101 198.9 36.8201 196.62C35.6701 195.15 37.8701 193.61 35.6201 192.28C35.4201 192.17 35.2 192.08 34.98 192.03C32.99 191.58 29.8101 193.27 27.2001 193.41C26.6001 193.44 26.0301 193.39 25.5101 193.21C23.3601 192.46 22.54 190.9 21.73 189.38C21.18 188.37 20.63 187.37 19.67 186.7C19.54 186.61 19.4001 186.51 19.2401 186.44C19.1201 186.37 18.99 186.31 18.85 186.25C16.29 185.2 15.19 187.24 12.92 186.49C12.91 186.49 12.91 186.48 12.91 186.48C12.36 186.3 11.7601 185.96 11.0501 185.39C10.7301 185.14 10.4601 184.9 10.2101 184.68C6.67009 181.55 9.27009 181.71 10.9601 177.9C11.3401 177.02 11.6901 176.41 11.9301 175.78C12.0401 175.53 12.12 175.28 12.17 175.01C12.19 174.92 12.2001 174.83 12.2101 174.75C12.2201 174.7 12.2301 174.63 12.2401 174.56C12.2501 174.49 12.2501 174.43 12.2501 174.36C12.2801 174.04 12.2701 173.68 12.2401 173.27C12.0401 171 8.49008 168.62 8.45008 167.14V167.12C8.42008 165.57 9.56003 164.53 10.97 163.75C10.97 163.74 10.9801 163.74 10.9901 163.74C12.7901 162.74 15.0401 162.16 15.8801 161.45C17.4501 160.16 18.58 158.5 19.48 156.66C20.55 154.46 21.3001 152.01 22.0601 149.63C22.8401 147.16 22.5801 140.84 24.2101 139.66C24.6201 139.37 25.0401 139.36 25.4901 139.45H25.5101C26.5501 139.67 27.7401 140.43 29.0101 139.49C29.1401 139.39 29.2601 139.3 29.3701 139.22C32.3301 137 30.2801 137.77 29.3801 136.41C29.2501 136.21 29.1501 135.98 29.0801 135.69C29.0501 135.53 29.0001 135.35 28.9601 135.16C28.9301 135 28.8801 134.83 28.8301 134.67C28.8001 134.53 28.7501 134.4 28.7101 134.25C28.6601 134.04 28.5901 133.83 28.5001 133.62C28.4901 133.58 28.4701 133.54 28.4601 133.51C28.4201 133.32 28.3401 133.14 28.2601 132.96C27.7201 131.67 26.9201 130.49 25.7001 130.08C25.6201 130.05 25.55 130.03 25.47 130.01C24.54 129.77 23.8501 130.08 23.2001 130.46C22.4101 130.92 21.68 131.48 20.67 131.27C20.2 131.17 19.7701 131.02 19.3801 130.81H19.3701C18.5901 130.42 17.9401 129.83 17.3301 129.22C16.7401 128.61 16.1701 127.96 15.5501 127.38H15.54C14.63 126.51 13.5901 125.81 12.1401 125.64C10.9601 125.5 9.76009 126.13 8.71009 126.69C8.70009 126.69 8.69006 126.7 8.68006 126.7C6.85006 127.68 5.46004 128.35 5.29004 124.03C5.25004 122.64 6.79008 120.75 7.83008 119.07C8.19008 118.48 8.49007 117.92 8.63007 117.41C9.28007 115.11 9.05006 112.54 9.18006 110.15C9.18006 110.08 9.18007 110.03 9.19007 109.97C9.19007 109.88 9.19008 109.79 9.20008 109.71C9.22008 109.38 9.25004 109.05 9.29004 108.72C9.30004 108.69 9.30005 108.67 9.30005 108.63C9.84005 104 11.5001 99.1998 11.7101 94.6598C11.7201 94.3698 11.73 94.0898 11.73 93.7998C11.73 93.5798 11.7301 93.3798 11.7101 93.1898C11.6401 91.4698 11.21 90.4398 10.47 89.5698C10.46 89.5498 10.4501 89.5298 10.4401 89.5198C9.63007 88.5798 8.49005 87.8298 7.11005 86.6198C7.10005 86.6198 7.10009 86.6098 7.09009 86.6098L7.06006 86.5798C5.82006 85.4798 2.74004 83.7598 1.10004 81.9498C1.03004 81.8598 0.960088 81.7698 0.900088 81.6998C0.220088 80.8898 -0.129941 80.0498 0.120059 79.2698C0.600059 77.7598 2.28009 77.4498 3.96009 77.2098C3.97009 77.2098 3.99007 77.2098 4.01007 77.1998C5.28007 77.0198 6.54008 76.8698 7.27008 76.2098C7.77008 75.7498 8.13008 75.2698 8.39008 74.7598C8.39008 74.7498 8.39009 74.7398 8.40009 74.7398C9.51009 72.5398 8.87005 69.9798 10.86 68.0298C11.83 67.0798 13.2801 67.0598 14.7001 66.9898C14.7301 66.9898 14.7701 66.9898 14.8001 66.9798C16.7501 66.8598 18.59 66.5598 18.97 63.4498C19.01 63.1598 19.0401 62.8698 19.0501 62.5398C19.0601 62.5898 19.0801 62.6398 19.1301 62.6898C19.1801 62.7698 19.2701 62.8398 19.3801 62.9098C19.4101 62.9398 19.4601 62.9598 19.5001 62.9898C19.6401 63.0698 19.8101 63.1398 20.0001 63.2098C20.4401 63.3898 21.0101 63.5298 21.6501 63.6598C21.8601 63.7098 22.07 63.7498 22.29 63.7898H22.3201C22.6301 63.8598 22.95 63.9098 23.29 63.9498C23.32 63.9598 23.3601 63.9598 23.4001 63.9698C23.7801 64.0198 24.1801 64.0798 24.5701 64.1298C24.6601 64.1398 24.7301 64.1498 24.8201 64.1598C25.3501 64.2298 25.8601 64.2898 26.3801 64.3498C26.7901 64.3898 27.1801 64.4298 27.5801 64.4698C27.9301 64.4998 28.2801 64.5398 28.6201 64.5598C28.8801 64.5798 29.1501 64.5998 29.3901 64.6298C29.6001 64.6398 29.8101 64.6598 29.9901 64.6798C30.4301 64.7098 30.8101 64.7298 31.1301 64.7698C31.2701 64.7798 31.4001 64.7898 31.5101 64.7998C31.6301 64.7998 31.7401 64.8098 31.8301 64.8198C32.0701 64.8298 32.1901 64.8398 32.1901 64.8498C32.5101 64.3898 30.3001 60.5698 29.2401 57.6698C29.2301 57.6598 29.22 57.6498 29.22 57.6298C28.84 56.6098 28.6001 55.6898 28.6801 55.0998C28.6801 55.0498 28.6801 55.0098 28.6901 54.9698C29.4901 51.4098 31.6301 50.4398 35.1201 49.5098C35.2701 49.4698 35.4201 49.4298 35.5701 49.3998H35.5901C37.5601 48.9598 39.5201 49.0498 41.4601 48.9898H41.5601C43.0301 48.9498 44.4901 48.7998 45.9501 48.2698C48.5601 47.2998 50.25 44.8898 52.72 43.9998C52.75 43.9898 52.7701 43.9798 52.8201 43.9798C53.6201 43.6898 54.5201 43.5998 55.5601 43.7598C56.6501 43.9398 57.4601 44.3398 58.0801 44.8898C58.1601 44.9398 58.2101 44.9998 58.2801 45.0498C60.2701 46.9598 60.4501 50.2598 62.7001 51.5498C63.3901 51.9398 64.3901 52.0798 65.5301 51.9998C65.5601 52.0098 65.58 51.9998 65.61 51.9998C67.91 51.8598 70.7501 50.9598 72.7101 49.9598C72.7601 49.9298 72.8201 49.9098 72.8701 49.8698C73.5801 49.4898 74.18 49.0998 74.55 48.7298C76.12 47.1898 76.5701 45.8198 76.5601 44.4298C76.5401 42.1898 75.33 39.9398 75.67 36.9698C76.15 32.8498 78.4701 31.4198 81.8301 29.3998C85.3601 27.2898 88.92 26.6698 91.36 23.0698C92.24 21.7598 92.4701 20.6898 92.7001 19.7198C92.7101 19.6998 92.71 19.6898 92.72 19.6798C93.04 18.3498 93.38 17.1998 95.41 15.8598C95.9 15.5298 96.7501 15.1698 97.7401 14.8098C97.7901 14.7898 97.86 14.7698 97.92 14.7598C99.03 14.3698 100.28 13.9998 101.37 13.7398C101.38 13.7398 101.39 13.7298 101.39 13.7298C102.7 13.4198 103.79 13.2498 104.18 13.3698C104.36 13.4198 104.52 13.4898 104.68 13.5698H104.69C105.57 13.9998 106.24 14.7398 106.88 15.5398C106.9 15.5598 106.92 15.5698 106.93 15.5898H106.94C106.94 15.5898 106.95 15.5998 106.95 15.6098C108.24 17.1898 109.47 18.9098 112.01 18.4898C120.77 17.0298 110.72 1.45981 121.44 3.21981C127.12 4.13981 125.14 8.6198 127.52 11.1798H127.53L127.68 11.3398C130.71 14.2698 130.08 13.1298 134.07 11.9998C134.11 11.9898 134.15 11.9798 134.19 11.9698C139.24 10.5798 142.28 11.9698 147.32 11.7298C149.23 11.6398 150.98 10.6898 152.71 9.7798C154.44 8.8598 156.16 7.9998 158.02 8.1498C159.41 8.2598 160.58 8.94981 161.64 9.87981C161.65 9.87981 161.65 9.88982 161.65 9.88982C164.89 12.7198 167.18 17.7098 171.98 14.9998C173.13 14.3398 174.18 12.9498 175.2 11.2698C175.2 11.2598 175.21 11.2598 175.21 11.2598C175.22 11.2498 175.23 11.2298 175.23 11.2198C177.88 6.86981 180.37 0.709799 184.23 0.899799H184.24C185.11 0.939799 186.03 1.27979 187.04 2.04979C188.07 2.82979 187.64 5.19982 188.22 6.25982C189.32 8.28982 191.78 9.83981 192.62 11.7498C194.13 15.2498 193.37 19.1298 193.26 23.1498C192.96 34.0498 195.41 41.4298 198.99 51.1698C200.3 54.7298 201.13 59.5798 200.6 63.3798C200.01 67.5898 197.74 68.2698 195.73 71.4898C191.02 79.0598 195.32 83.5298 196.62 90.9898C198.14 99.6898 195.65 106.42 191.61 113.38C187.21 120.96 188.18 131.62 189.76 139.72C190.42 143.11 190.88 145.76 192.13 148.83C193.8 152.89 195.76 152.96 192.99 157.2C190.01 161.74 189.01 159.33 190.89 162.79C191.24 163.43 195.44 168.23 196.37 168.38C200.47 169.04 209.24 152.65 211 156.82C214.64 165.42 207.64 173.83 206.36 182.34L206.32 182.36Z" fill="url(#paint0_linear_156_3581)"/>
<defs>
<linearGradient id="paint0_linear_156_3581" x1="184.15" y1="0.339797" x2="55.4501" y2="223.25" gradientUnits="userSpaceOnUse">
<stop stop-color="#FFFFDC" stop-opacity="0.5"/>
<stop offset="0.69" stop-color="#FFFFBA" stop-opacity="0"/>
</linearGradient>
</defs>
</svg>
