<svg width="232" height="188" viewBox="0 0 232 188" fill="none" xmlns="http://www.w3.org/2000/svg">
<path d="M27.51 59.2298C28.58 65.6198 16.05 62.6698 20.14 56.4398C20.8 55.4398 27.97 48.5998 29.44 50.4098C30.33 51.5198 27.18 57.2398 27.51 59.2298Z" fill="url(#paint0_linear_156_3716)"/>
<path d="M33.44 65.1798C32.22 64.5298 24.7 63.7498 31.46 61.9098C36.66 60.4898 37.91 67.5798 33.44 65.1798Z" fill="url(#paint1_linear_156_3716)"/>
<path d="M28.4 70.2398C23.92 69.7398 29.48 64.6998 33.09 68.4898C34.4 69.8698 35.77 71.2898 33.44 72.6898C31.41 73.9098 30.41 70.4598 28.4 70.2398Z" fill="url(#paint2_linear_156_3716)"/>
<path d="M45.4101 70.0698C47.3101 70.6198 46.9401 72.9798 45.1101 73.2898C41.7401 73.8598 42.9601 69.3498 45.4101 70.0698Z" fill="url(#paint3_linear_156_3716)"/>
<path d="M10.2801 104.24C8.87011 105.12 6.87011 104.52 5.65011 105.71C4.66011 106.67 6.21008 108.91 4.81008 110C1.15008 112.86 -1.47992 106.66 1.12008 103.85C2.26008 102.62 3.95008 103.65 5.06008 102.9C5.66008 102.5 7.30005 100.72 7.91005 100.48C9.73005 99.7599 10.5201 96.6799 12.0901 99.2399C12.7801 100.36 11.1801 103.68 10.2701 104.24H10.2801Z" fill="url(#paint4_linear_156_3716)"/>
<path d="M7.63004 113.05C6.40004 114.17 4.75001 113.23 3.85001 114.88C2.17001 117.98 5.22004 118.97 7.50004 118.9C13.94 118.7 13.45 107.76 7.63004 113.05Z" fill="url(#paint5_linear_156_3716)"/>
<path d="M17.2401 132.53C13.6101 133.02 12.7101 123.52 16.9101 123.86C15.9601 123.78 18.5201 128.42 18.4401 127.98C18.7001 129.36 21.5901 131.93 17.2401 132.53Z" fill="url(#paint6_linear_156_3716)"/>
<path d="M22.35 128.97C22.75 131.83 15.52 140.74 23.16 134.73C25.3 133.05 27.12 131.69 25.98 128.28C26.15 128.8 21.1801 123.63 21.6401 123.83C17.9801 122.29 22.39 129.28 22.35 128.98V128.97Z" fill="url(#paint7_linear_156_3716)"/>
<path d="M29.98 120.34C28.79 122.22 26.68 123.14 29.28 125.18C28.66 124.69 34.29 124.56 33.78 124.98C37.03 122.32 32.52 116.29 29.98 120.35V120.34Z" fill="url(#paint8_linear_156_3716)"/>
<path d="M22.3001 88.15C21.6901 90.54 18.8901 90.9399 17.1101 89.4199C14.4401 87.1399 17.5401 84.25 18.3301 83.27C23.4601 76.82 23.6701 82.76 22.3001 88.15Z" fill="url(#paint9_linear_156_3716)"/>
<path d="M31.87 87.6798C33.87 88.6398 29.35 94.0199 27.32 89.8999C25.62 86.4599 29.99 86.7798 31.87 87.6798Z" fill="url(#paint10_linear_156_3716)"/>
<path d="M25.43 92.4399C24.62 92.6899 17.99 92.03 21.43 95.83C24.95 99.72 29.29 91.2499 25.43 92.4399Z" fill="url(#paint11_linear_156_3716)"/>
<path d="M27.61 102.51C22.43 104.31 29.34 97.7098 31.12 98.1098C32.91 98.5098 33.8 99.6198 33.24 101.69C32.25 105.29 29.65 101.81 27.61 102.51Z" fill="url(#paint12_linear_156_3716)"/>
<path d="M23.64 109.43C24.49 111.56 26.08 109.94 27.34 110.45C26.27 110.01 31.97 112.28 30.99 112.36C32.82 112.22 34.91 112.74 34.05 108.95C33.05 104.59 21.1 103.13 23.64 109.44V109.43Z" fill="url(#paint13_linear_156_3716)"/>
<path d="M43.14 80.5899C45.6 82.6499 40.93 83.7699 39.61 82.6599C39.32 82.4099 36.54 78.2599 39.03 78.6899C39.12 78.7099 43.08 80.5499 43.14 80.5999V80.5899Z" fill="url(#paint14_linear_156_3716)"/>
<path d="M48.1301 77.08C46.5701 71.45 43.8901 80.07 47.4201 80.25C48.3601 79.45 48.5901 78.39 48.1301 77.08Z" fill="url(#paint15_linear_156_3716)"/>
<path d="M50.33 82.9899C49.37 83.2599 47.13 87.7999 45.73 88.8699C43.81 90.3399 37.44 91.9799 43.58 93.2399C45.44 93.6199 51.78 90.8599 52.81 89.5699C54.6 87.3399 54.7501 81.7599 50.3401 82.9899H50.33Z" fill="url(#paint16_linear_156_3716)"/>
<path d="M56.7601 94.5899C57.2901 91.5699 57.0901 86.6699 54.1101 91.3799C51.7501 95.1099 55.5401 101.49 56.7601 94.5899Z" fill="url(#paint17_linear_156_3716)"/>
<path d="M50.0301 102.97C50.3001 100.94 53.7101 101.63 53.3601 103.52C53.0501 105.2 49.7801 104.85 50.0301 102.97Z" fill="url(#paint18_linear_156_3716)"/>
<path d="M49.06 62.8499C48.18 63.2199 44.42 63.9 44.23 63.94C43.13 64.21 44.13 66.3299 41.97 66.1099C41.24 66.0399 41.2 63.13 40.66 62.7C39.12 61.45 37.03 62.1899 35.23 60.6099C32.51 58.2299 32.7501 55.86 36.5201 55.01C38.0201 54.67 40.47 56.93 41.68 56.3C43.04 55.59 42.4 53.82 43.11 53.19C45.08 51.44 41.46 51.7299 45.94 49.8599C47 49.4199 47.8 49.93 48.82 49.84C51.44 49.62 53.1801 49.67 54.5301 51.68C56.3601 54.39 53.9 56.85 53.47 57.7C53.72 57.21 51.7401 57.87 51.4601 58.19C50.0001 59.83 52.21 61.5199 49.06 62.8499Z" fill="url(#paint19_linear_156_3716)"/>
<path d="M12.5901 166.34C10.6401 168.22 16.3301 168.5 16.9301 169.11C19.1401 171.36 15.5901 173.54 20.2401 174.19C23.4601 174.64 26.1701 172.28 24.5901 169.65C23.6901 168.14 13.6901 165.27 12.5801 166.34H12.5901Z" fill="url(#paint20_linear_156_3716)"/>
<path d="M49.4801 134.02C48.7801 131.8 45.0802 129.83 43.2102 131.91C42.2402 132.99 44.4402 135.28 43.5802 136.85C42.9202 138.06 38.6101 139.64 37.2401 140.74C35.2601 142.34 33.1402 144.42 30.9602 146.14C26.8102 149.41 21.4301 154.93 26.8801 159.64C27.2801 159.98 32.3602 162.31 32.7002 162.37C35.9202 162.9 35.5301 161.84 38.3501 161.3C39.9401 161 41.6002 160.34 43.5102 160.39C42.9002 160.37 48.7902 160.79 47.4502 161.06C50.7602 160.4 52.0302 157.98 54.6402 154.87C55.5502 153.79 57.0801 152.48 57.6901 151.08C57.9901 150.4 58.9901 143.2 58.8601 142.59C58.0101 138.81 54.1301 135.68 49.4801 134.03V134.02Z" fill="url(#paint21_linear_156_3716)"/>
<path d="M84.89 186.92C86.64 185.56 88.3 187.93 88 183.89C87.78 180.89 82.89 180.01 81.01 181.79C77.48 185.14 80.88 190.02 84.88 186.92H84.89Z" fill="url(#paint22_linear_156_3716)"/>
<path d="M97.6301 170.71C86.6701 165.29 92.4001 150.18 100.31 157.57C102.22 159.36 101.18 161.11 101.9 163.31C102.49 165.14 104.43 167.1 104.84 168.89C106.19 174.86 101.28 172.51 97.6301 170.71Z" fill="url(#paint23_linear_156_3716)"/>
<path d="M106.26 166.36C105.22 168.38 109.82 168.14 110.34 168.36C111.29 168.34 112.24 168.22 113.17 168C114.41 168.21 114.93 168.85 114.73 169.91C116.31 170.26 115.51 171.43 118.37 170.22C117.82 170.45 120.68 166.5 120.35 167.56C120.69 166.44 121.23 163.4 117.39 163.27C115.22 163.2 114.95 165.46 113.07 165.89C111.08 166.34 107.62 163.68 106.25 166.34L106.26 166.36Z" fill="url(#paint24_linear_156_3716)"/>
<path d="M113.35 160.53C102.03 162.15 103.28 154.84 111.56 152.4C114.95 151.4 116 152.02 116.12 155.8C116.16 157.15 117.59 159.92 113.35 160.52V160.53Z" fill="url(#paint25_linear_156_3716)"/>
<path d="M118.81 160.15C119.89 162.69 126.33 164.38 127.82 161.44C130.22 156.69 116.75 155.29 118.81 160.15Z" fill="url(#paint26_linear_156_3716)"/>
<path d="M136.13 168.53C135.27 164.95 128.49 164.82 129.45 169.07C130.07 171.85 136.64 170.62 136.13 168.53Z" fill="url(#paint27_linear_156_3716)"/>
<path d="M143.51 164.39C143.23 162.64 134 159.12 135.67 163.58C136.28 165.21 144.17 168.58 143.51 164.39Z" fill="url(#paint28_linear_156_3716)"/>
<path d="M141.58 148.8C144.5 149.96 143.46 154.58 140.6 153.62C137.22 152.49 137.5 147.18 141.58 148.8Z" fill="url(#paint29_linear_156_3716)"/>
<path d="M159.41 152.41C156.22 153.36 149.02 153.61 147.18 150.2C145.27 146.65 148.04 145.06 151.29 144.14C151.7 144.02 155.43 144.06 156.22 144.07C158.07 144.08 158.85 142.77 160.78 144.2C163.53 146.24 162.67 151.44 159.4 152.42L159.41 152.41Z" fill="url(#paint30_linear_156_3716)"/>
<path d="M195.68 148.33C204.45 150.34 198.96 159.63 193.13 155.65C193.45 155.87 191.01 149.71 190.91 150.44C191.2 148.2 191.64 147.4 195.67 148.33H195.68Z" fill="url(#paint31_linear_156_3716)"/>
<path d="M189.24 137.58C189.66 137.4 190.09 137.22 190.51 137.04C192.24 137.82 190 140.94 191.05 142.16C191.75 142.97 194.48 141.09 195.53 142.87C196.3 144.17 182.59 145.56 189.24 137.58Z" fill="url(#paint32_linear_156_3716)"/>
<path d="M222.92 141.03C220.72 139.56 219.59 136.08 222.57 134.62C226 132.94 224.69 135.87 226.1 137.33C230.14 141.49 229.11 145.16 222.92 141.03Z" fill="url(#paint33_linear_156_3716)"/>
<path d="M221.33 85.1099C226.52 85.0099 220.82 88.7099 220.83 88.5199C220.85 88.0799 217.27 85.1899 221.33 85.1099Z" fill="url(#paint34_linear_156_3716)"/>
<path d="M220.84 80.87C220.62 82 225.92 84.67 227.07 83.18C228.35 81.52 221.6 76.97 220.84 80.87Z" fill="url(#paint35_linear_156_3716)"/>
<path d="M226.3 115.96C225.85 120.7 217.99 120.32 221.47 127.23C220.86 126.02 225.12 128.99 224.7 128.76C226.87 129.91 227.63 133.65 230.34 130.38C231.14 129.41 231.84 120.45 231.58 119.6C231.5 119.35 226.08 115.28 226.65 114.57C226.53 115.03 226.42 115.5 226.3 115.96Z" fill="url(#paint36_linear_156_3716)"/>
<path d="M226.46 111.76C227.5 111.89 233.34 115.53 229.53 110.88C225.98 106.54 224.83 111.55 226.46 111.76Z" fill="url(#paint37_linear_156_3716)"/>
<path d="M227.17 99.3099C226.25 102.5 226.01 106.08 223.16 108.62C216.8 114.27 218.74 105.47 215.43 105.99C215.96 105.99 209.55 113.29 209.51 113.41C208.66 116.69 216.15 124.52 208.99 124.37C207.08 124.33 201.35 119.82 200.8 118.03C198.99 111.99 207.68 110.08 204.35 103.37C203.29 101.23 200.99 100.52 199.67 98.7398C198.29 96.8598 198.14 94.6499 197.1 92.7099C194.06 87.0799 196.49 90.8299 192.93 93.0599C190.54 94.5699 184.82 94.2699 182.59 95.1399C180.37 96.0199 181.27 93.1199 179.44 95.8999C179.53 95.8999 181.33 99.6098 181.43 100.04C182.27 103.41 179.81 107.05 181 110.53C182.98 116.37 204.28 127.51 189.72 130.11C186.45 130.69 187.35 130.9 183.74 129.79C181.3 129.04 171.71 129.48 177.08 133.16C177.5 133.44 179.31 131.48 179.74 131.66C180.33 131.91 181.8 133.28 181.86 133.29C181.89 133.3 185.59 135.14 185.68 135.33C187.12 138.52 181.75 142.84 179.14 144.16C177.23 145.12 175.68 144.74 173.89 145.87C172.87 146.5 173.93 149.15 171.76 149.22C170.88 149.25 167.85 143.54 167.38 142.98C163.6 138.54 161.82 140.07 156.11 139.79C152.76 139.62 148.17 138.55 148.65 133.88C148.92 131.29 152.04 130.59 153.18 129.03C153.76 128.24 154.53 126.75 155.02 126.09C156.01 124.77 154.73 123.43 156.84 122.36C158.4 121.55 159.68 123.9 160.77 123.31C163.81 121.67 162.18 112.73 165.73 112.15C169.49 111.54 167.54 119.25 172.13 117.55C176.52 115.92 174.97 106.96 170.88 106.91C170.81 106.91 169.32 108.99 168.08 109.03C166 109.1 164.31 106.2 163.94 106.18C159.95 106.04 160.48 112.96 155.44 114.54C149.82 116.31 151.34 113.29 146.74 117.14C143.03 120.25 135.83 122.88 134.12 127.4C133.28 129.6 133.65 132.77 133.01 135.08C132.71 136.17 131.29 137.12 130.96 138.29C130.58 139.59 131.92 140.97 131.34 142.38C130.15 145.28 128.59 144.53 126.84 146.31C125.88 147.3 126.19 149.86 124.9 150.4C123.61 150.95 122.46 148.86 121.42 149.18C119.38 149.81 120.08 151.75 117.48 151.83C116.63 151.86 111.97 148.78 111.41 148.24C108.72 145.67 108.84 144.51 108.6 140.56C108.51 139.19 109.44 126.48 107.46 126.25C105.99 126.07 106.3 138.06 105.95 139.29C104.75 143.54 101.36 148.39 97.94 151.21C93.31 155.03 89.62 154.18 88.21 160.68C86.96 166.49 87.69 166.05 83.01 168.41C82.49 168.14 81.97 167.89 81.45 167.62C80.46 168.02 79.78 168.73 79.39 169.74C78.24 170.01 77.78 173.26 75.77 171.22C73.71 169.14 79.06 164.24 76.21 162.53C73.44 160.88 71.36 167.94 70.71 161.61C70.54 159.94 73.99 156.77 74.26 155.54C75.31 150.59 73.37 155.26 70.54 151.99C67.64 148.64 70.82 143.79 67.49 139.79C64.21 135.85 59.15 135.31 54.92 133.36C50.06 131.11 48.27 127.8 46.58 122.27C45.38 118.39 44.22 112.53 46.76 108.84C51.48 102 52.39 108.68 53.77 112.41C55.89 118.07 58.36 131.74 67.59 128.49C65.04 122.12 53.71 123.49 59.85 114.2C65.33 105.88 66.42 116.19 70.66 118.6C77.69 122.59 76.73 113.97 70.86 111.28C67.72 109.85 54.39 110.38 60 104.74C62.95 101.78 74.5 104.73 75.42 102.87C78.06 97.4899 64.14 100.49 62.96 100.63C53.23 101.86 60.43 95.7999 60.88 89.9599C61.05 87.7899 61.98 72.9698 59.87 73.1798C56.55 73.5098 58.74 77.8099 56.48 79.5299C53.82 81.5399 50.23 79.4599 50.71 76.1999C51.08 73.7099 56.78 69.9198 58 68.1698C58.65 67.2298 61.15 67.1198 59.84 64.4698C58.81 62.3498 56.82 64.9799 55.66 63.3299C54.5 61.6299 54.46 59.7098 56.68 58.7198C61.75 56.4398 60.3 62.3299 62.16 63.7699C67.16 67.6399 68.03 58.6298 65.18 55.1598C62.58 51.9898 60.07 47.4499 56.98 44.6999C53.18 41.3099 50.18 40.6599 50.88 34.8699C51.47 30.0099 55.69 28.6899 58.13 25.3099C60.49 22.0299 60.83 9.27986 65.07 7.49986C67.22 6.58986 69.31 8.41986 71.04 10.8799C71.14 11.0199 71.23 11.1598 71.33 11.2998C73.15 14.0098 74.52 17.3299 75.06 18.6199C75.88 20.5999 77.09 24.8699 79.09 26.8199C79.09 26.8199 79.1 26.8199 79.1 26.8299C79.1 26.8299 79.11 26.8299 79.11 26.8399C79.12 26.8399 79.12 26.8498 79.13 26.8498C80.5 28.1498 82.25 28.3499 84.51 25.9999C85.06 25.4199 85.16 24.6998 85.21 23.9698C85.25 22.7498 85.12 21.5098 86.57 20.8498C87.28 20.5198 87.92 20.5299 88.49 20.7599H88.5C89.42 21.1099 90.15 22.0099 90.73 22.9499C90.84 23.1399 90.94 23.3398 91.05 23.5498C91.12 23.6698 91.18 23.7999 91.25 23.9399C91.29 24.0299 91.35 24.1298 91.39 24.2298C91.58 23.9198 91.77 23.6399 91.98 23.3899C92.06 23.2799 92.15 23.1799 92.23 23.0799C93.54 21.6099 94.91 21.2598 96.42 19.9298C96.42 19.9298 96.4267 19.9265 96.44 19.9198C97.48 20.6698 98.19 20.8399 98.56 20.4399H98.57C98.77 20.2199 98.87 19.8299 98.88 19.2799C98.95 18.8699 99.06 18.4799 99.2 18.1199C99.5 17.3399 99.95 16.6599 100.56 16.0299C102.44 12.5799 103.92 6.96985 106.59 4.23985C111.09 -0.340153 114.48 0.539859 117.39 2.93986C117.4 2.93986 117.4 2.94987 117.41 2.94987C121.59 6.41987 124.79 13.0199 128.87 11.2499C131.88 9.93986 131.79 1.03987 137.28 4.38987C138.92 5.39987 139.1 6.29985 138.82 7.17985C138.83 7.18985 138.82 7.19987 138.82 7.19987C138.47 8.32987 137.4 9.45984 137.82 10.7998C137.86 10.9298 137.9 11.0399 137.93 11.1499C138.54 12.9899 138.73 12.6998 139.96 14.4198C139.98 14.4398 139.99 14.4799 140.03 14.4999C141.24 16.0999 142.71 15.2199 143.13 17.2799C143.17 17.5299 143.21 17.8299 143.23 18.1899C143.25 18.7799 142.88 19.3199 142.42 19.8199C141.8 20.5199 141.05 21.1399 141.1 21.6999C141.14 22.1499 141.23 22.5499 141.37 22.8999C141.5 23.2399 141.68 23.5399 141.89 23.8099C142.46 24.5199 143.3 24.9399 144.27 25.1499C145.78 25.4999 147.58 25.3798 149.2 25.1598H149.21C149.21 25.1598 149.22 25.1599 149.23 25.1499C149.95 25.0599 150.64 24.9399 151.22 24.8399C153.71 24.4099 154.62 23.9198 156.62 24.0998C156.69 24.1098 156.76 24.1099 156.83 24.1199C157.32 24.1799 157.72 25.3499 158.67 25.7599C158.85 25.8499 159.04 25.8898 159.25 25.9198C160.65 26.0198 161.96 25.6898 163.36 25.4298H163.38C164.58 25.1998 165.85 25.0298 167.29 25.2298C168.54 25.3998 169.41 25.5499 170.17 25.6399H170.18C171.45 25.7999 172.44 25.7498 174.4 25.2398C174.48 25.2198 174.57 25.1998 174.64 25.1598C175.86 24.7598 177.21 23.7199 178.5 23.4599C178.83 23.3899 179.13 23.3799 179.4 23.3999C179.4 23.4099 179.41 23.4098 179.41 23.4098H179.42C180.69 23.5398 181.33 24.5199 183.24 23.4999C185.47 22.2899 185.43 19.6299 188.27 18.5099C188.98 18.2299 189.77 18.0699 190.59 17.9999C190.62 17.9999 190.67 17.9898 190.7 17.9898C190.72 17.9898 190.74 17.9798 190.78 17.9798C191.87 17.9098 193 18.0099 194.04 18.2499C194.2 18.2799 194.36 18.3299 194.52 18.3799C194.54 18.3799 194.58 18.3899 194.6 18.3999C194.9 18.4799 195.18 18.5798 195.44 18.6798C199.98 20.4398 201.93 23.8498 203.1 27.7998C203.12 27.8998 203.16 27.9998 203.18 28.0998C203.31 28.5698 203.43 29.0299 203.55 29.4999C204.91 35.2099 205.18 41.6399 209.26 45.6799C210.62 47.0199 212.16 47.8598 213.66 48.7298C215.39 49.7298 217.07 50.7599 218.39 52.6399C220.13 55.1199 220.21 56.9898 222.54 59.1698C224.41 60.9198 226.83 61.3898 227.94 63.9698C228.82 66.0098 228.21 69.9599 227.22 72.7099C226.95 73.4499 226.66 74.1099 226.36 74.6199C224.54 77.6699 226.18 75.7399 222.7 77.5799C221.45 78.2399 220.44 77.6799 219.17 78.6199C217.09 80.1799 217.67 83.3199 214.78 84.4499C211.51 85.7399 209.89 81.8199 207.38 82.3299C204.12 82.9799 207.03 89.6599 208.29 91.5299C213.33 98.9299 215.69 91.8798 221.22 90.7198C228.3 89.2198 228.43 94.9098 227.17 99.2898V99.3099Z" fill="url(#paint38_linear_156_3716)"/>
<defs>
<linearGradient id="paint0_linear_156_3716" x1="28.82" y1="49.9998" x2="21.76" y2="62.2398" gradientUnits="userSpaceOnUse">
<stop stop-color="#FFFFDC" stop-opacity="0.5"/>
<stop offset="0.69" stop-color="#FFFFBA" stop-opacity="0"/>
</linearGradient>
<linearGradient id="paint1_linear_156_3716" x1="33.8" y1="61.6998" x2="31.7" y2="65.3198" gradientUnits="userSpaceOnUse">
<stop stop-color="#FFFFDC" stop-opacity="0.5"/>
<stop offset="0.69" stop-color="#FFFFBA" stop-opacity="0"/>
</linearGradient>
<linearGradient id="paint2_linear_156_3716" x1="32.12" y1="67.6998" x2="29.86" y2="71.6098" gradientUnits="userSpaceOnUse">
<stop stop-color="#FFFFDC" stop-opacity="0.5"/>
<stop offset="0.69" stop-color="#FFFFBA" stop-opacity="0"/>
</linearGradient>
<linearGradient id="paint3_linear_156_3716" x1="45.7501" y1="70.1898" x2="43.9501" y2="73.3098" gradientUnits="userSpaceOnUse">
<stop stop-color="#FFFFDC" stop-opacity="0.5"/>
<stop offset="0.69" stop-color="#FFFFBA" stop-opacity="0"/>
</linearGradient>
<linearGradient id="paint4_linear_156_3716" x1="9.6301" y1="97.3899" x2="2.0401" y2="110.54" gradientUnits="userSpaceOnUse">
<stop stop-color="#FFFFDC" stop-opacity="0.5"/>
<stop offset="0.69" stop-color="#FFFFBA" stop-opacity="0"/>
</linearGradient>
<linearGradient id="paint5_linear_156_3716" x1="10.23" y1="111.25" x2="5.76001" y2="119" gradientUnits="userSpaceOnUse">
<stop stop-color="#FFFFDC" stop-opacity="0.5"/>
<stop offset="0.69" stop-color="#FFFFBA" stop-opacity="0"/>
</linearGradient>
<linearGradient id="paint6_linear_156_3716" x1="18.9701" y1="125.05" x2="15.1001" y2="131.76" gradientUnits="userSpaceOnUse">
<stop stop-color="#FFFFDC" stop-opacity="0.5"/>
<stop offset="0.69" stop-color="#FFFFBA" stop-opacity="0"/>
</linearGradient>
<linearGradient id="paint7_linear_156_3716" x1="24.5" y1="125.47" x2="18.4401" y2="135.97" gradientUnits="userSpaceOnUse">
<stop stop-color="#FFFFDC" stop-opacity="0.5"/>
<stop offset="0.69" stop-color="#FFFFBA" stop-opacity="0"/>
</linearGradient>
<linearGradient id="paint8_linear_156_3716" x1="33.57" y1="119.56" x2="30.07" y2="125.63" gradientUnits="userSpaceOnUse">
<stop stop-color="#FFFFDC" stop-opacity="0.5"/>
<stop offset="0.69" stop-color="#FFFFBA" stop-opacity="0"/>
</linearGradient>
<linearGradient id="paint9_linear_156_3716" x1="22.9101" y1="80.97" x2="17.7701" y2="89.87" gradientUnits="userSpaceOnUse">
<stop stop-color="#FFFFDC" stop-opacity="0.5"/>
<stop offset="0.69" stop-color="#FFFFBA" stop-opacity="0"/>
</linearGradient>
<linearGradient id="paint10_linear_156_3716" x1="30.6" y1="86.9398" x2="28.22" y2="91.0698" gradientUnits="userSpaceOnUse">
<stop stop-color="#FFFFDC" stop-opacity="0.5"/>
<stop offset="0.69" stop-color="#FFFFBA" stop-opacity="0"/>
</linearGradient>
<linearGradient id="paint11_linear_156_3716" x1="25.02" y1="91.5299" x2="22.17" y2="96.4699" gradientUnits="userSpaceOnUse">
<stop stop-color="#FFFFDC" stop-opacity="0.5"/>
<stop offset="0.69" stop-color="#FFFFBA" stop-opacity="0"/>
</linearGradient>
<linearGradient id="paint12_linear_156_3716" x1="31.73" y1="98.2198" x2="28.3" y2="104.15" gradientUnits="userSpaceOnUse">
<stop stop-color="#FFFFDC" stop-opacity="0.5"/>
<stop offset="0.69" stop-color="#FFFFBA" stop-opacity="0"/>
</linearGradient>
<linearGradient id="paint13_linear_156_3716" x1="30.73" y1="105.76" x2="27.13" y2="111.99" gradientUnits="userSpaceOnUse">
<stop stop-color="#FFFFDC" stop-opacity="0.5"/>
<stop offset="0.69" stop-color="#FFFFBA" stop-opacity="0"/>
</linearGradient>
<linearGradient id="paint14_linear_156_3716" x1="41.44" y1="79.6099" x2="39.65" y2="82.6999" gradientUnits="userSpaceOnUse">
<stop stop-color="#FFFFDC" stop-opacity="0.5"/>
<stop offset="0.69" stop-color="#FFFFBA" stop-opacity="0"/>
</linearGradient>
<linearGradient id="paint15_linear_156_3716" x1="48.1401" y1="75.83" x2="45.9402" y2="79.63" gradientUnits="userSpaceOnUse">
<stop stop-color="#FFFFDC" stop-opacity="0.5"/>
<stop offset="0.69" stop-color="#FFFFBA" stop-opacity="0"/>
</linearGradient>
<linearGradient id="paint16_linear_156_3716" x1="51.65" y1="82.4999" x2="44.73" y2="94.4699" gradientUnits="userSpaceOnUse">
<stop stop-color="#FFFFDC" stop-opacity="0.5"/>
<stop offset="0.69" stop-color="#FFFFBA" stop-opacity="0"/>
</linearGradient>
<linearGradient id="paint17_linear_156_3716" x1="57.4101" y1="90.1099" x2="53.5001" y2="96.8699" gradientUnits="userSpaceOnUse">
<stop stop-color="#FFFFDC" stop-opacity="0.5"/>
<stop offset="0.69" stop-color="#FFFFBA" stop-opacity="0"/>
</linearGradient>
<linearGradient id="paint18_linear_156_3716" x1="52.4301" y1="101.92" x2="50.9601" y2="104.46" gradientUnits="userSpaceOnUse">
<stop stop-color="#FFFFDC" stop-opacity="0.5"/>
<stop offset="0.69" stop-color="#FFFFBA" stop-opacity="0"/>
</linearGradient>
<linearGradient id="paint19_linear_156_3716" x1="48.97" y1="47.91" x2="39.3201" y2="64.61" gradientUnits="userSpaceOnUse">
<stop stop-color="#FFFFDC" stop-opacity="0.5"/>
<stop offset="0.69" stop-color="#FFFFBA" stop-opacity="0"/>
</linearGradient>
<linearGradient id="paint20_linear_156_3716" x1="20.0901" y1="166.84" x2="16.7101" y2="172.7" gradientUnits="userSpaceOnUse">
<stop stop-color="#FFFFDC" stop-opacity="0.5"/>
<stop offset="0.69" stop-color="#FFFFBA" stop-opacity="0"/>
</linearGradient>
<linearGradient id="paint21_linear_156_3716" x1="51.6701" y1="134.12" x2="34.4101" y2="164.01" gradientUnits="userSpaceOnUse">
<stop stop-color="#FFFFDC" stop-opacity="0.5"/>
<stop offset="0.69" stop-color="#FFFFBA" stop-opacity="0"/>
</linearGradient>
<linearGradient id="paint22_linear_156_3716" x1="85.84" y1="181.22" x2="81.88" y2="188.07" gradientUnits="userSpaceOnUse">
<stop stop-color="#FFFFDC" stop-opacity="0.5"/>
<stop offset="0.69" stop-color="#FFFFBA" stop-opacity="0"/>
</linearGradient>
<linearGradient id="paint23_linear_156_3716" x1="102.37" y1="158.47" x2="95.8701" y2="169.73" gradientUnits="userSpaceOnUse">
<stop stop-color="#FFFFDC" stop-opacity="0.5"/>
<stop offset="0.69" stop-color="#FFFFBA" stop-opacity="0"/>
</linearGradient>
<linearGradient id="paint24_linear_156_3716" x1="116.21" y1="161.94" x2="111.34" y2="170.38" gradientUnits="userSpaceOnUse">
<stop stop-color="#FFFFDC" stop-opacity="0.5"/>
<stop offset="0.69" stop-color="#FFFFBA" stop-opacity="0"/>
</linearGradient>
<linearGradient id="paint25_linear_156_3716" x1="114.24" y1="151.83" x2="108.77" y2="161.31" gradientUnits="userSpaceOnUse">
<stop stop-color="#FFFFDC" stop-opacity="0.5"/>
<stop offset="0.69" stop-color="#FFFFBA" stop-opacity="0"/>
</linearGradient>
<linearGradient id="paint26_linear_156_3716" x1="124.89" y1="157.2" x2="121.78" y2="162.6" gradientUnits="userSpaceOnUse">
<stop stop-color="#FFFFDC" stop-opacity="0.5"/>
<stop offset="0.69" stop-color="#FFFFBA" stop-opacity="0"/>
</linearGradient>
<linearGradient id="paint27_linear_156_3716" x1="134" y1="166.17" x2="131.32" y2="170.81" gradientUnits="userSpaceOnUse">
<stop stop-color="#FFFFDC" stop-opacity="0.5"/>
<stop offset="0.69" stop-color="#FFFFBA" stop-opacity="0"/>
</linearGradient>
<linearGradient id="paint28_linear_156_3716" x1="140.51" y1="162.07" x2="138.44" y2="165.67" gradientUnits="userSpaceOnUse">
<stop stop-color="#FFFFDC" stop-opacity="0.5"/>
<stop offset="0.69" stop-color="#FFFFBA" stop-opacity="0"/>
</linearGradient>
<linearGradient id="paint29_linear_156_3716" x1="141.96" y1="148.99" x2="139.58" y2="153.12" gradientUnits="userSpaceOnUse">
<stop stop-color="#FFFFDC" stop-opacity="0.5"/>
<stop offset="0.69" stop-color="#FFFFBA" stop-opacity="0"/>
</linearGradient>
<linearGradient id="paint30_linear_156_3716" x1="157.86" y1="142.47" x2="151.56" y2="153.39" gradientUnits="userSpaceOnUse">
<stop stop-color="#FFFFDC" stop-opacity="0.5"/>
<stop offset="0.69" stop-color="#FFFFBA" stop-opacity="0"/>
</linearGradient>
<linearGradient id="paint31_linear_156_3716" x1="197.22" y1="148.74" x2="193.19" y2="155.71" gradientUnits="userSpaceOnUse">
<stop stop-color="#FFFFDC" stop-opacity="0.5"/>
<stop offset="0.69" stop-color="#FFFFBA" stop-opacity="0"/>
</linearGradient>
<linearGradient id="paint32_linear_156_3716" x1="193.27" y1="138.62" x2="190.14" y2="144.04" gradientUnits="userSpaceOnUse">
<stop stop-color="#FFFFDC" stop-opacity="0.5"/>
<stop offset="0.69" stop-color="#FFFFBA" stop-opacity="0"/>
</linearGradient>
<linearGradient id="paint33_linear_156_3716" x1="226.83" y1="135.48" x2="223.43" y2="141.37" gradientUnits="userSpaceOnUse">
<stop stop-color="#FFFFDC" stop-opacity="0.5"/>
<stop offset="0.69" stop-color="#FFFFBA" stop-opacity="0"/>
</linearGradient>
<linearGradient id="paint34_linear_156_3716" x1="222.14" y1="84.7899" x2="220.2" y2="88.1599" gradientUnits="userSpaceOnUse">
<stop stop-color="#FFFFDC" stop-opacity="0.5"/>
<stop offset="0.69" stop-color="#FFFFBA" stop-opacity="0"/>
</linearGradient>
<linearGradient id="paint35_linear_156_3716" x1="225" y1="80.09" x2="223.32" y2="83.01" gradientUnits="userSpaceOnUse">
<stop stop-color="#FFFFDC" stop-opacity="0.5"/>
<stop offset="0.69" stop-color="#FFFFBA" stop-opacity="0"/>
</linearGradient>
<linearGradient id="paint36_linear_156_3716" x1="231.04" y1="117.11" x2="223.98" y2="129.35" gradientUnits="userSpaceOnUse">
<stop stop-color="#FFFFDC" stop-opacity="0.5"/>
<stop offset="0.69" stop-color="#FFFFBA" stop-opacity="0"/>
</linearGradient>
<linearGradient id="paint37_linear_156_3716" x1="229.13" y1="110.11" x2="227.72" y2="112.56" gradientUnits="userSpaceOnUse">
<stop stop-color="#FFFFDC" stop-opacity="0.5"/>
<stop offset="0.69" stop-color="#FFFFBA" stop-opacity="0"/>
</linearGradient>
<linearGradient id="paint38_linear_156_3716" x1="173.95" y1="6.11986" x2="77.85" y2="172.58" gradientUnits="userSpaceOnUse">
<stop stop-color="#FFFFDC" stop-opacity="0.5"/>
<stop offset="0.69" stop-color="#FFFFBA" stop-opacity="0"/>
</linearGradient>
</defs>
</svg>
