<svg width="134" height="70" viewBox="0 0 134 70" fill="none" xmlns="http://www.w3.org/2000/svg">
<path d="M133.63 10.2198C135.55 15.6098 129.38 14.7299 127.98 11.5099C126.4 7.86988 132.17 6.10984 133.63 10.2198Z" fill="url(#paint0_linear_156_4026)"/>
<path d="M104.3 0.129731C93.47 1.23973 84.5 2.97976 74.37 6.52976C65.84 9.52976 58.05 7.58973 49.29 11.1297C36.11 16.4497 24.31 18.6697 14.06 29.2597C9.07002 34.4097 1.49002 39.7897 0.690022 47.0197C-0.299978 55.9597 6.98005 62.5097 13.59 67.1797C24.31 74.7397 19.15 64.1797 27.82 61.7697C28.51 61.5797 35.3 62.6897 36.17 62.7597C38.69 62.9697 40.56 62.5897 43.53 63.1497C44.7 63.3697 47.1 62.9697 48.45 63.0697C49.32 64.2497 50.47 64.9497 51.9 65.1697C53.39 64.2097 54.97 63.4297 56.63 62.8197C63.19 62.1497 68.99 65.1197 75.2 62.1797C76.61 60.5997 77.99 58.9798 79.34 57.3398C81.02 55.9398 82.81 55.7697 84.72 56.8197C87.01 56.0297 90.43 55.1297 93.15 54.3097C94.28 53.9697 98.28 53.3697 99.14 53.1797C99.4 51.1197 100.64 50.2397 102.86 50.5597C104.8 51.4297 106.75 51.5097 108.71 50.7897C114.11 48.4997 115.07 42.3497 117.98 38.2997C122.27 32.3297 127.07 30.9697 126.04 22.8897C125.28 16.8797 122.96 10.0497 117.94 6.92972C117.24 6.48972 112.36 5.4997 111.13 4.9097C108.09 3.4697 108.97 -0.340269 104.3 0.129731Z" fill="url(#paint1_linear_156_4026)"/>
<defs>
<linearGradient id="paint0_linear_156_4026" x1="132.44" y1="8.46985" x2="129.61" y2="13.3599" gradientUnits="userSpaceOnUse">
<stop stop-color="#FFFFDC" stop-opacity="0.5"/>
<stop offset="0.69" stop-color="#FFFFBA" stop-opacity="0"/>
</linearGradient>
<linearGradient id="paint1_linear_156_4026" x1="89.85" y1="-9.38027" x2="37.56" y2="81.1797" gradientUnits="userSpaceOnUse">
<stop stop-color="#FFFFDC" stop-opacity="0.5"/>
<stop offset="0.69" stop-color="#FFFFBA" stop-opacity="0"/>
</linearGradient>
</defs>
</svg>
