<svg width="174" height="189" viewBox="0 0 174 189" fill="none" xmlns="http://www.w3.org/2000/svg">
<path d="M173.17 27.17C173.17 27.17 173.1 27.24 173.07 27.27C172.53 27.83 171.94 28.22 171.33 28.52C171.33 28.52 171.32 28.53 171.31 28.53C170.16 29.08 168.9 29.27 167.71 29.59C167.65 29.6 167.58 29.62 167.53 29.65C166.68 29.88 165.85 30.19 165.11 30.75C162.94 32.36 163.07 33.07 162.31 34.73C162.3 34.74 162.3 34.75 162.29 34.78C162.12 35.16 161.9 35.58 161.6 36.07C158.62 41 155.85 41.78 150.95 44.86C143.08 49.85 145.95 51.31 145.6 59.36C145.58 59.75 145.53 60.14 145.45 60.51C144.97 62.66 143.54 64.72 141.61 66.19C141.55 66.22 141.5 66.25 141.44 66.28C139.32 67.85 136.64 68.74 134.04 68.41C134.02 68.41 133.99 68.42 133.96 68.41C133.72 68.39 133.49 68.3399 133.25 68.2999C129.53 67.4999 128.96 63.35 126.4 61.16C126.33 61.1 126.27 61.05 126.19 60.99C125.25 60.27 124.06 59.8 122.39 59.82C121.82 59.82 121.26 59.9 120.7 60.04C120.65 60.04 120.63 60.05 120.6 60.06C116.76 61.02 113.06 64.52 108.97 65.26H108.88C108.88 65.26 108.82 65.29 108.77 65.31C107.02 65.58 104.85 65.48 102.76 65.69H102.74C100.33 65.91 98.02 66.51 96.52 68.53C95.79 69.51 95.5099 70.57 95.5599 71.63C95.5699 72.52 95.7999 73.41 96.1199 74.28C96.1199 74.3 96.1299 74.3099 96.1399 74.3299C97.3899 77.5799 100.06 80.56 99.2199 81.82C99.2199 81.81 99.09 81.8 98.84 81.79C98.65 81.78 98.4099 81.76 98.1099 81.73C97.7899 81.71 97.3899 81.67 96.9199 81.64C96.7099 81.62 96.5 81.5899 96.27 81.5799C96.04 81.5599 95.7799 81.53 95.4899 81.51C95.1499 81.49 94.78 81.45 94.4 81.42C93.99 81.37 93.58 81.34 93.15 81.29C92.09 81.18 90.9699 81.03 89.9299 80.87C89.5899 80.81 89.2399 80.76 88.9199 80.7C87.9599 80.53 87.1099 80.33 86.5099 80.09C86.3199 80.02 86.1299 79.9399 85.9799 79.8599C85.9299 79.8399 85.8899 79.8 85.8499 79.78C85.7399 79.71 85.64 79.6299 85.59 79.5499C85.54 79.4899 85.5199 79.45 85.5099 79.39C85.4999 79.73 85.4799 80.04 85.4299 80.34C85.0099 83.26 83.0899 83.58 81.0799 84.02C81.0499 84.03 81.0099 84.03 80.9799 84.03C80.0199 84.25 79.0599 84.4999 78.2199 85.0799C75.0499 87.2899 76.85 88.06 74.96 91.38C74.81 91.64 74.6299 91.8799 74.4099 92.1099C74.3999 92.1099 74.4 92.12 74.4 92.13C73.29 93.28 71.5 93.98 69.84 94.67C69.82 94.68 69.79 94.68 69.78 94.68C67.12 95.77 64.83 96.75 66.59 99.37C66.65 99.45 66.7299 99.54 66.7999 99.63C66.9899 99.88 67.2199 100.16 67.4899 100.44C69.0799 102.14 71.1699 103.26 73.0499 104.49C73.0599 104.49 73.0599 104.5 73.0699 104.5C74.4199 105.37 75.6499 106.3 76.5499 107.52C76.5599 107.53 76.5699 107.55 76.5799 107.58C77.2999 108.59 77.7799 109.8 77.8699 111.35C77.8899 111.56 77.8899 111.76 77.8899 111.99C77.8899 112.29 77.8799 112.58 77.8699 112.88C77.6299 117.34 75.8199 122.14 75.4199 126.61C75.3999 126.9 75.3699 127.17 75.3499 127.44C75.3499 127.47 75.35 127.5 75.34 127.53C75.31 127.96 75.2699 128.41 75.2399 128.83C75.2299 128.89 75.2299 128.94 75.2299 129.01C74.9899 132.25 74.7799 135.17 73.8199 138.31C73.7299 138.64 73.6099 138.96 73.4999 139.29C70.9399 146.56 71.9999 146.63 74.6999 146.25C74.7099 146.25 74.7199 146.24 74.7299 146.24C76.5599 145.99 79.1399 145.53 81.8499 146.96H81.8599C81.9899 147.02 82.1199 147.1 82.2599 147.18C82.8199 147.52 83.25 148.21 83.71 148.88C84.17 149.54 84.6399 150.18 85.2899 150.4C85.4799 150.47 85.67 150.51 85.84 150.54H85.8499C87.2499 150.79 87.9799 149.92 89.2199 150.14C89.4499 150.19 89.65 150.19 89.84 150.17C90.77 150.12 91.3 149.58 92.21 149.7C92.6 149.75 93.0599 149.92 93.6299 150.31C94.1799 150.68 94.6999 151.69 95.1199 152.78C95.3499 153.37 95.55 154 95.71 154.55C95.76 154.73 95.7999 154.9 95.8499 155.06C95.8999 155.25 95.9399 155.44 95.9799 155.61C96.0499 155.92 96.1499 156.16 96.2899 156.36C96.9799 157.7 98.35 157.66 96.28 159.29C96.17 159.38 96.04 159.47 95.9 159.58C95.07 160.19 93.2599 159.58 92.2499 159.53H92.2299C91.9699 159.52 91.7599 159.55 91.6399 159.64C88.6699 161.81 90.5899 161.85 90.1099 165.53C89.5999 169.48 88.2499 173.99 85.9699 177.47C84.3799 179.93 82.32 181.86 79.78 182.71C78.9 183.01 77.9699 183.86 77.1199 184.86C77.1099 184.86 77.0999 184.86 77.0999 184.87C76.0399 186.1 75.0899 187.55 74.4799 188.39C74.4699 188.39 74.4699 188.4 74.4699 188.4C74.1999 188.15 73.9399 187.92 73.6999 187.71C73.5699 187.61 73.4599 187.5 73.3499 187.41C71.5199 185.87 70.7199 185.63 69.6899 185.87H69.6699C68.9299 186.04 68.0499 186.45 66.5599 186.78C66.3399 186.83 66.1099 186.87 65.8599 186.92C61.7899 187.63 63.61 186.98 60.03 185.82C58.83 185.43 57.53 185.11 56.27 184.83C56.27 184.82 56.2599 184.82 56.2599 184.82C56.2499 184.82 56.23 184.82 56.21 184.81C54.72 184.47 53.2899 184.15 52.1199 183.75H52.1099C52.1099 183.75 51.4999 182.43 51.0399 181.86C50.9499 181.76 50.8699 181.68 50.7999 181.64C50.0499 181.22 49.3499 181.77 48.7599 182.28C48.2899 182.68 47.9 183.06 47.59 182.91C47.53 182.88 47.46 182.84 47.4 182.78C46.59 182.19 45.3199 180.21 44.0499 177.84C41.9999 174.02 39.9699 169.15 39.8799 167.24C39.6599 162.65 41.0099 161.66 38.8899 158.69C38.6699 158.38 38.4099 158.05 38.0999 157.68C37.3799 156.82 35.9499 156.47 35.0999 155.47C34.9099 155.24 34.7499 155 34.6099 154.75C34.0999 153.82 33.92 152.82 33.4 151.93C33.29 151.72 33.1399 151.53 32.9699 151.35C32.8999 151.26 32.81 151.17 32.71 151.08C32.7 151.07 32.6899 151.06 32.6799 151.06C32.5899 150.98 32.4999 150.9 32.4199 150.84C29.9599 148.76 28.1199 149.71 27.2899 147.17C27.1799 146.82 27.0699 146.38 26.9899 145.87C26.6099 143.4 28.9799 138.06 29.8499 136.01C30.1499 135.31 30.5399 134.59 30.9499 133.85C30.9599 133.84 30.9599 133.83 30.9699 133.8C32.1099 131.75 33.4099 129.57 33.2899 127.34C33.2699 126.78 33.1499 126.21 32.9099 125.64C30.6199 120.07 30.7899 126.46 29.3199 127.05C29.0099 127.18 28.7399 127.28 28.4899 127.36C25.9999 128.16 25.6199 127.07 23.9399 124.72C23.8799 124.64 23.8299 124.55 23.7599 124.46C23.2599 123.76 23.0699 122.72 22.7499 121.76C22.4899 120.96 22.13 120.22 21.4 119.8C19.78 118.85 19.1199 119.1 18.5999 119.5C18.0899 119.89 17.6699 120.41 16.6099 120.11C16.5799 120.1 16.5399 120.09 16.5099 120.08C13.4899 119.21 14.9999 119.67 13.1799 116.6C13.0699 116.42 12.91 116.15 12.71 115.83H12.6999C12.5899 115.62 12.46 115.42 12.33 115.19C12.31 115.16 12.28 115.13 12.27 115.1C11.56 113.89 10.7299 112.28 10.5099 110.87C10.3299 109.72 10.5699 108.7 11.6199 108.16C11.7499 108.1 11.87 108.05 12.02 108C11.95 107.82 11.87 107.65 11.78 107.51C11.67 107.32 11.5399 107.16 11.3799 107.02C11.2999 106.95 11.2199 106.88 11.1399 106.83C11.1399 106.83 11.1366 106.827 11.1299 106.82C11.0499 106.77 10.9599 106.72 10.8799 106.67C10.8299 106.65 10.7899 106.62 10.7399 106.6C9.48992 105.97 7.6899 106.05 6.2199 105.65C5.5299 105.46 4.92991 105.17 4.47991 104.67C3.61991 103.71 2.30996 97.72 2.08996 96.49C1.91996 95.47 1.77993 94.64 1.67993 93.93C1.52993 92.82 1.48993 91.99 1.61993 91.07C1.66993 90.84 1.70996 90.6099 1.77996 90.3599C1.83996 90.1199 1.91993 89.86 1.99993 89.59C2.04993 89.45 2.08995 89.32 2.13995 89.18C2.20995 89 2.27992 88.79 2.35992 88.59C2.41992 88.44 2.45996 88.3 2.52996 88.16C2.58996 88.01 2.63996 87.86 2.70996 87.7C2.77996 87.55 2.84992 87.39 2.91992 87.22C3.05992 86.89 3.21995 86.52 3.38995 86.15C3.44995 86.01 3.51995 85.85 3.57995 85.68C4.03995 84.53 4.66991 82.64 5.47991 80.81C5.47991 80.79 5.48993 80.76 5.49993 80.74C6.56993 78.32 7.93992 75.99 9.54992 75.62C10.6499 75.36 11.4899 75.7 12.2299 76.18C13.7199 77.14 14.7999 78.63 16.7599 76.81C17.9699 75.68 17.5599 73.57 16.6999 71.63C15.9799 69.97 14.9299 68.44 14.2599 67.74C11.2199 64.53 2.06991 60.3 0.969905 55.23C0.899905 54.88 0.85993 54.51 0.86993 54.16C0.87993 53.89 0.889937 53.61 0.939937 53.36C1.35994 50.54 3.72992 49.14 6.35992 48C6.85992 47.77 7.38996 47.57 7.89996 47.35C9.67996 46.62 11.4399 45.91 12.6599 44.85C12.9799 44.58 13.2499 44.28 13.4899 43.96C13.3299 42.97 13.31 41.98 13.46 41C13.51 40.66 13.57 40.31 13.65 39.98C14.46 39.18 15.4199 38.85 16.5099 38.97H16.52C16.67 38.98 16.8099 39 16.9499 39.04C18.3699 39.25 19.63 38.87 20.71 37.93C21.19 37.38 21.6399 36.81 22.0499 36.21C22.0499 36.21 22.0566 36.2066 22.0699 36.2C22.4999 35.57 22.8999 34.9 23.2599 34.21C23.4799 34.04 23.6799 33.89 23.8799 33.76C26.9999 31.55 27.9199 32.73 31.6899 31.37C33.6899 30.66 36.5599 27.69 38.4199 26.41C38.5599 26.32 38.6799 26.24 38.8099 26.16C40.7499 24.98 42.4599 24.99 43.7299 23.82C44.3799 23.21 44.9199 22.3 45.3199 20.77C45.6499 19.5 44.5699 17.18 44.4699 15.37C44.4199 14.58 44.5699 13.89 45.1099 13.45C45.1899 13.37 45.2799 13.3 45.3799 13.24C46.2799 14.04 47.1199 14.62 47.9099 15.05C48.0699 15.14 48.2299 15.22 48.3899 15.29C48.5999 15.38 48.7899 15.46 48.9999 15.53C49.1499 15.58 49.2899 15.62 49.4299 15.67C53.0099 16.6 55.0799 13.31 56.2899 9.23995C56.3199 9.13995 56.3499 9.01997 56.3799 8.90997C56.7299 7.65997 57.0099 6.34997 57.2299 5.06997C57.3299 5.24997 57.4399 5.44997 57.5399 5.62997C57.5399 5.63997 57.5499 5.63996 57.5499 5.64996C61.2399 12.73 59.9999 18.19 70.4099 16.22C72.7099 15.8 76.23 15.28 78.78 14.07C78.92 14 79.0399 13.93 79.1699 13.86C79.4099 13.73 79.6399 13.61 79.8599 13.45C79.9499 13.4 80.0399 13.35 80.1299 13.27C80.4299 13.06 80.6899 12.84 80.9199 12.6C81.0099 12.5 81.0999 12.39 81.1699 12.29C81.9399 11.36 82.3099 10.29 82.5399 9.16998V9.14996C82.5399 9.14996 82.5499 9.08996 82.5599 9.05996C82.9899 6.90996 82.9599 4.59997 84.1799 2.78997C84.3099 2.60997 84.42 2.44997 84.53 2.28997C84.54 2.28997 84.5399 2.27996 84.5399 2.27996C88.0699 -2.44004 90.7099 1.13998 93.6799 4.50997C95.5299 6.62997 97.5 8.66995 99.9 8.54995C100.37 8.53995 100.85 8.43998 101.35 8.22998C102.26 7.85998 102.78 7.04998 103.27 6.22998C103.37 6.06998 103.46 5.91996 103.54 5.77996C103.56 5.75996 103.57 5.72996 103.59 5.70996C103.88 5.25996 104.18 4.84996 104.58 4.52996C104.6 4.51996 104.61 4.49998 104.64 4.47998C104.82 4.33998 105.04 4.21997 105.28 4.12997C106.71 3.57997 109.1 4.51996 109.68 4.30996C109.73 4.29996 109.77 4.27997 109.82 4.25997C110.67 3.92997 111.71 3.29996 112.85 2.77996C114.12 2.20996 115.53 1.75997 116.95 1.99997C119.31 2.39997 120.45 5.37995 122.82 5.82995C123.13 5.88995 123.61 5.80997 124.18 5.65997H124.27C126.29 5.04997 129.35 3.49995 129.54 3.60995C130.98 4.42995 130.92 5.43998 130.32 6.41998C129.52 7.74998 127.75 9.03995 127.34 9.82995C127.1 10.3 126.89 10.72 126.72 11.11C124.04 17.32 130.25 14.84 135.12 14.64H135.14C136.23 14.59 137.26 14.66 138.09 14.97C138.4 15.08 138.67 15.22 138.94 15.38H138.95C138.95 15.38 139 15.4 139.01 15.43C140.35 16.25 141.1 17.6 142.2 18.63C142.2 18.63 142.207 18.6333 142.22 18.64C142.8 19.18 143.47 19.62 144.36 19.86C145.84 20.25 147.15 19.97 148.55 19.64H148.65C150.49 19.22 152.34 18.69 154.46 19.45C156.28 20.09 157.76 21.23 159.3 22.33C159.3 22.33 159.31 22.33 159.31 22.34C160.79 23.4 162.31 24.44 164.22 24.95C166.02 25.42 167.86 25.41 169.63 25.73C170.87 25.96 172.07 26.34 173.19 27.15L173.17 27.17Z" fill="url(#paint0_linear_156_4314)"/>
<defs>
<linearGradient id="paint0_linear_156_4314" x1="114.1" y1="-6.98003" x2="15.2299" y2="164.28" gradientUnits="userSpaceOnUse">
<stop stop-color="#FFFFDC" stop-opacity="0.5"/>
<stop offset="0.69" stop-color="#FFFFBA" stop-opacity="0"/>
</linearGradient>
</defs>
</svg>
