<svg width="169" height="145" viewBox="0 0 169 145" fill="none" xmlns="http://www.w3.org/2000/svg">
<path d="M30.0302 93.71C26.9202 94.86 36.2001 99.36 36.4901 95.17C36.7601 91.3 31.9902 92.99 30.0302 93.71Z" fill="url(#paint0_linear_156_4163)"/>
<path d="M26.42 96.3899C28.92 96.2199 27.9101 100.86 25.9001 100.66C23.8601 100.45 24.74 96.4999 26.42 96.3899Z" fill="url(#paint1_linear_156_4163)"/>
<path d="M168.11 137.82C166.29 138.64 164.44 139.9 162.56 141.11C158.19 142.84 152.61 144.63 150.8 144.91C150.79 144.92 150.78 144.92 150.77 144.91C146.79 144.84 143.68 143.28 140.52 139.82C140.1 139.35 139.62 138.91 139.11 138.49C138.14 137.47 137.15 136.41 136.06 135.4C134.68 134.14 133.71 133.91 132.74 132.28C132.32 131.58 132.8 129.58 132.33 129.12C132.28 129.08 132.24 129.03 132.2 129C132.06 128.34 131.66 127.82 130.6 127.56C129.54 127.31 126.56 129.4 124.63 130.42C123 130.92 121.13 131.35 119.24 131.58H119.22C117.4 131.71 115.53 131.66 113.99 131.38C110.23 130.68 108.92 128.3 107.23 126.37C106.77 125.44 106.24 124.62 105.38 124.15C104.85 123.86 104.13 123.81 103.36 123.86C101.02 123.33 96.3201 123.4 93.8901 123.19C91.2301 122.95 89.3 122.79 86.97 124.49C81.97 128.15 81.6501 135.34 75.7101 138.85C73.9501 139.54 71.37 139.3 69.3 140.2C67.12 141.14 66.4801 142.59 63.8901 142.68C57.5901 142.91 58.2401 136.9 56.6401 133.06C55.3501 129.97 53 128.74 50.79 127.15C49.32 126.1 47.97 125 46.29 124.63C44.59 124.27 42.4701 126.49 41.3801 124.4C40.4401 122.62 46.1801 118.92 46.4001 117.25C46.6801 115.13 44.3 114.64 44.35 112.39C44.39 110.73 46.8601 110.26 46.8301 108.38C46.7901 105.84 43.55 105.31 42.98 103.36C41.8 99.32 43.8601 101.22 44.8901 98.71C45.8101 96.49 47.5901 99.31 45.4601 95.91C44.5401 94.43 41.7301 94.78 41.0101 92.71C40.2601 90.55 42.2801 87.49 42.0701 85.15C41.8901 83.28 40.6901 81.01 40.4001 78.96C39.5601 73 37.37 68.53 38.04 62.16C38.36 59.06 37.3201 48.28 35.4001 56.29C34.4001 60.48 36.7301 65.14 30.5801 61.69C28.0201 60.25 27.5401 59.44 26.6401 56.47C26.2601 55.2 26.7401 50.4 24.8701 49.96C21.8901 49.27 27.9201 62.71 28.3901 64C30.1501 68.89 31.57 73.96 33.36 78.89C35.03 83.51 37.34 90.37 30.42 89.92C24.52 89.55 23.7801 82.66 23.0301 77.96C22.6001 75.23 23.4701 70.8 22.3901 68.32C21.5401 66.4 18.96 65.89 18.36 64.44C17.36 62.01 19.76 61.16 19.73 58.84C19.68 55.63 18.4701 56.99 17.3401 54.7C16.3801 54.66 15.7201 54.18 15.3801 53.28C15.2101 52.36 15.3101 51.48 15.6901 50.63C14.9301 49.13 17.22 47.98 14.48 47.77C11.44 47.55 9.64003 56 5.22003 53.79C0.680032 51.51 9.58006 49.18 9.56006 47.52C9.52006 45.09 6.28007 43.56 4.20007 44.63C2.69007 45.4 3.79003 48.45 1.97003 49.16C-1.05997 50.34 0.930068 47.46 0.570068 46.73C0.970068 47.55 0.190059 42.21 0.0600586 42.83C0.490059 40.68 1.96005 38.51 3.43005 36.78C5.90005 33.87 1.60006 34.62 5.81006 33.72C6.57006 33.56 8.60005 37.43 9.99005 35.21C10.2101 34.85 5.77008 22.25 10.0201 22.75C12.8701 23.09 11.1801 30.15 15.6301 28.41C17.4201 27.71 18.4401 12.48 20.4901 13.67C20.5701 17.53 22.9901 22.05 22.5301 25.8C22.3201 27.57 17.78 32.86 20.8 34.34C23.18 35.51 22.6701 33.01 24.2001 31.56C25.2301 30.6 26.6401 30.45 27.5901 29.31C28.3401 28.41 27.2901 27.25 28.2701 26.55C30.1701 25.2 34.4601 26.38 34.5101 23.06C34.5801 19.34 30.7601 21.14 29.0101 19.45C28.7101 19.17 23.5801 12.13 23.4301 12.34C23.4301 9.12997 27.7601 8.84996 30.2801 8.79996C33.1701 8.73996 35.3201 9.15997 37.5601 10.96C38.1601 11.43 39.55 14.59 39.86 14.65C42.54 15.14 41.6101 14.83 41.3901 12.57C41.0801 9.33998 37.0201 7.88997 39.9401 4.17997C41.5401 2.13997 43.2701 2.55998 45.3901 3.31998C45.1901 3.31998 49.2001 6.18996 49.4501 6.35996C49.9901 6.74996 51.5 6.81999 52.22 7.22999C56.22 9.49999 55.2401 10.66 60.0901 11.28C61.2701 11.43 62.7001 10.85 63.8701 10.98C65.1601 11.13 69.21 12.6 70.8 13.23C79.52 16.69 75.0301 25.21 78.0901 31.3C79.1901 33.48 79.55 32.82 80.61 31.39C82.69 28.59 80.4701 26.56 85.2101 24.54C91.1701 21.99 96.96 20.79 103.05 18.84C104.07 18.55 105.09 18.22 106.12 17.8C106.2 17.78 106.27 17.75 106.34 17.71C106.62 17.61 106.92 17.49 107.21 17.35C107.31 17.32 107.4 17.27 107.5 17.23C107.53 17.22 107.56 17.2 107.59 17.19C110.92 15.7 113.68 16.45 116.31 17.93C117.11 18.79 117.88 19.69 118.81 20.19C119.82 20.75 120.68 21.06 121.47 21.34C121.47 21.34 121.47 21.35 121.48 21.35C122.74 22.19 124.04 22.96 125.43 23.52C125.73 23.8 126.05 24.12 126.38 24.49C126.86 25.02 127.29 25.56 127.73 26.13C128.69 30.57 136.69 34.27 139.35 37.08C139.93 37.69 140.85 39.03 141.48 40.48C141.52 40.62 141.56 40.76 141.59 40.91C141.91 42.39 142.45 44.61 140.84 45.5C139.2 46.41 138.92 44.43 137.63 44.46H137.57C136.93 44.04 136.19 43.74 135.23 43.97C133.82 44.3 132.63 46.33 131.69 48.45C131.68 48.47 131.67 48.49 131.67 48.51C130.3 50.85 130.18 52.4 128.22 52.28C128.82 52.49 129.42 52.67 130.01 52.76C129.95 52.92 129.89 53.06 129.84 53.18C129.69 53.51 129.55 53.83 129.43 54.12C129.37 54.27 129.31 54.41 129.25 54.54C129.19 54.68 129.14 54.81 129.09 54.94C129.03 55.07 128.99 55.19 128.94 55.32C128.87 55.5 128.81 55.68 128.75 55.84C128.7 55.96 128.66 56.09 128.63 56.2C128.55 56.44 128.49 56.66 128.44 56.87C128.38 57.09 128.34 57.29 128.3 57.49C128.14 58.38 128.17 59.15 128.35 59.99C128.44 60.61 128.56 61.34 128.71 62.23C128.9 63.3 130.05 68.54 130.8 69.38C131.19 69.82 131.72 70.07 132.32 70.24C132.34 70.26 132.37 70.28 132.4 70.31C133.34 71.16 135.05 70.58 136.27 71.07C136.31 71.09 136.35 71.11 136.39 71.13C136.46 71.17 136.54 71.22 136.61 71.26C136.61 71.26 136.613 71.26 136.62 71.26C136.69 71.31 136.76 71.37 136.83 71.43C136.97 71.55 137.08 71.69 137.18 71.86C137.26 71.98 137.33 72.13 137.39 72.29C137.26 72.33 137.15 72.38 137.04 72.43C135.82 72.97 135.75 73.85 136.07 74.8C136.26 76.03 136.99 77.44 137.61 78.5C137.62 78.53 137.64 78.55 137.66 78.58C137.77 78.78 137.88 78.96 137.98 79.13H137.99C138.36 80.35 138.89 82.5 139.48 82.94C140.26 83.51 140.8 83.22 141.31 82.85C141.34 82.86 141.37 82.87 141.4 82.88C142.33 83.15 142.69 82.69 143.14 82.35C144.93 82.83 145.45 82.64 146.77 84.32C147.05 85.16 147.21 86.07 147.65 86.68C147.71 86.76 147.76 86.84 147.81 86.91C148.18 88.14 148.66 89.35 149.92 89.58C150.79 89.74 151.38 89.57 151.79 89.22C152.01 89.15 152.25 89.06 152.52 88.95C153.81 88.44 153.66 82.85 155.66 87.72C155.87 88.22 155.97 88.72 155.99 89.21C155.66 91.19 154.59 93.53 153.96 94.86C153.95 94.88 153.95 94.89 153.94 94.9C153.58 95.55 153.24 96.18 152.98 96.79C152.22 98.58 150.15 103.25 150.48 105.41C150.55 105.86 150.64 106.24 150.74 106.55C151.47 108.77 153.08 107.94 155.23 109.76C155.3 109.81 155.38 109.88 155.46 109.95C155.55 110.03 155.64 110.12 155.72 110.21C155.86 110.38 155.99 110.54 156.1 110.72C156.56 111.5 156.71 112.38 157.16 113.19C157.39 113.78 157.66 114.36 158.1 114.87C159.07 116.01 160.07 116.17 160.9 116.63C162.76 119.23 161.58 120.1 161.77 124.11C161.85 125.78 163.63 130.04 165.42 133.38C166.16 135.13 167 136.84 168.11 137.81V137.82Z" fill="url(#paint2_linear_156_4163)"/>
<path d="M103.36 123.86C101.92 123.95 100.28 124.39 99.2 124.34C93.1 124.04 89.3199 121.04 84.9899 127.06C82.1499 131.02 80.82 136.84 75.71 138.85C81.65 135.34 81.9699 128.15 86.9699 124.49C89.2999 122.79 91.23 122.95 93.89 123.19C96.32 123.4 101.02 123.33 103.36 123.86Z" fill="url(#paint3_linear_156_4163)"/>
<path d="M106.12 17.7999C105.09 18.2199 104.07 18.5499 103.05 18.8399C104.06 18.5199 105.09 18.1699 106.12 17.7999Z" fill="url(#paint4_linear_156_4163)"/>
<path d="M116.31 17.93C113.68 16.45 110.92 15.7 107.59 17.19C109.5 16.33 111.63 15.3 113.6 15.89C114.66 16.21 115.5 17.05 116.31 17.93Z" fill="url(#paint5_linear_156_4163)"/>
<path d="M119.22 131.58C115.87 131.99 112.43 131.79 110 130.29C108.56 129.4 107.96 127.78 107.23 126.37C108.92 128.3 110.23 130.68 113.99 131.38C115.53 131.66 117.4 131.71 119.22 131.58Z" fill="url(#paint6_linear_156_4163)"/>
<path d="M125.43 23.52C124.04 22.96 122.74 22.19 121.48 21.35C122.83 21.82 123.99 22.2 125.43 23.52Z" fill="url(#paint7_linear_156_4163)"/>
<path d="M132.2 129C129.85 126.71 130.25 128.27 127.01 129.58C126.3 129.87 125.5 130.15 124.63 130.42C126.56 129.4 129.54 127.31 130.6 127.56C131.66 127.82 132.06 128.34 132.2 129Z" fill="url(#paint8_linear_156_4163)"/>
<path d="M137.57 44.4599C134.72 44.5199 134.93 44.1599 132.9 46.7099C132.41 47.3299 132.02 47.91 131.69 48.45C132.63 46.33 133.82 44.2999 135.23 43.9699C136.19 43.7399 136.93 44.0399 137.57 44.4599Z" fill="url(#paint9_linear_156_4163)"/>
<path d="M141.48 40.4799C140.85 39.0299 139.93 37.6899 139.35 37.0799C136.69 34.2699 128.69 30.5699 127.73 26.1399C128.45 27.0899 129.17 28.1199 130.07 29.2699C132.95 32.9599 140.03 35.5199 141.48 40.4799Z" fill="url(#paint10_linear_156_4163)"/>
<path d="M150.77 144.91C150.6 144.93 150.47 144.94 150.38 144.94C145.11 144.73 142.22 141.77 139.11 138.49C139.62 138.91 140.1 139.35 140.52 139.82C143.68 143.28 146.79 144.84 150.77 144.91Z" fill="url(#paint11_linear_156_4163)"/>
<path d="M157.16 113.2C156.71 112.39 156.56 111.51 156.1 110.73C156.58 111.48 156.83 112.36 157.16 113.2Z" fill="url(#paint12_linear_156_4163)"/>
<path d="M165.42 133.39C163.63 130.05 161.85 125.79 161.77 124.12C161.58 120.11 162.76 119.24 160.9 116.64C161.62 117.02 162.21 117.62 162.58 119.25C163.49 123.33 161.56 125.31 163.66 129.34C164.25 130.46 164.81 131.94 165.42 133.39Z" fill="url(#paint13_linear_156_4163)"/>
<path d="M162.56 141.11C164.44 139.9 166.29 138.64 168.11 137.82C168.14 137.85 168.16 137.88 168.19 137.9C168.78 138.39 166.05 139.73 162.56 141.11Z" fill="url(#paint14_linear_156_4163)"/>
<path d="M34.0402 0.849942C36.2302 1.28994 38.6402 5.26993 35.0602 5.08993C32.6302 4.96993 31.9202 0.429942 34.0402 0.849942Z" fill="url(#paint15_linear_156_4163)"/>
<defs>
<linearGradient id="paint0_linear_156_4163" x1="34.4301" y1="92.34" x2="31.9901" y2="96.58" gradientUnits="userSpaceOnUse">
<stop stop-color="#FFFFDC" stop-opacity="0.5"/>
<stop offset="0.69" stop-color="#FFFFBA" stop-opacity="0"/>
</linearGradient>
<linearGradient id="paint1_linear_156_4163" x1="27.39" y1="96.6399" x2="25.22" y2="100.4" gradientUnits="userSpaceOnUse">
<stop stop-color="#FFFFDC" stop-opacity="0.5"/>
<stop offset="0.69" stop-color="#FFFFBA" stop-opacity="0"/>
</linearGradient>
<linearGradient id="paint2_linear_156_4163" x1="122.48" y1="21.49" x2="54.8401" y2="138.66" gradientUnits="userSpaceOnUse">
<stop stop-color="#FFFFDC" stop-opacity="0.5"/>
<stop offset="0.69" stop-color="#FFFFBA" stop-opacity="0"/>
</linearGradient>
<linearGradient id="paint3_linear_156_4163" x1="96.2399" y1="119.75" x2="82.83" y2="142.96" gradientUnits="userSpaceOnUse">
<stop stop-color="#FFFFDC" stop-opacity="0.5"/>
<stop offset="0.69" stop-color="#FFFFBA" stop-opacity="0"/>
</linearGradient>
<linearGradient id="paint4_linear_156_4163" x1="105.19" y1="17.2699" x2="103.98" y2="19.3699" gradientUnits="userSpaceOnUse">
<stop stop-color="#FFFFDC" stop-opacity="0.5"/>
<stop offset="0.69" stop-color="#FFFFBA" stop-opacity="0"/>
</linearGradient>
<linearGradient id="paint5_linear_156_4163" x1="113.13" y1="15.51" x2="111.02" y2="19.17" gradientUnits="userSpaceOnUse">
<stop stop-color="#FFFFDC" stop-opacity="0.5"/>
<stop offset="0.69" stop-color="#FFFFBA" stop-opacity="0"/>
</linearGradient>
<linearGradient id="paint6_linear_156_4163" x1="113.6" y1="128.33" x2="111.85" y2="131.36" gradientUnits="userSpaceOnUse">
<stop stop-color="#FFFFDC" stop-opacity="0.5"/>
<stop offset="0.69" stop-color="#FFFFBA" stop-opacity="0"/>
</linearGradient>
<linearGradient id="paint7_linear_156_4163" x1="123.59" y1="22.2" x2="123.4" y2="22.54" gradientUnits="userSpaceOnUse">
<stop stop-color="#FFFFDC" stop-opacity="0.5"/>
<stop offset="0.69" stop-color="#FFFFBA" stop-opacity="0"/>
</linearGradient>
<linearGradient id="paint8_linear_156_4163" x1="129.96" y1="127.04" x2="127.16" y2="131.88" gradientUnits="userSpaceOnUse">
<stop stop-color="#FFFFDC" stop-opacity="0.5"/>
<stop offset="0.69" stop-color="#FFFFBA" stop-opacity="0"/>
</linearGradient>
<linearGradient id="paint9_linear_156_4163" x1="136.18" y1="43.6499" x2="132.97" y2="49.19" gradientUnits="userSpaceOnUse">
<stop stop-color="#FFFFDC" stop-opacity="0.5"/>
<stop offset="0.69" stop-color="#FFFFBA" stop-opacity="0"/>
</linearGradient>
<linearGradient id="paint10_linear_156_4163" x1="135.99" y1="30.9099" x2="133.22" y2="35.7099" gradientUnits="userSpaceOnUse">
<stop stop-color="#FFFFDC" stop-opacity="0.5"/>
<stop offset="0.69" stop-color="#FFFFBA" stop-opacity="0"/>
</linearGradient>
<linearGradient id="paint11_linear_156_4163" x1="145.01" y1="141.58" x2="144.17" y2="143.03" gradientUnits="userSpaceOnUse">
<stop stop-color="#FFFFDC" stop-opacity="0.5"/>
<stop offset="0.69" stop-color="#FFFFBA" stop-opacity="0"/>
</linearGradient>
<linearGradient id="paint12_linear_156_4163" x1="157.03" y1="111.27" x2="156.23" y2="112.66" gradientUnits="userSpaceOnUse">
<stop stop-color="#FFFFDC" stop-opacity="0.5"/>
<stop offset="0.69" stop-color="#FFFFBA" stop-opacity="0"/>
</linearGradient>
<linearGradient id="paint13_linear_156_4163" x1="166.22" y1="119.71" x2="160.1" y2="130.32" gradientUnits="userSpaceOnUse">
<stop stop-color="#FFFFDC" stop-opacity="0.5"/>
<stop offset="0.69" stop-color="#FFFFBA" stop-opacity="0"/>
</linearGradient>
<linearGradient id="paint14_linear_156_4163" x1="166.87" y1="137.1" x2="164.06" y2="141.97" gradientUnits="userSpaceOnUse">
<stop stop-color="#FFFFDC" stop-opacity="0.5"/>
<stop offset="0.69" stop-color="#FFFFBA" stop-opacity="0"/>
</linearGradient>
<linearGradient id="paint15_linear_156_4163" x1="35.6202" y1="1.59994" x2="33.8602" y2="4.63994" gradientUnits="userSpaceOnUse">
<stop stop-color="#FFFFDC" stop-opacity="0.5"/>
<stop offset="0.69" stop-color="#FFFFBA" stop-opacity="0"/>
</linearGradient>
</defs>
</svg>
