<svg width="351" height="515" viewBox="0 0 351 515" fill="none" xmlns="http://www.w3.org/2000/svg">
<path d="M43.4301 240.63C40.9601 241.55 48.3301 245.11 48.5601 241.79C48.7801 238.71 44.9801 240.06 43.4301 240.63Z" fill="#DCDDDD"/>
<path d="M40.5601 242.75C42.5501 242.61 41.7401 246.3 40.1501 246.14C38.5301 245.98 39.2301 242.84 40.5601 242.75Z" fill="#DCDDDD"/>
<path d="M153.1 275.66C151.65 276.31 150.19 277.31 148.69 278.27C145.22 279.64 140.79 281.07 139.35 281.29H139.33C136.17 281.23 133.7 280 131.19 277.25C130.86 276.88 130.48 276.53 130.07 276.19C129.3 275.38 128.51 274.54 127.65 273.74C126.55 272.74 125.78 272.56 125.01 271.26C124.68 270.7 125.06 269.12 124.68 268.75C124.64 268.72 124.61 268.68 124.58 268.65C124.47 268.13 124.15 267.71 123.31 267.51C122.47 267.31 120.1 268.97 118.57 269.78C117.28 270.18 115.79 270.52 114.29 270.7H114.27C112.82 270.8 111.34 270.76 110.12 270.54C107.13 269.98 106.09 268.09 104.75 266.56C104.38 265.82 103.96 265.17 103.28 264.8C102.86 264.57 102.29 264.53 101.68 264.57C99.8201 264.15 96.0901 264.2 94.1601 264.04C92.0501 263.85 90.5101 263.72 88.6601 265.07C84.6901 267.98 84.43 273.69 79.72 276.48C78.32 277.03 76.2701 276.84 74.6301 277.55C72.9001 278.3 72.39 279.45 70.33 279.52C65.33 279.7 65.84 274.93 64.57 271.88C63.55 269.43 61.6801 268.45 59.9201 267.19C58.7501 266.36 57.68 265.48 56.35 265.19C55 264.9 53.32 266.67 52.45 265.01C51.7 263.6 56.26 260.66 56.44 259.33C56.66 257.65 54.7701 257.26 54.8101 255.47C54.8401 254.15 56.8001 253.78 56.7801 252.29C56.7501 250.27 54.17 249.85 53.72 248.3C52.78 245.09 54.4201 246.6 55.2401 244.61C55.9701 242.85 57.38 245.09 55.69 242.39C54.96 241.21 52.7301 241.49 52.1601 239.85C51.5601 238.13 53.1701 235.7 53.0001 233.85C52.8601 232.36 51.9001 230.56 51.6701 228.93C51.0001 224.2 49.2601 220.65 49.8001 215.59C50.0501 213.13 49.23 204.57 47.7 210.93C46.91 214.26 48.7601 217.96 43.8701 215.22C41.8401 214.08 41.4601 213.43 40.7401 211.07C40.4401 210.06 40.8201 206.25 39.3301 205.9C36.9601 205.35 41.7501 216.03 42.1301 217.05C43.5301 220.93 44.66 224.96 46.08 228.88C47.41 232.55 49.2401 238 43.7501 237.64C39.0601 237.35 38.4801 231.87 37.8801 228.14C37.5401 225.97 38.2301 222.45 37.3701 220.48C36.6901 218.96 34.65 218.55 34.17 217.4C33.38 215.47 35.2801 214.79 35.2601 212.95C35.2201 210.4 34.26 211.48 33.36 209.66C32.6 209.63 32.07 209.25 31.8 208.53C31.67 207.8 31.74 207.1 32.05 206.43C31.45 205.24 33.2701 204.33 31.0901 204.16C28.6801 203.99 27.2501 210.7 23.7401 208.94C20.1301 207.13 27.2001 205.28 27.1901 203.96C27.1601 202.03 24.5801 200.81 22.9301 201.66C21.7301 202.27 22.6 204.69 21.16 205.26C18.75 206.2 20.33 203.91 20.05 203.33C20.37 203.98 19.7501 199.74 19.6401 200.23C19.9801 198.52 21.1501 196.8 22.3201 195.42C24.2801 193.11 20.8701 193.7 24.2101 192.99C24.8101 192.86 26.4301 195.94 27.5301 194.17C27.7001 193.88 24.18 183.88 27.55 184.27C29.81 184.54 28.4701 190.15 32.0101 188.77C33.4301 188.21 34.2401 176.12 35.8701 177.06C35.9301 180.13 37.8601 183.72 37.4901 186.69C37.3201 188.1 33.7201 192.3 36.1201 193.47C38.0101 194.4 37.6101 192.41 38.8201 191.26C39.6401 190.5 40.7601 190.38 41.5101 189.47C42.1101 188.76 41.27 187.83 42.05 187.28C43.56 186.21 46.9701 187.14 47.0101 184.51C47.0701 181.56 44.0301 182.99 42.6401 181.64C42.4001 181.42 38.3301 175.83 38.2101 175.99C38.2101 173.44 41.6501 173.22 43.6501 173.18C45.9501 173.13 47.6501 173.47 49.4301 174.9C49.9101 175.27 51.0101 177.78 51.2601 177.83C53.3901 178.22 52.65 177.97 52.48 176.18C52.23 173.61 49.01 172.46 51.33 169.52C52.6 167.9 53.9701 168.23 55.6601 168.84C55.5001 168.84 58.6901 171.12 58.8801 171.25C59.3101 171.56 60.51 171.62 61.08 171.94C64.26 173.74 63.48 174.66 67.33 175.16C68.27 175.28 69.4 174.82 70.33 174.92C71.35 175.04 74.57 176.21 75.83 176.71C82.76 179.46 79.1901 186.22 81.6201 191.06C82.4901 192.79 82.7801 192.27 83.6201 191.13C85.2701 188.91 83.5101 187.29 87.2701 185.69C92.0001 183.66 96.6 182.71 101.44 181.16C102.25 180.93 103.06 180.67 103.88 180.33C103.94 180.31 104 180.29 104.05 180.26C104.27 180.18 104.51 180.09 104.74 179.97C104.82 179.95 104.89 179.91 104.97 179.87C104.99 179.87 105.02 179.85 105.04 179.84C107.68 178.66 109.88 179.25 111.97 180.43C112.61 181.11 113.22 181.83 113.96 182.22C114.76 182.66 115.45 182.91 116.07 183.13C117.07 183.8 118.1 184.41 119.21 184.85C119.45 185.07 119.7 185.33 119.96 185.62C120.34 186.04 120.68 186.47 121.03 186.92C121.79 190.45 128.15 193.38 130.26 195.62C130.72 196.1 131.45 197.17 131.95 198.32C131.98 198.43 132.01 198.54 132.04 198.66C132.29 199.84 132.72 201.6 131.44 202.31C130.14 203.03 129.91 201.46 128.89 201.48H128.84C128.33 201.15 127.74 200.91 126.98 201.09C125.86 201.35 124.91 202.96 124.17 204.65C124.17 204.67 124.15 204.68 124.15 204.7C123.06 206.56 122.97 207.79 121.41 207.69C121.89 207.86 122.36 208 122.83 208.07C122.78 208.2 122.73 208.31 122.7 208.4C122.58 208.66 122.47 208.92 122.37 209.15C122.32 209.27 122.27 209.38 122.23 209.48C122.18 209.59 122.14 209.69 122.1 209.8C122.05 209.9 122.02 210 121.98 210.1C121.92 210.24 121.88 210.39 121.83 210.51C121.79 210.61 121.76 210.71 121.73 210.8C121.67 210.99 121.62 211.17 121.58 211.33C121.53 211.5 121.5 211.66 121.47 211.82C121.34 212.53 121.37 213.14 121.51 213.81C121.58 214.3 121.68 214.88 121.8 215.59C121.95 216.44 122.86 220.6 123.46 221.27C123.77 221.62 124.19 221.82 124.67 221.95C124.69 221.97 124.71 221.98 124.73 222.01C125.48 222.69 126.83 222.22 127.8 222.61C127.83 222.63 127.86 222.64 127.9 222.66C127.96 222.69 128.02 222.73 128.07 222.76C128.13 222.8 128.18 222.85 128.24 222.9C128.35 223 128.44 223.11 128.52 223.24C128.58 223.34 128.64 223.45 128.69 223.58C128.59 223.61 128.5 223.65 128.41 223.69C127.44 224.12 127.39 224.82 127.64 225.57C127.79 226.55 128.37 227.67 128.86 228.51C128.86 228.53 128.88 228.55 128.9 228.57C128.99 228.73 129.07 228.87 129.15 229.01C129.44 229.98 129.86 231.69 130.33 232.04C130.95 232.49 131.38 232.26 131.78 231.97C131.8 231.97 131.83 231.99 131.85 231.99C132.59 232.2 132.87 231.84 133.23 231.57C134.65 231.95 135.06 231.8 136.11 233.13C136.33 233.8 136.46 234.52 136.81 235C136.86 235.06 136.9 235.13 136.94 235.18C137.23 236.16 137.61 237.12 138.62 237.3C139.31 237.43 139.78 237.3 140.11 237.01C140.28 236.95 140.48 236.88 140.69 236.8C141.71 236.39 141.6 231.96 143.18 235.82C143.35 236.22 143.43 236.61 143.44 237C143.18 238.57 142.33 240.43 141.83 241.49C141.83 241.51 141.83 241.51 141.81 241.52C141.52 242.04 141.25 242.54 141.05 243.02C140.45 244.44 138.8 248.15 139.06 249.87C139.12 250.23 139.19 250.53 139.27 250.78C139.85 252.54 141.13 251.88 142.84 253.33C142.9 253.37 142.96 253.43 143.02 253.48C143.09 253.54 143.16 253.62 143.23 253.69C143.34 253.83 143.44 253.95 143.53 254.1C143.9 254.72 144.01 255.42 144.37 256.06C144.55 256.53 144.77 256.99 145.12 257.39C145.89 258.3 146.68 258.42 147.34 258.79C148.82 260.85 147.88 261.55 148.03 264.73C148.09 266.06 149.51 269.44 150.93 272.09C151.52 273.48 152.18 274.84 153.07 275.61L153.1 275.66Z" fill="#DCDDDD"/>
<path d="M101.67 264.57C100.53 264.64 99.22 264.99 98.37 264.95C93.53 264.71 90.52 262.33 87.08 267.11C84.82 270.26 83.77 274.88 79.71 276.47C84.43 273.68 84.68 267.97 88.65 265.06C90.5 263.71 92.03 263.84 94.15 264.03C96.08 264.2 99.81 264.14 101.67 264.56V264.57Z" fill="#DCDDDD"/>
<path d="M103.86 180.34C103.04 180.67 102.23 180.94 101.42 181.17C102.22 180.92 103.04 180.64 103.86 180.34Z" fill="#DCDDDD"/>
<path d="M111.95 180.44C109.86 179.26 107.67 178.67 105.02 179.85C106.54 179.17 108.23 178.35 109.79 178.82C110.63 179.07 111.3 179.74 111.94 180.44H111.95Z" fill="#DCDDDD"/>
<path d="M114.27 270.7C111.61 271.03 108.88 270.87 106.95 269.68C105.81 268.97 105.33 267.69 104.75 266.57C106.09 268.1 107.13 269.99 110.12 270.55C111.34 270.77 112.83 270.81 114.27 270.71V270.7Z" fill="#DCDDDD"/>
<path d="M119.2 184.88C118.1 184.44 117.06 183.82 116.06 183.16C117.13 183.53 118.05 183.84 119.2 184.88Z" fill="#DCDDDD"/>
<path d="M124.57 268.65C122.7 266.83 123.02 268.07 120.45 269.11C119.89 269.34 119.25 269.56 118.56 269.78C120.09 268.97 122.46 267.31 123.3 267.51C124.14 267.72 124.46 268.13 124.57 268.65Z" fill="#DCDDDD"/>
<path d="M128.84 201.51C126.58 201.56 126.74 201.27 125.13 203.3C124.74 203.79 124.43 204.25 124.17 204.68C124.92 203 125.86 201.38 126.98 201.12C127.74 200.94 128.33 201.18 128.84 201.51Z" fill="#DCDDDD"/>
<path d="M131.95 198.35C131.45 197.2 130.72 196.13 130.26 195.65C128.15 193.42 121.79 190.48 121.03 186.96C121.6 187.71 122.17 188.53 122.89 189.45C125.18 192.38 130.8 194.41 131.95 198.35Z" fill="#DCDDDD"/>
<path d="M139.32 281.29C139.19 281.31 139.08 281.31 139.01 281.31C134.82 281.14 132.53 278.79 130.06 276.19C130.47 276.52 130.85 276.87 131.18 277.25C133.69 280 136.16 281.24 139.32 281.29Z" fill="#DCDDDD"/>
<path d="M144.4 256.1C144.04 255.46 143.92 254.76 143.56 254.14C143.94 254.74 144.14 255.43 144.4 256.1Z" fill="#DCDDDD"/>
<path d="M150.96 272.14C149.54 269.49 148.12 266.1 148.06 264.78C147.91 261.6 148.85 260.9 147.37 258.84C147.94 259.14 148.41 259.62 148.7 260.91C149.42 264.15 147.89 265.72 149.56 268.92C150.03 269.81 150.47 270.99 150.96 272.14Z" fill="#DCDDDD"/>
<path d="M148.69 278.27C150.18 277.31 151.65 276.31 153.1 275.66C153.12 275.68 153.14 275.71 153.16 275.72C153.63 276.11 151.46 277.17 148.69 278.27Z" fill="#DCDDDD"/>
<path d="M46.62 166.87C48.36 167.22 50.2701 170.38 47.4301 170.24C45.5001 170.14 44.94 166.54 46.62 166.87Z" fill="#DCDDDD"/>
<path d="M32.51 325.39C30.72 326.41 31.38 321.11 33.91 320.32C39.22 318.64 34.47 324.28 32.51 325.39Z" fill="#DCDDDD"/>
<path d="M13.2101 347.75C15.2401 350.21 10.7001 349.21 10.9001 349.12C10.4401 349.34 10.3701 344.31 13.2101 347.75Z" fill="#DCDDDD"/>
<path d="M93.49 482.81C94.5 485.63 91.26 485.18 90.53 483.48C89.7 481.57 92.72 480.65 93.49 482.81Z" fill="#DCDDDD"/>
<path d="M78.12 477.52C72.45 478.1 67.7401 479.01 62.4301 480.88C57.9601 482.45 53.8801 481.43 49.2901 483.29C42.3801 486.08 36.2001 487.24 30.8301 492.79C28.2201 495.49 24.2401 498.31 23.8301 502.1C23.3101 506.78 27.1201 510.22 30.5901 512.66C36.2101 516.62 33.5 511.09 38.05 509.82C38.41 509.72 41.97 510.3 42.42 510.34C43.74 510.45 44.7201 510.25 46.2801 510.54C46.8901 510.65 48.15 510.45 48.86 510.5C49.32 511.12 49.9201 511.48 50.6701 511.6C51.4501 511.1 52.2801 510.69 53.1501 510.37C56.5901 510.02 59.6301 511.57 62.8801 510.03C63.6201 509.2 64.3401 508.35 65.0501 507.49C65.9301 506.76 66.87 506.67 67.87 507.22C69.07 506.8 70.8601 506.34 72.2901 505.9C72.8801 505.72 74.9801 505.41 75.4301 505.31C75.5701 504.23 76.2201 503.77 77.3801 503.94C78.4001 504.4 79.42 504.44 80.45 504.06C83.28 502.86 83.7801 499.64 85.3101 497.51C87.5601 494.38 90.0701 493.67 89.5401 489.43C89.1401 486.28 87.9301 482.7 85.3001 481.07C84.9301 480.84 82.38 480.32 81.73 480.01C80.14 479.26 80.6001 477.26 78.1501 477.51L78.12 477.52Z" fill="#DCDDDD"/>
<path d="M36.5501 91.8102C36.4101 91.9402 30.0901 94.1702 30.0801 94.1702C27.3301 93.8202 27.1601 91.4002 28.7701 89.3002C30.8601 86.5802 41.8601 86.9402 36.5501 91.8102Z" fill="#DCDDDD"/>
<path d="M27.2301 103.77C26.8401 104.05 23.4801 103.5 23.2901 102.92C22.3701 100.07 30.6501 101.28 27.2301 103.77Z" fill="#DCDDDD"/>
<path d="M32.32 107.36C33.26 104.91 28.6301 104.27 28.7801 106.04C28.8401 106.75 31.91 108.43 32.32 107.36Z" fill="#DCDDDD"/>
<path d="M38.35 99.82C39.68 101.11 43.77 101.46 41.1 104.45C38.51 107.35 38.5101 103.74 37.4501 102.67C36.0801 101.29 34.5801 100.92 34.3701 98.6201C34.3101 97.9601 35.4201 92.93 37.2001 93.98C38.8001 94.93 36.99 98.5 38.35 99.82Z" fill="#DCDDDD"/>
<path d="M43.9401 118.55C43.8301 117.47 36.94 113.81 36.54 116.71C36.63 116.07 39.3901 120.36 39.0001 120.2C39.7101 120.5 44.0401 119.68 43.9301 118.55H43.9401Z" fill="#DCDDDD"/>
<path d="M50.3801 117.94C50.4901 116.48 47.57 116.68 47.08 116.98C46.23 117.51 46.7801 118.67 46.5601 118.93C46.5301 118.97 45.7601 121.24 45.3701 121.84C44.6701 122.9 41.9401 123.53 41.5601 124.84C40.6001 128.08 44.2301 128.83 46.9201 129.48C48.4001 129.83 49.1001 130.98 50.6601 130.04C52.2701 129.08 51 126.67 52.07 125.76C53.81 124.28 54.7701 125.66 56.7601 124.65C57.6101 124.22 59.6701 122.05 58.8801 120.68C57.8301 118.86 56.57 120.41 55.33 120.18C54.22 119.98 53.5901 118.64 52.3001 119.17C51.2901 119.59 51.39 120.92 50.83 121.18C46.25 123.35 50.2301 119.87 50.3701 117.94H50.3801Z" fill="#DCDDDD"/>
<path d="M45.4701 135.61C46.9901 137.74 48.7301 133.01 46.0001 131.57C43.0201 130 44.4601 134.18 45.4701 135.61Z" fill="#DCDDDD"/>
<path d="M34.4601 145.52C30.9001 147.32 38.6701 150.03 39.5201 149.45C42.4101 147.49 35.3301 145.07 34.4601 145.52Z" fill="#DCDDDD"/>
<path d="M47.5701 145.24C49.2001 143.2 54.3901 144.62 51.2801 148.29C48.3601 151.74 44.9501 148.51 47.5701 145.24Z" fill="#DCDDDD"/>
<path d="M20.4001 148.22C18.1901 145.17 16.13 146.63 17.48 149.93C19.19 154.14 20.75 151.4 22.85 151.3C23.17 151.28 27.2101 154.92 25.6301 150.94C24.9401 149.2 21.19 149.3 20.41 148.22H20.4001Z" fill="#DCDDDD"/>
<path d="M19.05 154.85C20.23 156.03 20.1001 158.59 17.8101 157.2C15.8201 155.99 17.16 152.96 19.05 154.85Z" fill="#DCDDDD"/>
<path d="M55.5501 104.88C56.1601 106.07 55.8601 110.57 54.6601 111.39C53.3301 112.31 48.89 110.98 47.2 110.85C45.51 110.73 42.9601 111.34 42.0901 109.25C40.9301 106.47 43.4501 107.73 43.8501 106.02C44.7001 102.43 43.3001 102.3 41.2301 99.7101C38.1301 95.8401 38.4601 88.9501 44.1501 87.3401C47.6001 86.3601 51.7801 88.6001 53.6401 91.8401C55.9301 95.8401 53.4101 100.64 55.5501 104.86V104.88Z" fill="#DCDDDD"/>
<path d="M34.3 156.84C33.17 154.5 28.6301 155.04 30.6301 157.51C31.2901 158.33 35.33 158.99 34.3 156.84Z" fill="#DCDDDD"/>
<path d="M15.12 164.49C14.94 162.51 17.3801 162.24 18.3301 163.5C19.2501 164.73 15.33 166.84 15.12 164.49Z" fill="#DCDDDD"/>
<path d="M168.73 116.33C168.66 116.7 168.55 117.01 168.4 117.27C168.4 117.27 168.4 117.29 168.38 117.29C167.67 118.47 166.16 118.65 165.1 119.31C165.08 119.33 165.06 119.33 165.04 119.35C164.47 119.72 164.04 120.23 163.94 121.14C163.94 121.19 163.92 121.23 163.92 121.28C163.88 121.7 163.92 122.2 164.04 122.8C164.61 125.66 166.59 127.27 166.22 129.97C166.18 130.3 166.11 130.64 166 130.99C165.96 131.12 165.91 131.25 165.86 131.4C165.8 131.54 165.75 131.67 165.69 131.81C165.59 132.02 165.51 132.21 165.41 132.39C163.66 135.98 162.47 135.94 162.81 140.77C162.9 142.01 162.98 143.3 162.84 144.52C162.84 144.56 162.84 144.6 162.84 144.65C162.63 146.37 162.02 147.93 160.44 149C160.44 149.02 160.42 149.02 160.41 149.02C160.34 149.08 160.26 149.12 160.18 149.16C160.16 149.18 160.13 149.19 160.11 149.2C160.07 149.22 160.02 149.25 159.98 149.27C159.86 149.34 159.74 149.4 159.61 149.46C160.16 149.2 160.2 150.29 160.05 151.61C159.93 152.73 159.68 154.02 159.51 154.77C159.49 154.85 159.47 154.93 159.45 155C159.42 155.13 159.39 155.23 159.37 155.3C158.39 158.34 156.92 160.07 154.68 159.46C154.58 159.43 154.48 159.4 154.38 159.36C154.24 159.31 154.1 159.26 153.96 159.19C153.85 159.14 153.74 159.09 153.63 159.02C153.08 158.73 152.5 158.32 151.87 157.77C151.8 157.81 151.73 157.86 151.68 157.91C151.4 158.19 151.28 158.66 151.24 159.24C151.1 160.91 151.58 163.47 150.72 165.11C150.57 165.4 150.38 165.65 150.15 165.86C149.28 166.66 148.28 166.65 147.31 166.74C146.68 166.8 146.06 166.88 145.48 167.26C144.29 168.05 144.26 169.42 143.05 170C141.64 170.68 140.07 169.76 138.69 170.33C137.75 170.71 137.32 171.35 136.93 172.02C136.57 172.62 136.27 173.24 135.68 173.71C135.68 173.71 135.673 173.71 135.66 173.71C134.43 174.69 133.05 175.09 131.82 175.62C131.03 175.96 130.31 176.35 129.74 176.98C129.72 177 129.72 177.01 129.7 177.03C129.13 177.71 129.47 178.75 129.14 179.7C129.02 180.03 128.83 180.35 128.5 180.65C127.73 181.33 126.74 181.26 125.84 181.45C125.57 181.51 125.31 181.59 125.06 181.72C124.96 181.78 124.86 181.83 124.77 181.9C123.65 182.64 122.98 183.89 122.09 184.4C120.45 185.34 121.37 185.83 121 185.62C120.83 185.53 120.41 185.31 119.4 184.92C119.34 184.9 119.27 184.87 119.2 184.84C118.1 184.4 117.06 183.78 116.06 183.12C114.66 182.2 113.34 181.18 111.96 180.41C109.87 179.23 107.68 178.64 105.03 179.82C105.01 179.82 104.98 179.84 104.96 179.85C104.88 179.88 104.81 179.92 104.73 179.95C104.5 180.05 104.27 180.15 104.04 180.24C103.98 180.27 103.93 180.3 103.87 180.31C103.05 180.64 102.24 180.91 101.43 181.14C98.9801 181.83 96.52 182.17 93.87 182.65C94.77 181.28 95.03 179.28 94.35 177.77C92.07 178.56 93.36 182.31 90.13 183.04C87.81 183.57 84.54 181.15 83.15 179.47C82.47 178.64 82.2 176.83 81.39 176.19C80.87 175.78 79.49 175.82 79.22 175.59C77.24 173.77 77.44 174.86 80.24 173.02C79.5 170.87 76.84 172.77 75.6 172.01C72.38 170.05 75.49 170.41 75.85 167.89C76.04 166.57 75.1 164.4 75.48 163.29C76.18 161.3 78.36 161.29 78.95 159.72C79.96 157.04 77.49 156.08 75.34 156.51C73.48 156.88 72.5801 159.58 71.6801 160.77C66.2201 168.05 70.24 158.28 69.53 157.66C68.81 157.64 68.16 157.87 67.58 158.34C66.62 158.01 66.2001 157.32 66.3101 156.26C64.7101 154.12 66.1799 151.22 62.6899 150.79C61.2899 150.62 57.38 156.1 55.98 152.13C55.98 152.05 57.13 147.73 57.23 147.51C58.44 144.53 57.44 143.75 61.11 144.28C60.64 144.28 64.05 146.08 64.05 145.87C64.76 146.79 64.38 149.48 65.54 149.69C67.93 146.95 64.37 144.75 68.65 143.82C69.17 143.71 75.96 146.68 76.17 143.2C76.34 140.25 68.58 141.78 68.11 139.04C67.77 137.06 72.31 135.73 71.03 134.33C70.78 134.4 70.51 134.47 70.23 134.54C69.79 134.64 68.06 134.2 67.35 134.19C66.37 134.19 66.41 135.92 65.14 135.76C60.96 135.22 64.48 132.21 63.77 130.1C62.93 127.6 60.7499 127.62 60.3199 124.37C60.0799 122.63 59.93 119.9 60.29 118.13C60.52 116.97 60.5801 116.33 60.6801 115.91C60.6301 115.93 60.58 115.94 60.54 115.96C59.8 111.01 56.43 107.35 56.13 102.2C56.03 100.44 55.6 95.4401 57.09 94.1401C58.06 93.2901 60.59 94.5102 61.7 94.3102C66.69 93.3802 66.31 91.2802 67.25 98.1802C67.9 102.95 69.35 106.96 75.13 107.73C73.98 105.37 71.97 105.15 70.49 103.5C68.35 101.11 68.8199 102.41 68.6899 98.4701C68.5799 95.1201 67.99 90.2401 68.88 87.0001C69.14 86.0401 70.87 86.0501 70.95 85.3301C71 84.8101 69.2001 82.3502 69.0601 81.7802C68.6901 80.2602 68.85 77.6801 69.08 76.1901C69.64 72.5901 68.67 73.7801 71.62 72.4801C75.77 70.6501 79.3601 70.8201 82.4301 66.8901C84.8901 63.7401 84.95 59.6402 87.63 56.6802C88.75 55.4402 92.58 53.7701 93.28 52.3701C93.91 51.1301 92.6799 49.1502 93.0699 47.9102C93.8099 45.5102 96.3899 44.0001 98.3199 42.3701C98.4399 42.4901 98.55 42.6101 98.65 42.7401C100.43 44.8401 100.72 47.6701 102.55 49.6501C103 50.1401 103.53 50.8302 104.07 51.5402C105.02 52.7702 106.05 54.1102 106.95 54.7902C109.12 56.4302 110.17 56.4701 110.68 55.7401C111.35 54.7701 111.09 52.5101 111.17 50.7001V50.6802C111.2 49.8902 111.3 49.2001 111.57 48.7601C111.6 48.7001 111.65 48.6401 111.7 48.5901C111.78 48.5901 111.86 48.6101 111.94 48.6401C111.98 48.6401 112.03 48.6602 112.07 48.6802C112.15 48.7002 112.23 48.7402 112.31 48.7802C112.38 48.8102 112.45 48.8501 112.52 48.9001C112.6 48.9601 112.67 49.0101 112.74 49.0701L112.91 49.2401C112.99 49.3201 113.06 49.4101 113.12 49.5001C113.16 49.5501 113.19 49.6001 113.22 49.6501C113.28 49.7401 113.34 49.8302 113.39 49.9302L113.41 49.9501C113.51 50.1101 113.59 50.2702 113.67 50.4302C113.77 50.6002 113.85 50.7602 113.95 50.9302C114.01 51.0702 114.09 51.1902 114.16 51.3102C114.22 51.4102 114.27 51.4901 114.33 51.5801C114.38 51.6501 114.43 51.7202 114.49 51.7902C114.59 51.9302 114.71 52.0501 114.85 52.1501C114.91 52.2101 114.98 52.2502 115.06 52.2902C115.1 52.3202 115.15 52.3501 115.19 52.3701C115.28 52.4201 115.37 52.4501 115.47 52.4801C115.92 52.6201 116.34 52.5802 116.73 52.4202C116.79 52.4002 116.85 52.3701 116.9 52.3501C117.07 52.2701 117.23 52.1802 117.39 52.0602C117.47 52.0002 117.55 51.9501 117.63 51.8901C117.92 51.6801 118.21 51.4101 118.5 51.1401C118.6 51.0401 118.71 50.9401 118.81 50.8501C119.06 50.6001 119.31 50.3702 119.56 50.1602C119.63 50.1002 119.71 50.0301 119.79 49.9801C120.08 49.7601 120.38 49.5801 120.69 49.5001C120.76 49.4801 120.83 49.4601 120.9 49.4501C120.99 49.4301 121.07 49.4302 121.15 49.4302C121.4 49.4302 121.65 49.4901 121.92 49.6201C121.87 49.7601 121.82 49.9201 121.76 50.0901C121.16 51.9001 120.31 53.7402 121.19 55.4302C121.45 55.9402 123.43 57.2702 124.61 57.8002C124.69 57.8402 124.76 57.8601 124.82 57.8901C124.89 57.9101 124.96 57.9401 125.02 57.9601C125.02 57.9601 125.04 57.9601 125.05 57.9601C125.09 57.9601 125.12 57.9801 125.15 57.9801C125.21 58.0001 125.26 58.0001 125.31 58.0001H125.35C125.65 57.9801 125.99 57.7901 126.33 57.5201C127.37 56.7601 128.48 55.3101 129.33 55.4401C129.35 55.4401 129.36 55.4401 129.39 55.4401C129.41 55.4401 129.42 55.4601 129.45 55.4601C129.49 55.4601 129.53 55.4801 129.57 55.5201C129.63 55.5501 129.67 55.5901 129.73 55.6401C129.75 55.6601 129.76 55.6701 129.79 55.7001C129.81 55.7201 129.83 55.7501 129.85 55.7701C129.89 55.8201 129.93 55.8801 129.97 55.9401C130 55.9901 130.03 56.0401 130.05 56.1001C130.08 56.1601 130.11 56.2302 130.14 56.3102C130.16 56.3402 130.17 56.3802 130.18 56.4202C130.2 56.4502 130.21 56.5002 130.22 56.5402C130.24 56.6002 130.26 56.6601 130.28 56.7201C130.33 56.8901 130.37 57.0701 130.41 57.2701C130.43 57.3701 130.45 57.4801 130.47 57.5901C130.49 57.6801 130.5 57.7601 130.51 57.8501C130.53 57.9401 130.54 58.0301 130.55 58.1301C130.84 57.8401 131.11 57.6001 131.38 57.3901C132.92 56.1101 133.84 56.1501 134.4 56.8701C134.42 56.8901 134.43 56.9002 134.44 56.9202C135.1 57.8002 135.26 59.6201 135.35 61.3501C135.54 64.9401 136.01 65.9601 138.2 66.8701C138.7 67.0901 139.3 67.3102 140.03 67.5402C141.48 68.0202 142.36 67.2601 143.29 67.6001C143.32 67.6001 143.36 67.6301 143.39 67.6501C143.76 67.8101 144.12 68.1502 144.54 68.8002C144.99 69.5202 144.13 70.5901 144.21 71.4601C144.21 71.6701 144.29 71.8602 144.44 72.0302C145.65 73.4402 148.2 73.7902 149.53 75.1802C150.2 75.8902 150.56 76.8501 150.29 78.3301C150.14 79.1801 149.73 79.8401 149.18 80.3901C149.06 80.5101 148.94 80.6201 148.81 80.7201C148.75 80.7701 148.7 80.8201 148.64 80.8601C148.54 80.9301 148.45 81.0001 148.35 81.0701C148.2 81.1701 148.04 81.2701 147.87 81.3601C147.71 81.4601 147.54 81.5501 147.36 81.6501C145.93 82.4001 144.29 82.9501 143.18 83.7701C143.14 83.7901 143.1 83.8301 143.07 83.8601C142.97 83.9301 142.89 84.0001 142.81 84.0901C142.46 84.4001 142.18 84.7701 142.03 85.1901C141.32 87.1301 143.36 89.0202 143.25 90.9102C143.21 91.6402 142.81 92.2401 142.46 92.8301C142.23 93.2201 142.02 93.6102 141.94 94.0402C141.94 94.0702 141.92 94.1001 141.92 94.1401C141.69 94.8901 140.61 95.9002 140.54 96.7902C140.54 96.8102 140.54 96.8301 140.54 96.8501C140.54 96.9801 140.56 97.1001 140.6 97.2201C141.2 98.8401 142.05 97.9301 142.89 97.7701H142.91C143.27 97.7001 143.63 97.7701 143.97 98.2501C145.46 100.35 143.7 102.01 143.17 104.15C142.48 106.95 142.01 107.54 144.38 107.41C144.55 107.41 144.75 107.39 144.94 107.37C144.98 107.37 145.01 107.37 145.05 107.37C146.16 107.27 147.05 107.04 147.85 106.85C149.37 106.5 150.6 106.32 152.5 107.54C152.52 107.56 152.56 107.57 152.58 107.59C152.64 107.63 152.7 107.67 152.76 107.72C152.93 107.85 153.12 107.97 153.31 108.13C155.88 110.12 156.67 111.59 159.5 112.32C159.83 112.41 160.18 112.49 160.55 112.56C160.76 112.6 160.99 112.62 161.26 112.65C161.39 112.65 161.55 112.67 161.7 112.67C161.88 112.67 162.07 112.69 162.28 112.69C165.11 112.83 169.28 112.98 168.67 116.34L168.73 116.33Z" fill="#DCDDDD"/>
<path d="M164.05 160C166.56 161.08 174.62 159.41 176.56 157.33C178.81 154.93 177.65 146.5 183.14 148.85C184.94 149.62 185.33 152.4 186.74 153.54C189.8 156 189.55 154.09 192.1 152.89C192.61 151.99 193.34 151.31 194.3 150.83C195.51 150.65 196.43 151.06 197.06 152.07C198.86 151.48 198.41 149.51 200.68 149.57C203.25 149.64 204.12 152.63 206.89 152.51C208.78 152.43 211.83 149.54 210.81 153.35C210.15 155.81 204.46 157.68 209.7 159.55C211.65 160.25 213.54 158.36 215.47 158.72C218.05 159.2 216.93 160.56 218.78 161.37C222.61 163.05 225.54 161.3 229.74 163.5C233.47 165.45 237.79 165.73 241.27 167.91C244.09 169.68 245.86 174.04 248.98 170.26C251.54 167.16 247.51 160.79 252.98 160.53C258.64 160.27 256.59 167.24 260.2 168.35C261.48 168.74 263.39 166.63 264.49 166.34C266.78 165.74 268.36 166.41 270.56 166.62C275.4 167.08 278.67 163.19 283.01 165.6C286.51 167.55 287.36 172.49 291.65 168C294.95 164.55 295.15 160.46 300.49 158.63C297.69 154.72 300.56 149.03 297.54 144.53C295.91 142.1 293.8 140.71 292.66 137.93C292.07 136.48 292.9 135.42 291.86 133.87C291.09 132.73 289.23 132.57 288.28 131.57C286.76 129.97 286.64 127.82 285.48 126.03C284.11 123.91 281.8 122.75 280.83 120.2C279.83 117.59 280.72 114.96 279.25 112.59C277.58 109.91 275.24 109.33 274.37 106.03C273.66 103.32 274.82 103.09 272.4 100.23C270.42 97.89 268.04 96.16 265.98 93.92C261.28 88.83 258.15 82.82 254.9 77.11C251.5 71.13 245.06 67.0899 242.11 60.6899C240.86 57.9699 240.08 56.8899 238.23 54.5699C235.83 51.5599 236.5 48.85 235.36 45.41C233.35 39.36 229.43 32.53 226.38 26.86C223.24 21 221.18 15.02 218.87 8.84997C218.05 6.66997 215.54 0.0299375 212.73 1.06994C209.75 2.16994 211.11 7.11994 210.94 9.19994C210.68 12.3299 209.9 16.15 208.57 19.04C205.64 25.41 199.47 28.48 193.7 31.53C191.59 32.64 190.1 33.75 187.79 34.27C183.41 35.26 179.05 33.04 174.72 33.5C171.9 33.8 170.08 35.19 167.15 34.65C164.08 34.08 162.26 33.1299 158.8 33.1899C155.32 33.2599 151.9 32.8399 148.41 32.6899C147.05 32.6299 145.76 32.31 144.42 32.66C143.14 32.99 142.04 34.53 140.86 34.71C137.73 35.18 134.73 32.32 131.33 32.21C127.63 32.1 124.49 33.27 120.79 32.98C117.26 32.71 115.38 34.62 112.05 34.97C107.61 35.44 106.03 35.92 102.31 39.01C101.59 39.61 98.4901 41.77 98.3501 42.35C98.5001 41.69 100.78 48.2 100.66 48.03C101.88 49.77 104.4 51.61 105.9 53.24C107.1 54.54 109.49 57.59 111.33 55.09C112.7 53.22 110.12 50.48 111.75 48.55C113.79 48.82 113.73 51.9199 115.52 52.4399C118.12 53.1999 119.61 48.3699 122 49.5699C121.57 50.9599 120.28 53.3999 120.79 54.9499C121.06 55.7499 124.69 58.03 125.43 57.97C127.21 57.81 129.87 52.17 130.59 58.1C133.65 55.1 135.24 56.4599 135.52 60.0699C135.9 65.0399 135.4 66.04 140.08 67.51C141.47 67.95 142.81 66.58 144.06 68.17C145 69.36 143.77 70.54 144.29 71.47C145.75 74.1 150.18 73.2 150.32 77.36C150.5 82.53 143.61 81.69 142.1 85.16C141.16 87.33 143.27 90.63 142.41 93.34C142.17 94.11 140.23 96.17 140.66 97.18C141.42 98.97 142.48 96.9601 143.54 98.0601C145.61 100.2 143.8 101.52 143.22 104.12C141.74 110.85 147.99 104.56 152.63 107.55C155.88 109.65 156.6 111.77 160.6 112.51C162.8 112.91 168.45 111.98 168.84 115.58C169.21 118.99 163.84 117.8 163.9 121.83C163.95 125.59 167.64 127.5 165.7 131.77C164.12 135.27 162.29 135.41 162.58 139.7C162.83 143.31 163.85 147.41 159.61 149.42C159.3 149.57 162.09 159.12 164.04 159.96L164.05 160Z" fill="#DCDDDD"/>
<path d="M174.85 284.7C174.85 284.7 174.85 284.8 174.85 284.84C174.85 284.88 174.83 284.94 174.83 284.98C174.83 285.04 174.81 285.11 174.8 285.17C174.76 285.36 174.7 285.54 174.63 285.73C174.05 287.11 172.6 287.52 172.02 289.24C172.08 290.49 172.04 291.73 171.91 292.97C171.74 293.14 171.55 293.3 171.36 293.43H171.34C170.66 293.9 169.86 294.06 168.97 293.93C168.18 294.4 167.48 294.88 166.79 295.38C166.13 295.85 165.47 296.34 164.61 297C164.18 297.3 163.78 297.6 163.39 297.88C162.14 298.76 160.79 299.64 159.63 300.51C158.73 301.18 155.64 302.53 155.06 303.2C154.77 303.54 154.59 303.92 154.5 304.31C154.5 304.31 154.5 304.33 154.5 304.34C154.22 305.54 154.7 306.9 154.47 308.15C154.26 309.22 153.75 310.38 153.16 311.53C153.16 311.55 153.14 311.55 153.14 311.57C152.5 312.83 151.79 314.1 151.36 315.25C151.15 315.83 150.9 316.43 150.65 317.04C150.63 317.08 150.61 317.13 150.59 317.18C150.07 318.44 149.54 319.75 149.16 321.04C149.1 321.19 149.06 321.34 149.03 321.49C149.01 321.59 148.98 321.69 148.96 321.79C148.9 321.99 148.86 322.19 148.82 322.39C148.79 322.54 148.76 322.7 148.74 322.84C148.31 325.33 148.7 326.25 149.49 327.41C149.97 328.12 150.61 328.94 151.28 330.29C151.49 330.72 151.63 331.15 151.71 331.56C152.06 333.49 151.19 335.23 151.73 336.91V336.93C151.94 337.47 153.79 338.96 153.88 338.96C153.88 339.04 153.9 339.12 153.91 339.2C154.32 342.64 152.21 341.13 151.19 343.71C151.14 343.83 151.1 343.95 151.07 344.07C151.04 344.19 151.01 344.3 150.99 344.42C150.69 345.94 151.26 347.45 151.22 348.98V349.01C151.2 349.65 151.08 350.29 150.74 350.93C150.24 351.87 146.94 354.48 145.67 353.96C145.67 353.96 145.61 353.93 145.58 353.9C145.14 353.47 144.41 351.21 144.08 350.74C142.95 349.14 141.36 347.77 139.49 347.17C139.47 347.17 139.45 347.15 139.43 347.15C139.32 347.11 139.2 347.08 139.09 347.05C138.34 346.85 137.56 346.78 136.76 346.86C136.74 346.86 136.72 346.86 136.7 346.86C136.68 346.86 136.64 346.86 136.62 346.86C133.39 347.27 133.09 350.46 130.66 351.2C129.8 351.46 129.22 351.05 128.62 350.74C128.22 350.54 127.83 350.38 127.31 350.49C126.47 350.66 125.85 351.72 125.21 351.99C125.15 352.01 125.09 352.03 125.04 352.05C124.1 352.22 123.08 352.3 122.01 352.34C120.42 352.39 118.75 352.31 117.14 352.19H117.12C116.46 352.13 115.83 352.08 115.21 352.02C114.78 351.98 114.29 352.3 113.76 352.43C113.57 352.49 113.37 352.52 113.16 352.49C112.73 352.45 112.61 351.74 112.29 351.24C112.12 350.97 111.89 350.76 111.54 350.71C109.98 350.5 108.55 351.44 107 352C107 352 106.993 352 106.98 352C105.88 352.39 104.73 352.58 103.45 352C103.43 352 103.39 351.98 103.37 351.97C102.55 351.58 102.04 351.29 101.74 351.04C101.42 350.79 101.34 350.59 101.37 350.39C101.45 349.91 102.26 349.46 102.13 348.3C102.13 348.26 102.13 348.22 102.13 348.18C102.13 347.54 102.54 347 102.64 346.37C102.7 346 102.66 345.61 102.36 345.15C101.99 344.56 101.16 344.51 100.41 344.37C99.9 344.26 99.43 344.11 99.16 343.7C98.82 343.18 98.8 342.6 98.91 341.98C99.08 341.04 99.51 340.05 99.55 339.14C99.55 339.14 99.55 339.14 99.55 339.12C99.59 338.37 99.34 337.67 98.45 337.12C92.91 333.67 94.73 347.22 88.02 339.3C86.8 337.86 85.5 336.77 84.21 336.08C84.21 336.08 84.2099 336.08 84.1899 336.08C80.6799 334.22 77.1001 335.28 74.6801 340.23C73.5601 342.53 73.08 345.02 71.15 346.96C71.28 347.99 71.13 348.55 70.7 348.63C70.51 348.67 70.2499 348.61 69.9399 348.45C69.6899 348.31 69.4299 348.25 69.1899 348.26C69.1899 348.26 69.1834 348.26 69.17 348.26C68.92 348.26 68.65 348.36 68.41 348.54C67.55 349.2 66.81 349.73 66.17 350.52C66.11 350.59 66.04 350.66 65.99 350.74C65.84 350.92 65.6999 351.12 65.5699 351.34C65.5399 351.27 65.5 351.2 65.47 351.13C65.42 351.03 65.37 350.94 65.33 350.85C65.25 350.7 65.18 350.56 65.1 350.42C64.49 349.36 63.97 348.9 63.5 348.85C62.66 348.75 61.97 349.94 61.15 351.15C60.09 352.69 58.84 354.23 56.79 353.22C56.79 353.22 56.79 353.22 56.77 353.22C56.54 353.1 56.3 352.95 56.05 352.77C52.89 350.43 53.22 345.31 51.21 342.1C51.14 342 51.08 341.9 51 341.8C50.12 340.55 48.82 339.65 46.72 339.38C48.4 335.19 50.16 330.84 54.66 328.99C57.74 327.73 62.8 328.03 64.87 324.95C65.69 323.73 67.34 324.87 65 323.1C63.46 321.94 58.68 322.99 57.08 323.22C54.03 323.66 47.2199 323.38 49.0699 318.28C49.4199 317.3 53.5 315.71 54.5 314.88C56.3 313.38 57.53 311.91 59.47 310.64C61.34 309.4 62.36 309.37 63.38 307.22C65.02 303.75 63.1 302.44 67.86 301.77C70.1 301.45 76.16 304.07 77.03 303.4C79.42 301.57 71.6399 299.09 71.0699 298.1C68.0999 293.02 74.2101 295.67 76.5601 294.8C77.4301 294.48 81.38 290.02 80.52 289.36C78.85 288.09 77.03 291.39 75.64 291.69C74 292.05 73.1099 291.25 71.5699 291.2C69.3099 291.12 64.87 293.66 63.15 291.8C61.71 290.25 63.44 287.96 62.01 286.49C61.06 285.53 58.9999 286.33 57.6899 285.54C53.3899 282.93 58.9 282.96 61.17 282.7C65.38 282.23 70.65 282.2 74.47 280.28C74.47 280.22 77.75 277.88 77.96 277.74C77.66 278.01 81.77 277.57 79.84 276.51C84.56 273.72 84.81 268.01 88.78 265.1C90.63 263.75 92.16 263.88 94.28 264.07C96.21 264.24 99.94 264.18 101.8 264.6C101.88 264.62 101.96 264.63 102.04 264.66C103.33 265.01 104.14 265.75 104.88 266.6C106.22 268.13 107.26 270.02 110.25 270.58C111.47 270.8 112.96 270.84 114.4 270.74H114.42C115.62 270.65 116.79 270.47 117.78 270.22C118.02 270.16 118.34 270.01 118.7 269.82C120.23 269.01 122.6 267.35 123.44 267.55C124.28 267.76 124.6 268.17 124.71 268.69C124.92 269.65 124.49 270.99 125.35 272.11C126.53 273.65 128.56 274.83 130.2 276.23C130.61 276.56 130.99 276.91 131.32 277.29C133.83 280.04 136.3 281.28 139.46 281.33H139.48C140.65 281.36 141.92 281.22 143.32 280.93C145.23 280.54 147.05 279.45 148.82 278.31C150.31 277.35 151.78 276.35 153.23 275.7C153.29 275.67 153.36 275.64 153.42 275.61C153.73 275.47 154.05 275.36 154.37 275.26C154.89 275.09 155.43 274.99 155.95 274.97C156.1 274.97 156.26 274.97 156.42 274.97C156.54 275.4 156.63 275.84 156.71 276.28C156.73 276.43 156.75 276.58 156.77 276.73C157.6 277.46 158.53 277.56 159.55 277.02C159.55 277.02 159.57 277.02 159.58 277.02C159.95 277.19 163.5 279.03 163.5 279.05C164.87 279.12 165.86 278.75 166.72 278.38C167.47 278.06 168.13 277.75 168.88 277.74H168.9C169.61 277.74 170.41 278.02 171.44 278.81C171.52 278.87 171.6 278.95 171.69 279.02C171.83 279.13 171.98 279.26 172.13 279.4C172.16 279.42 172.19 279.46 172.22 279.48C173.46 280.62 174.81 282.17 174.96 283.94C174.98 284.23 174.99 284.5 174.96 284.73L174.85 284.7Z" fill="#DCDDDD"/>
<path d="M240.66 167.45C240.66 167.45 240.61 167.5 240.59 167.52C240.22 167.91 239.8 168.18 239.38 168.39C239.38 168.39 239.38 168.39 239.36 168.39C238.56 168.77 237.68 168.91 236.86 169.13C236.82 169.13 236.77 169.15 236.73 169.17C236.14 169.33 235.56 169.54 235.05 169.93C233.54 171.05 233.64 171.54 233.1 172.69C233.1 172.69 233.1 172.71 233.08 172.72C232.96 172.98 232.81 173.28 232.6 173.62C230.53 177.04 228.61 177.58 225.21 179.73C219.75 183.19 221.74 184.21 221.49 189.8C221.47 190.07 221.44 190.34 221.39 190.6C221.06 192.09 220.06 193.52 218.72 194.55C218.68 194.57 218.64 194.59 218.6 194.61C217.13 195.7 215.26 196.32 213.46 196.09C213.44 196.09 213.43 196.09 213.4 196.09C213.23 196.07 213.07 196.04 212.91 196.01C210.33 195.45 209.93 192.57 208.15 191.05C208.1 191.01 208.06 190.97 208.01 190.93C207.36 190.43 206.53 190.1 205.37 190.12C204.97 190.12 204.58 190.18 204.19 190.27C204.16 190.27 204.14 190.27 204.12 190.29C201.45 190.96 198.89 193.39 196.04 193.9H195.98C195.98 193.9 195.94 193.92 195.9 193.93C194.68 194.12 193.18 194.05 191.72 194.19H191.7C190.02 194.34 188.42 194.76 187.38 196.16C186.87 196.84 186.68 197.57 186.71 198.31C186.71 198.93 186.88 199.55 187.1 200.15C187.1 200.17 187.1 200.17 187.12 200.18C187.99 202.44 189.84 204.51 189.26 205.38C189.26 205.38 189.17 205.36 189 205.36C188.86 205.36 188.7 205.34 188.49 205.32C188.27 205.3 187.99 205.28 187.66 205.26C187.52 205.24 187.37 205.23 187.21 205.22C187.05 205.2 186.87 205.19 186.67 205.17C186.43 205.15 186.18 205.13 185.92 205.11C185.63 205.08 185.35 205.05 185.05 205.02C184.31 204.94 183.53 204.84 182.81 204.73C182.57 204.69 182.33 204.65 182.11 204.61C181.44 204.49 180.86 204.36 180.43 204.19C180.3 204.14 180.17 204.09 180.06 204.03C180.03 204.01 180 203.99 179.97 203.97C179.89 203.92 179.83 203.87 179.79 203.81C179.76 203.77 179.74 203.74 179.73 203.7C179.73 203.94 179.71 204.15 179.67 204.36C179.38 206.39 178.04 206.61 176.65 206.92C176.63 206.92 176.6 206.92 176.58 206.92C175.91 207.07 175.25 207.25 174.67 207.65C172.47 209.18 173.72 209.72 172.41 212.03C172.31 212.21 172.18 212.38 172.03 212.54C172.03 212.54 172.03 212.54 172.03 212.56C171.26 213.36 170.01 213.85 168.86 214.32C168.84 214.32 168.83 214.32 168.82 214.32C166.97 215.07 165.38 215.76 166.6 217.58C166.64 217.64 166.7 217.7 166.74 217.76C166.87 217.93 167.03 218.13 167.22 218.32C168.32 219.5 169.78 220.28 171.08 221.13C171.08 221.13 171.08 221.13 171.1 221.13C172.04 221.73 172.89 222.38 173.51 223.23C173.51 223.23 173.53 223.25 173.53 223.27C174.03 223.97 174.36 224.81 174.43 225.89C174.45 226.03 174.45 226.18 174.45 226.33C174.45 226.54 174.45 226.74 174.43 226.95C174.26 230.05 173.01 233.38 172.73 236.49C172.71 236.69 172.7 236.88 172.68 237.07C172.68 237.09 172.68 237.11 172.68 237.13C172.66 237.43 172.63 237.74 172.61 238.04C172.61 238.08 172.61 238.12 172.61 238.17C172.44 240.42 172.3 242.45 171.63 244.63C171.57 244.86 171.49 245.08 171.41 245.31C169.63 250.36 170.37 250.41 172.24 250.15H172.26C173.53 249.98 175.33 249.66 177.21 250.65C177.3 250.69 177.39 250.75 177.49 250.8C177.88 251.04 178.18 251.51 178.5 251.98C178.82 252.44 179.14 252.89 179.6 253.04C179.73 253.09 179.86 253.12 179.98 253.14C180.95 253.31 181.46 252.71 182.32 252.86C182.48 252.89 182.62 252.89 182.75 252.88C183.39 252.85 183.77 252.47 184.39 252.55C184.66 252.58 184.98 252.7 185.37 252.97C185.75 253.22 186.12 253.93 186.4 254.69C186.56 255.1 186.7 255.54 186.81 255.92C186.84 256.05 186.87 256.17 186.91 256.28C186.94 256.42 186.97 256.54 187 256.66C187.05 256.87 187.12 257.04 187.21 257.18C187.69 258.11 188.64 258.09 187.21 259.21C187.13 259.27 187.04 259.34 186.95 259.41C186.37 259.83 185.12 259.41 184.42 259.38H184.4C184.22 259.38 184.07 259.4 183.99 259.46C181.92 260.97 183.26 260.99 182.93 263.55C182.57 266.29 181.64 269.43 180.06 271.84C178.96 273.55 177.53 274.89 175.76 275.48C175.15 275.69 174.51 276.28 173.91 276.97H173.89C173.15 277.83 172.49 278.83 172.07 279.42C171.88 279.25 171.7 279.09 171.54 278.94C171.45 278.87 171.37 278.8 171.29 278.73C170.02 277.66 169.46 277.49 168.75 277.66H168.73C168.21 277.78 167.6 278.07 166.57 278.3C166.42 278.33 166.26 278.36 166.09 278.4C163.26 278.89 164.53 278.44 162.04 277.64C161.21 277.37 160.3 277.15 159.43 276.95C159.43 276.95 159.41 276.95 159.4 276.95C158.37 276.71 157.37 276.49 156.56 276.21C156.56 276.21 156.14 275.3 155.81 274.9C155.75 274.83 155.69 274.77 155.64 274.75C155.12 274.46 154.63 274.84 154.23 275.19C153.9 275.47 153.63 275.73 153.42 275.63C153.38 275.61 153.33 275.58 153.29 275.54C152.73 275.13 151.84 273.75 150.96 272.11C149.54 269.46 148.12 266.07 148.06 264.75C147.91 261.57 148.85 260.87 147.37 258.81C147.22 258.6 147.04 258.37 146.82 258.11C146.32 257.51 145.33 257.27 144.74 256.58C144.6 256.42 144.49 256.25 144.4 256.08C144.04 255.44 143.92 254.74 143.56 254.12C143.48 253.98 143.38 253.84 143.26 253.71C143.21 253.65 143.15 253.58 143.08 253.52L143.06 253.5C143 253.44 142.93 253.39 142.88 253.35C141.17 251.9 139.89 252.56 139.31 250.8C139.23 250.55 139.16 250.25 139.1 249.89C138.84 248.17 140.48 244.47 141.09 243.04C141.3 242.56 141.57 242.06 141.85 241.54C141.85 241.54 141.85 241.52 141.87 241.51C142.66 240.09 143.56 238.57 143.48 237.02C143.46 236.63 143.38 236.23 143.22 235.84C141.63 231.97 141.75 236.41 140.73 236.82C140.52 236.91 140.32 236.98 140.15 237.03C138.42 237.59 138.16 236.83 136.99 235.2C136.95 235.14 136.91 235.08 136.86 235.02C136.51 234.54 136.38 233.81 136.16 233.15C135.98 232.59 135.73 232.08 135.22 231.79C134.09 231.13 133.64 231.31 133.27 231.58C132.91 231.85 132.63 232.22 131.89 232C131.87 232 131.84 231.98 131.82 231.98C129.72 231.38 130.77 231.69 129.51 229.57C129.43 229.44 129.32 229.26 129.18 229.04C129.1 228.9 129.01 228.75 128.93 228.6C128.91 228.58 128.9 228.56 128.89 228.54C128.4 227.7 127.82 226.58 127.67 225.6C127.54 224.8 127.71 224.09 128.44 223.72C128.53 223.68 128.61 223.64 128.72 223.61C128.67 223.48 128.62 223.36 128.55 223.27C128.47 223.13 128.38 223.02 128.27 222.93C128.21 222.88 128.16 222.83 128.1 222.79C128.04 222.76 127.98 222.72 127.93 222.69C127.9 222.67 127.87 222.66 127.83 222.64C126.96 222.2 125.71 222.26 124.69 221.98C124.21 221.84 123.79 221.65 123.48 221.3C122.88 220.63 121.97 216.47 121.82 215.62C121.7 214.91 121.61 214.33 121.53 213.84C121.43 213.07 121.39 212.49 121.49 211.85C121.52 211.69 121.55 211.53 121.6 211.36C121.64 211.19 121.7 211.01 121.75 210.83C121.78 210.73 121.81 210.64 121.85 210.54C121.9 210.41 121.95 210.27 122 210.13C122.04 210.03 122.07 209.93 122.12 209.83C122.16 209.73 122.2 209.62 122.25 209.51C122.3 209.41 122.35 209.3 122.39 209.18C122.49 208.95 122.6 208.7 122.72 208.43C122.76 208.33 122.81 208.22 122.85 208.1C123.17 207.3 123.6 205.99 124.17 204.72C124.17 204.7 124.17 204.69 124.19 204.67C124.94 202.99 125.88 201.37 127 201.11C127.76 200.93 128.35 201.17 128.86 201.5C129.89 202.17 130.65 203.2 132.01 201.94C132.85 201.15 132.57 199.69 131.97 198.34C131.47 197.19 130.74 196.12 130.28 195.64C128.17 193.41 121.81 190.47 121.05 186.95C121 186.7 120.97 186.45 120.98 186.2C120.98 186.01 121 185.82 121.03 185.64C121.32 183.68 122.97 182.71 124.79 181.92C125.14 181.76 125.5 181.62 125.86 181.47C127.1 180.96 128.32 180.47 129.16 179.73C129.38 179.54 129.57 179.33 129.74 179.11C129.63 178.42 129.61 177.74 129.72 177.05C129.75 176.81 129.8 176.57 129.86 176.34C130.42 175.78 131.09 175.55 131.85 175.64C131.95 175.64 132.05 175.66 132.15 175.69C133.13 175.83 134.01 175.57 134.76 174.92C135.09 174.54 135.4 174.14 135.69 173.73C135.69 173.73 135.697 173.73 135.71 173.73C136.01 173.29 136.29 172.82 136.54 172.35C136.69 172.23 136.83 172.13 136.97 172.04C139.14 170.51 139.77 171.33 142.39 170.38C143.78 169.89 145.77 167.82 147.07 166.93C147.17 166.87 147.25 166.81 147.34 166.76C148.69 165.94 149.87 165.95 150.76 165.13C151.21 164.71 151.59 164.07 151.86 163.01C152.09 162.13 151.34 160.52 151.27 159.26C151.24 158.71 151.34 158.24 151.71 157.93C151.77 157.87 151.83 157.83 151.9 157.79C152.53 158.35 153.11 158.75 153.66 159.04C153.77 159.1 153.88 159.16 153.99 159.21C154.13 159.27 154.27 159.33 154.41 159.38C154.51 159.41 154.61 159.44 154.71 159.48C157.2 160.12 158.63 157.84 159.48 155.02C159.5 154.95 159.52 154.87 159.54 154.79C159.79 153.92 159.98 153.01 160.13 152.12C160.2 152.25 160.27 152.38 160.34 152.51C160.34 152.51 160.34 152.51 160.34 152.53C162.91 157.45 162.04 161.24 169.28 159.87C170.88 159.58 173.32 159.22 175.09 158.38C175.19 158.33 175.27 158.28 175.36 158.24C175.53 158.15 175.69 158.07 175.84 157.95C175.9 157.92 175.97 157.88 176.03 157.82C176.24 157.68 176.42 157.52 176.58 157.35C176.64 157.28 176.71 157.21 176.75 157.14C177.28 156.5 177.54 155.75 177.7 154.97V154.95C177.7 154.95 177.7 154.91 177.72 154.89C178.02 153.4 178 151.79 178.85 150.54C178.94 150.41 179.02 150.3 179.1 150.19C181.55 146.91 183.39 149.4 185.45 151.74C186.74 153.21 188.1 154.63 189.77 154.54C190.1 154.54 190.43 154.46 190.78 154.32C191.42 154.07 191.77 153.5 192.11 152.93C192.18 152.82 192.25 152.72 192.3 152.62C192.32 152.6 192.32 152.59 192.33 152.57C192.53 152.26 192.74 151.97 193.02 151.75C193.04 151.75 193.04 151.73 193.06 151.72C193.19 151.62 193.34 151.54 193.5 151.47C194.49 151.09 196.15 151.74 196.56 151.6C196.59 151.6 196.62 151.58 196.66 151.57C197.25 151.34 197.97 150.9 198.76 150.55C199.64 150.15 200.62 149.84 201.61 150.01C203.25 150.29 204.04 152.36 205.68 152.67C205.89 152.71 206.23 152.65 206.63 152.55H206.69C208.1 152.13 210.22 151.05 210.35 151.13C211.35 151.7 211.31 152.4 210.89 153.08C210.33 154 209.1 154.9 208.82 155.45C208.65 155.78 208.51 156.07 208.39 156.34C206.53 160.65 210.84 158.93 214.23 158.79H214.25C215 158.76 215.72 158.81 216.3 159.02C216.51 159.1 216.71 159.19 216.89 159.31C216.89 159.31 216.92 159.33 216.93 159.34C217.86 159.91 218.38 160.85 219.15 161.56C219.15 161.56 219.157 161.56 219.17 161.56C219.58 161.93 220.04 162.24 220.66 162.41C221.68 162.68 222.6 162.49 223.57 162.26H223.64C224.92 161.97 226.21 161.6 227.67 162.12C228.93 162.56 229.97 163.36 231.03 164.12C232.05 164.86 233.11 165.58 234.44 165.93C235.69 166.26 236.97 166.25 238.2 166.47C239.06 166.63 239.89 166.89 240.67 167.45H240.66Z" fill="#DCDDDD"/>
<path d="M129.17 229.05C129.09 228.91 129 228.77 128.92 228.61C128.9 228.59 128.89 228.57 128.88 228.55C128.9 228.51 128.92 228.48 128.94 228.44C129 228.54 129.08 228.76 129.17 229.05Z" fill="#DCDDDD"/>
<path d="M133.26 231.61C132.9 231.88 132.62 232.25 131.88 232.03C131.86 232.03 131.83 232.01 131.81 232.01C132.19 231.74 132.55 231.41 133.02 231.54C133.11 231.56 133.19 231.59 133.27 231.61H133.26Z" fill="#DCDDDD"/>
<path d="M136.97 235.23C136.93 235.17 136.89 235.11 136.84 235.05C136.49 234.57 136.36 233.84 136.14 233.18C136.19 233.23 136.22 233.28 136.26 233.32C136.59 233.75 136.76 234.5 136.97 235.23Z" fill="#DCDDDD"/>
<path d="M141.84 241.58C141.71 241.86 141.6 242.08 141.54 242.22C140.15 245.26 139.89 248.14 139.3 250.83C139.22 250.58 139.15 250.28 139.09 249.92C138.83 248.2 140.47 244.5 141.08 243.07C141.29 242.59 141.56 242.09 141.84 241.57V241.58Z" fill="#DCDDDD"/>
<path d="M143.47 237.06C143.45 236.67 143.37 236.27 143.21 235.88C141.62 232.01 141.74 236.45 140.72 236.86C140.51 236.95 140.31 237.02 140.14 237.07C141.14 236.24 140.9 234.14 141.97 234.24C143.46 234.38 143.71 235.6 143.47 237.06Z" fill="#DCDDDD"/>
<path d="M122.85 208.11C122.8 208.22 122.75 208.33 122.7 208.44C122.74 208.34 122.79 208.23 122.83 208.11H122.85Z" fill="#DCDDDD"/>
<path d="M124.67 221.98C124.19 221.84 123.77 221.65 123.46 221.3C122.86 220.63 121.95 216.47 121.8 215.62C121.68 214.91 121.59 214.33 121.51 213.84C121.71 214.8 122.15 215.88 122.77 217.53C123.63 219.81 122.77 220.26 124.66 221.98H124.67Z" fill="#DCDDDD"/>
<path d="M128.94 228.44C128.94 228.5 128.92 228.55 128.92 228.61C128.9 228.59 128.89 228.57 128.88 228.55C128.39 227.71 127.81 226.59 127.66 225.61C128.03 226.67 129.01 227.83 128.95 228.44H128.94Z" fill="#DCDDDD"/>
<path d="M206.62 423.91C209.83 423.13 204.48 419.07 202.88 420.26C199.84 422.51 204.93 424.32 206.62 423.91Z" fill="#DCDDDD"/>
<path d="M200.3 413.9C202.52 415.13 199.89 416.46 198.41 415.91C196.54 415.22 198.71 413.02 200.3 413.9Z" fill="#DCDDDD"/>
<path d="M198.96 398.45C201.84 397.55 200.58 403.19 197.96 401.32C196.62 400.36 197.79 398.81 198.96 398.45Z" fill="#DCDDDD"/>
<path d="M201.35 402.34C201.13 405.46 206.09 406.53 205.72 403.38C205.68 403.08 201.52 400.02 201.35 402.34Z" fill="#DCDDDD"/>
<path d="M185 394.65C186.2 390.8 180.25 394.6 179.81 397.26C179.5 399.14 180.22 401.46 182.31 402C182.78 402.12 187.29 401.83 187.37 401.81C189.04 401.47 189.39 402.83 190.2 400.63C190.7 399.27 188.52 399.82 188.26 399.19C187.96 398.45 188.99 396.62 188.05 396C185.78 394.53 186.21 397.52 184.75 397.97C183.14 398.47 185.06 394.43 184.99 394.65H185Z" fill="#DCDDDD"/>
<path d="M175.2 396.26C179.12 393.58 174.84 387.5 170.78 392.19C169.95 393.15 169.97 394.67 169.25 395.64C168.59 396.53 167.23 396.87 166.62 397.91C164.91 400.87 166.83 402.45 168.12 404.87C168.57 405.7 169.51 406.17 169.78 407.13C169.99 407.86 168.93 409.06 169.15 409.87C169.8 412.33 172.1 414.13 174.36 412C175.46 410.96 174.11 409.08 175.72 408.5C179 407.3 177.19 411.09 178.03 412.45C179.68 415.13 180.61 413.38 183.01 413.81C184.54 414.09 185.4 416.91 187.08 414.75C187.66 414 186.82 412.16 187.06 411.24C187.6 409.18 189.59 407.97 188.59 405.31C186.36 399.33 181.19 406.1 177.86 404.57C178.36 404.8 175.59 401.07 175.67 401.23C174.97 399.86 172.78 397.92 175.19 396.27L175.2 396.26Z" fill="#DCDDDD"/>
<path d="M213.8 401.29C217.37 402.46 211.99 404.04 212.4 403.31C212.54 403.06 211.16 400.42 213.8 401.29Z" fill="#DCDDDD"/>
<path d="M216.3 400.72C217.68 402.91 216.38 401.69 216.46 403.09C216.54 404.53 213.83 405.56 217.17 407.89C219.51 409.52 218.57 408.92 219.92 406.72C220.32 406.07 221.1 404.32 221.27 403.47C221.42 402.74 220.52 401.31 220.59 401.06C220.85 400.06 225.71 394.71 222.44 394.81C222.01 394.82 216.46 400.96 216.31 400.71L216.3 400.72Z" fill="#DCDDDD"/>
<path d="M225.95 404.62C225.44 403.44 223.21 406.88 223.45 406.3C223.07 407.25 222.73 407.23 222.7 408.54C222.71 407.67 225.13 412.13 224.24 411.51C225.79 412.58 224.59 412.75 226.02 412.07C224.78 412.66 227.05 407.74 227.05 409.05C227.05 407.69 226.69 406.33 225.95 404.61V404.62Z" fill="#DCDDDD"/>
<path d="M226.91 388.4C227.53 384.47 228.91 388.04 229.09 388.8C230.24 393.59 226.7 389.76 226.91 388.4Z" fill="#DCDDDD"/>
<path d="M254.32 384.59C254.47 383.11 250.97 375.05 256.15 377.91C257.42 378.61 256.62 381.6 256.27 382.56C256.59 381.7 254.03 387.41 254.32 384.59Z" fill="#DCDDDD"/>
<path d="M243.9 384.18C245.69 382.45 244.7 379.85 242.26 380.98C240.99 381.57 240.63 385.85 239.1 387.2C237.97 388.2 235.49 388.12 234.75 389.19C233.1 391.58 238.92 391.96 236.57 394.42C233.48 390.97 234.48 394.61 232.18 394.64C230.44 394.66 231.13 392.8 228.87 393.1C227.9 393.23 226.56 394.64 225.96 395.34C223.05 398.72 224.43 399.82 226.63 401.92C228.88 404.07 227.72 403.47 229.77 402.52C230.76 402.06 232.35 399.11 233.93 400.5C236.99 403.16 232.51 404.13 231.78 405.08C228.35 409.54 232.87 406.77 233.55 407.57C234.65 408.86 233.46 409.72 233.47 411.4C233.47 411.36 235.01 412.65 235.06 412.84C235.33 413.77 232.63 413.54 233.94 415.12C235.91 417.49 237.67 414.69 238.6 412.8C239.59 410.8 239.73 408.94 240.76 406.95C241.1 406.29 240.96 405.13 241.57 404.65C242.3 404.07 244.06 405.44 244.72 404.82C246.46 403.2 244.29 402.57 244.77 400.76C245.04 399.74 247.38 400.56 247.3 398.6C247.26 397.6 245.98 397.36 245.87 397.09C245.77 396.84 244.37 398.11 243.82 397.22C242.93 395.79 244.99 394.78 245.27 393.44C245.73 391.23 242.37 385.66 243.89 384.19L243.9 384.18Z" fill="#DCDDDD"/>
<path d="M307.73 331.27C307.47 332.64 308.01 335.57 305.8 335.73C302.79 335.92 305.87 331.75 303.62 331.43C302.83 331.32 300.69 341.18 300.77 342.41C301.11 347.59 301.05 345.59 298.46 348.14C297.16 349.43 296.57 351.81 294.24 351.5C290.84 351.06 292.14 355.95 291.79 358.27C291.15 362.55 290.19 364.82 287.06 367.32C285.88 368.27 284.52 368.61 283.27 369.74C282.58 370.37 281.28 372.14 281.1 372.27C279.39 373.66 280.34 374.22 277.37 373.94C276.22 373.83 275.72 371.63 274.45 372.65C272.31 374.38 278.37 376.18 275.9 378.15C274.68 379.12 273.95 376.05 273.29 376.14C270.98 376.47 272.45 377.13 271.1 378.28C269.68 379.5 269.02 381.27 266.73 379.67C265.67 378.93 265.94 375.44 264.88 375.21C263.35 374.86 262.93 377.32 262.03 377.07C261.25 376.86 261.05 375.24 260.98 375.21C261.1 375.24 259.78 374.1 259.49 374.03C259.92 374.12 258.52 375.84 258.05 375.9C257.4 375.98 256.56 375.53 255.76 374.81C255.9 375 256.01 375.16 256.1 375.29C254.25 375.39 252.9 374.57 251.43 374.5C250.72 374.48 249.14 374.81 248.41 374.75C246.69 374.6 245.83 374.98 244.34 373.84C243.01 372.82 243.7 370.63 242.23 369.74C240.83 368.89 239.01 370.5 237.44 369.85C235.65 369.12 237.44 366.57 234.6 366.82C230.36 367.19 236.32 372.19 236.78 373.12C238.54 376.68 236.68 378.51 233.47 378.66C229.87 378.83 231.81 378.72 231.18 376.45C231.02 375.9 232.41 376.11 231.66 374.84C230.79 373.38 229.88 373.62 228.67 373.43C228.76 373.43 226.22 374.47 225.81 374.46C224.21 374.44 222.74 372.23 221.2 374.36C227.78 378.17 224.33 377.82 219.87 377.94C216.56 378.03 212.99 382.52 217.2 381.97C219.37 381.68 224.2 375.95 225.47 381.76C226.69 387.36 219.46 383.48 218.62 385.67C218.83 386.33 220.8 386.43 221.13 387.21C221.39 387.82 220.3 390.96 220.18 391.66C219.5 395.39 216.89 399.68 211.87 397.92C206.34 395.97 214.32 393.54 212.04 389.75C209.5 385.51 209.75 393.88 206.46 393.23C204.43 392.83 205.42 390.41 202.34 390.83C199.08 391.27 201.47 392.63 199.92 394.09C195.85 397.93 191.96 392.88 189.37 391.6C187.14 390.5 186.33 391.75 185.72 388.88C185.43 387.54 186.54 385.04 186.74 383.69C186.87 382.82 188.42 377.08 186.49 377.33C185.32 377.47 185.69 380.63 184.04 381.15C184.09 380 181.71 379.13 181.51 380.24C181.3 381.38 187.55 383.7 182.42 386.34C178.08 388.56 179.08 383.38 177.62 382.86C175.41 382.07 175.66 387.38 174.26 388.61C173.13 389.6 167.93 390.48 166.41 390.38C162.35 390.13 162.37 388.97 162.8 386.05C163.51 384.08 163.94 381.24 163.32 379.78C162.53 377.93 160.79 377.6 159.45 376.34C157.77 374.78 157.72 373.44 156.47 371.66C155.52 370.31 154.32 369.57 153.08 368.86C152.78 368.6 152.44 368.34 152.08 368.07C148.07 365.12 147.74 362.91 146.63 358.14C146.5 357.25 146.32 356.37 146.09 355.5C145.99 355.35 145.9 355.21 145.84 355.08C145.76 354.75 145.67 354.41 145.58 354.08C145.58 354.02 145.6 353.98 145.62 353.93C146.89 354.45 150.19 351.84 150.69 350.9C151.03 350.26 151.16 349.61 151.17 348.98V348.95C151.19 348.88 151.2 348.81 151.21 348.74C151.45 347.16 150.67 345.91 150.94 344.4C150.96 344.28 150.99 344.17 151.02 344.05C151.05 343.93 151.09 343.81 151.14 343.69C151.66 342.32 154.64 342.71 154.44 340.27C154.39 339.74 154.17 339.41 153.86 339.18C153.86 339.1 153.84 339.02 153.83 338.94C153.74 338.94 151.88 337.45 151.68 336.91C151.73 335.96 152.24 334.96 152.19 334.05C152.13 333.09 151.93 332.27 151.66 331.54C151.58 331.12 151.45 330.69 151.23 330.26C150.55 328.92 149.92 328.1 149.44 327.38C148.81 326.14 148.4 324.77 148.69 322.81C148.71 322.67 148.74 322.51 148.77 322.36C148.81 322.16 148.85 321.96 148.91 321.76C148.93 321.66 148.96 321.55 148.98 321.46C149.01 321.31 149.05 321.16 149.11 321.01C149.49 319.72 150.02 318.41 150.54 317.15C150.56 317.1 150.58 317.05 150.6 317.01C151.42 315.17 152.34 313.36 153.09 311.54C153.09 311.52 153.11 311.52 153.11 311.5C153.7 310.35 154.21 309.19 154.42 308.12C154.65 306.87 154.17 305.51 154.45 304.31C154.45 304.29 154.45 304.29 154.45 304.28C155.28 302.73 156.21 303.56 157.44 302.5C159.56 300.69 161.27 299.35 163.33 297.85C163.72 297.57 164.12 297.27 164.55 296.97C165.34 296.41 166.04 295.87 166.73 295.35C167.42 294.85 168.11 294.37 168.91 293.9C169.8 294.03 170.59 293.87 171.28 293.4H171.3C171.83 293.2 172.17 292.76 172.05 291.61C172.53 291.74 172.96 291.92 173.34 292.13C173.52 292.29 173.72 292.46 173.95 292.65C174.47 293.06 174.9 293.31 175.3 293.44C175.76 293.72 176.26 293.96 176.86 294.11C177.69 293.58 178.62 293.3 179.6 293.27C179.7 293.31 179.8 293.36 179.89 293.41C180 293.47 180.1 293.54 180.2 293.6C180.7 293.97 181.03 294.47 181.2 295.13C181.38 295.27 181.55 295.4 181.69 295.54C182.28 296.64 182.87 297.77 184.43 298.31C184.8 298.44 185.22 298.48 185.65 298.45C185.82 298.47 186.01 298.48 186.21 298.5C187.6 298.59 189.71 297.36 191.28 297.45C191.44 297.49 191.6 297.55 191.74 297.63C193.37 298.6 191.77 299.71 192.61 300.78C192.69 301.84 193.22 302.3 194.22 302.18C195.28 303.71 197.2 304.94 198.18 307.47C198.97 309.52 198.37 314.94 199.1 316.17C199.86 317.46 201.74 317.69 203.46 317.69H203.49C204.59 317.83 205.73 317.72 206.87 317.63C209.19 317.66 210.78 317.87 213.12 318.72C213.55 318.87 213.9 319.01 214.19 319.13C214.96 319.55 215.37 319.81 215.95 319.78C216.42 319.81 216.95 319.56 218.62 319C220.76 318.29 222.94 317.15 225.17 316.81C227.7 316.74 230.01 317.69 231.83 320.05C232.5 321.58 232.96 323.39 234.03 323.97C234.05 323.97 234.07 323.99 234.09 323.99C235.15 324.43 239.3 323.44 241.54 323.43C244.12 324.14 247.09 326.21 249.36 325.73C249.54 325.69 249.71 325.63 249.86 325.56C251.05 325.08 253.47 323.66 254.51 323.05C255.22 323.03 255.94 323 256.5 322.73C256.52 322.73 256.54 322.71 256.56 322.7C256.79 322.6 257.01 322.47 257.22 322.29C257.24 322.27 257.25 322.27 257.27 322.26C259.28 320.79 259.08 318.86 262.42 318.61C262.47 318.61 262.52 318.61 262.57 318.61C264.06 318.83 265.54 319.51 267.01 319.79C267.38 319.86 267.74 319.9 268.09 319.93C268.97 320.16 269.83 320.3 270.62 320.21C270.72 320.21 270.8 320.19 270.89 320.17C272.22 318.8 273.55 318.71 274.68 317.99C275.22 317.66 275.7 317.19 276.13 316.36C277.08 314.53 275.77 312.98 277.91 311.13C278.08 310.98 278.27 310.84 278.47 310.71C278.56 310.65 278.64 310.6 278.73 310.55C280.68 309.52 283.26 309.49 285.34 309.64C286.35 309.72 287.44 309.75 288.45 310.03C288.52 310.05 288.59 310.08 288.66 310.1C289.93 310.6 290.71 311.41 291.31 312.29C291.63 312.94 291.86 313.62 292.52 314.28C293.17 315.34 293.94 316.23 295.44 316.52C297.28 316.88 299.33 315.23 301.19 315.02C301.25 315.02 301.32 315 301.4 315C301.47 315 301.54 315 301.61 315C303.11 314.95 304.45 315.25 306.07 315.34C306.09 315.34 306.12 315.34 306.14 315.34C307.08 315.53 308.01 315.8 308.94 316.1C308.08 318.1 308.26 319.36 309.81 320.79C310.85 321.76 308.01 329.51 307.68 331.22L307.73 331.27Z" fill="#DCDDDD"/>
<path d="M145.88 355.11C145.66 354.71 145.57 354.38 145.62 354.11C145.72 354.44 145.8 354.78 145.88 355.11Z" fill="#DCDDDD"/>
<path d="M150.56 317.19C150.04 318.45 149.51 319.76 149.13 321.05C149.49 319.73 150 318.45 150.56 317.19Z" fill="#DCDDDD"/>
<path d="M151.21 349.01C151.19 349.65 151.07 350.29 150.73 350.93C150.23 351.87 146.93 354.48 145.66 353.96C145.83 353.48 146.5 353.27 147.68 353.32C149.37 351.6 150.71 351.89 151.22 349.02L151.21 349.01Z" fill="#DCDDDD"/>
<path d="M151.69 331.56C151.09 329.96 150.15 328.76 149.47 327.41C149.95 328.12 150.59 328.94 151.26 330.29C151.47 330.72 151.61 331.15 151.69 331.56Z" fill="#DCDDDD"/>
<path d="M153.9 339.2C153.22 338.67 152.12 338.62 151.82 337.77C151.72 337.5 151.7 337.22 151.72 336.94C151.93 337.48 153.78 338.97 153.87 338.97C153.87 339.05 153.89 339.13 153.9 339.21V339.2Z" fill="#DCDDDD"/>
<path d="M154.44 308.16C154.23 309.23 153.72 310.39 153.13 311.54C153.42 310.81 153.7 310.06 153.92 309.32C154.35 307.91 153.83 305.71 154.35 304.58C154.39 304.49 154.43 304.42 154.47 304.35C154.19 305.55 154.67 306.91 154.44 308.16Z" fill="#DCDDDD"/>
<path d="M163.06 384.55C163.86 378.64 162.31 379.71 158.8 375.83C156.27 373.03 155.77 371.14 153.12 368.89C154.36 369.6 155.57 370.34 156.51 371.69C157.76 373.47 157.81 374.81 159.49 376.37C160.83 377.62 162.56 377.96 163.36 379.81C163.99 381.27 163.55 384.11 162.84 386.08C162.91 385.62 162.99 385.11 163.06 384.56V384.55Z" fill="#DCDDDD"/>
<path d="M171.31 293.43C170.63 293.9 169.83 294.06 168.94 293.93C169.64 293.52 170.62 293.67 171.31 293.43Z" fill="#DCDDDD"/>
<path d="M175.33 293.46C174.93 293.33 174.5 293.09 173.98 292.67C173.75 292.49 173.55 292.31 173.37 292.15C174.08 292.55 174.67 293.04 175.33 293.45V293.46Z" fill="#DCDDDD"/>
<path d="M185.69 298.48C185.25 298.5 184.84 298.46 184.47 298.34C182.91 297.8 182.32 296.66 181.73 295.57C183.19 296.9 183.18 298.17 185.69 298.48Z" fill="#DCDDDD"/>
<path d="M192.65 300.8C191.82 299.74 193.41 298.62 191.78 297.65C191.64 297.57 191.48 297.51 191.32 297.47C191.71 297.49 192.07 297.59 192.37 297.82C192.83 298.78 192.93 299.77 192.65 300.8Z" fill="#DCDDDD"/>
<path d="M206.91 317.65C205.77 317.74 204.63 317.84 203.53 317.71C204.47 317.71 205.36 317.65 206 317.65C206.32 317.65 206.62 317.65 206.91 317.65Z" fill="#DCDDDD"/>
<path d="M215.99 319.8C215.41 319.83 215.01 319.57 214.23 319.15C215.22 319.56 215.58 319.79 215.99 319.8Z" fill="#DCDDDD"/>
<path d="M231.87 320.07C230.05 317.71 227.74 316.76 225.21 316.83C226.96 316.55 228.72 316.77 230.51 318.08C231.11 318.51 231.51 319.25 231.87 320.07Z" fill="#DCDDDD"/>
<path d="M249.4 325.75C247.13 326.23 244.16 324.16 241.58 323.45C241.92 323.45 242.22 323.47 242.45 323.51C244.54 323.94 247.25 326.12 249.4 325.75Z" fill="#DCDDDD"/>
<path d="M256.54 322.76C255.98 323.03 255.27 323.05 254.55 323.08C254.71 322.99 254.83 322.91 254.92 322.87C255.52 322.98 256.06 322.95 256.54 322.77V322.76Z" fill="#DCDDDD"/>
<path d="M262.6 318.63C262.54 318.63 262.5 318.63 262.45 318.63C259.11 318.88 259.31 320.81 257.3 322.28C257.5 322.11 257.68 321.9 257.86 321.66C258.38 320.61 259.08 319.68 259.93 318.88C260.82 318.51 261.71 318.48 262.6 318.63Z" fill="#DCDDDD"/>
<path d="M270.66 320.24C269.87 320.34 269.01 320.19 268.13 319.96C269.06 320.03 269.93 320.02 270.66 320.24Z" fill="#DCDDDD"/>
<path d="M315.4 290.5C314.79 294.59 314.45 298.1 313.3 302.21C312.38 305.51 311.93 311.67 309.77 314.24C308.01 316.34 309.23 315.57 306.19 315.38C306.17 315.38 306.14 315.38 306.12 315.38C304.49 315.29 303.16 314.99 301.66 315.04C301.6 315.04 301.53 315.04 301.45 315.04C300.97 315.06 300.48 315.12 299.95 315.23C296.03 316.07 295.54 317.3 292.57 314.32C291.91 313.66 291.68 312.98 291.36 312.33C291.02 311.64 290.59 310.99 289.47 310.43C289.22 310.3 288.97 310.21 288.71 310.14C288.64 310.12 288.57 310.08 288.5 310.07C287.49 309.79 286.4 309.76 285.39 309.68C283.31 309.52 280.73 309.55 278.78 310.59C278.69 310.64 278.61 310.69 278.52 310.75C277.77 311.19 277.14 311.79 276.69 312.61C275.52 314.68 275.59 316.6 274.74 318.03C273.61 318.74 272.29 318.83 270.95 320.21C270.86 320.23 270.78 320.24 270.68 320.25C269.89 320.35 269.03 320.2 268.15 319.97C266.27 319.48 264.29 318.57 262.63 318.64C262.57 318.64 262.53 318.64 262.48 318.64C259.14 318.89 259.34 320.82 257.33 322.29C257.31 322.29 257.3 322.31 257.28 322.32C257.08 322.46 256.87 322.6 256.62 322.73C256.6 322.73 256.58 322.75 256.56 322.76C256 323.03 255.29 323.05 254.57 323.08C253.87 323.1 253.16 323.12 252.58 323.38C251.48 323.86 251.01 325.08 249.93 325.59C249.78 325.66 249.61 325.72 249.43 325.76C247.16 326.24 244.19 324.17 241.61 323.46C241.19 323.34 240.78 323.26 240.38 323.23C239.37 323.15 234.96 324.25 234.16 324.02C234.14 324.02 234.11 324 234.1 324C233.6 323.73 232.61 321.12 232.45 320.86C232.28 320.58 232.08 320.32 231.9 320.08C230.08 317.72 227.77 316.77 225.24 316.84C223.35 316.88 221.35 317.49 219.33 318.5C217.52 319.41 216.66 319.79 216.02 319.81C215.44 319.84 215.04 319.58 214.26 319.16C213.67 318.83 212.87 318.41 211.6 317.94C210.09 317.39 208.51 317.51 206.94 317.65C205.8 317.74 204.66 317.84 203.56 317.71H203.53C203.42 317.69 203.32 317.68 203.21 317.66C198.56 316.87 199.89 315.71 199.5 311.83C199.21 308.99 197.46 304.42 195.39 302.36C194.2 301.18 193.98 302.46 192.68 300.8C191.85 299.74 193.44 298.62 191.81 297.65C191.67 297.57 191.51 297.51 191.35 297.47C189.91 297.14 187.61 298.37 185.72 298.47C185.28 298.49 184.87 298.45 184.5 298.33C182.94 297.79 182.35 296.65 181.76 295.56C181.36 294.83 180.97 294.11 180.27 293.62C180.17 293.56 180.07 293.48 179.96 293.43C179.87 293.38 179.78 293.33 179.67 293.29C177.82 292.53 177.02 294 175.37 293.46C174.97 293.33 174.54 293.09 174.02 292.67C173.79 292.49 173.59 292.31 173.41 292.15C170.84 289.89 172.73 290 173.95 287.24C174.23 286.6 174.48 286.16 174.65 285.71C174.73 285.53 174.79 285.34 174.82 285.15C174.84 285.09 174.84 285.02 174.85 284.96C174.85 284.92 174.87 284.87 174.87 284.82C174.87 284.77 174.87 284.72 174.87 284.68C174.89 284.45 174.89 284.19 174.87 283.89C174.73 282.25 172.15 280.52 172.12 279.45V279.43C172.1 278.31 172.92 277.56 173.95 276.99C173.95 276.99 173.95 276.99 173.97 276.99C175.27 276.27 176.9 275.85 177.51 275.33C178.65 274.39 179.46 273.19 180.12 271.86C180.9 270.26 181.44 268.49 181.99 266.77C182.55 264.98 182.36 260.41 183.55 259.55C183.84 259.34 184.15 259.34 184.48 259.4H184.5C185.25 259.56 186.11 260.11 187.03 259.43C187.13 259.36 187.21 259.29 187.29 259.23C189.43 257.63 187.95 258.18 187.29 257.2C187.19 257.06 187.12 256.89 187.08 256.68C187.06 256.56 187.02 256.43 186.99 256.3C186.97 256.18 186.93 256.06 186.89 255.94C186.87 255.84 186.83 255.74 186.8 255.64C186.76 255.49 186.71 255.34 186.65 255.19C186.65 255.16 186.63 255.13 186.62 255.11C186.59 254.97 186.53 254.84 186.48 254.71C186.09 253.77 185.51 252.92 184.63 252.62C184.57 252.6 184.52 252.58 184.46 252.57C183.78 252.4 183.28 252.62 182.82 252.9C182.25 253.23 181.72 253.64 180.99 253.49C180.65 253.42 180.34 253.31 180.05 253.16C179.49 252.87 179.02 252.45 178.57 252.01C178.14 251.57 177.73 251.1 177.28 250.68C176.62 250.05 175.87 249.54 174.82 249.42C173.96 249.32 173.1 249.78 172.33 250.18H172.31C170.98 250.89 169.98 251.37 169.86 248.25C169.83 247.24 170.95 245.88 171.7 244.66C171.96 244.23 172.18 243.83 172.28 243.46C172.75 241.79 172.58 239.93 172.68 238.2C172.68 238.15 172.68 238.11 172.68 238.07C172.68 238.01 172.68 237.94 172.68 237.88C172.7 237.64 172.72 237.4 172.74 237.17C172.74 237.15 172.74 237.13 172.74 237.11C173.13 233.76 174.34 230.28 174.49 226.99C174.49 226.78 174.51 226.58 174.51 226.37C174.51 226.21 174.51 226.07 174.49 225.93C174.44 224.68 174.12 223.94 173.59 223.31C173.59 223.29 173.57 223.28 173.57 223.27C172.98 222.59 172.16 222.05 171.16 221.17C171.16 221.17 171.16 221.17 171.14 221.17L171.12 221.15C170.22 220.36 167.99 219.11 166.81 217.8C166.76 217.74 166.71 217.67 166.67 217.62C166.18 217.03 165.92 216.43 166.11 215.86C166.46 214.76 167.67 214.54 168.89 214.37C168.89 214.37 168.91 214.37 168.93 214.37C169.85 214.24 170.76 214.13 171.29 213.66C171.66 213.33 171.91 212.98 172.1 212.61V212.59C172.9 210.99 172.44 209.14 173.88 207.73C174.58 207.04 175.64 207.03 176.66 206.98C176.68 206.98 176.71 206.98 176.73 206.98C178.14 206.89 179.48 206.68 179.75 204.42C179.78 204.21 179.8 204 179.81 203.76C179.81 203.8 179.83 203.83 179.87 203.87C179.91 203.93 179.97 203.98 180.05 204.03C180.07 204.05 180.11 204.07 180.14 204.09C180.24 204.15 180.36 204.2 180.51 204.25C180.83 204.38 181.24 204.48 181.7 204.58C181.85 204.62 182 204.64 182.16 204.68H182.18C182.4 204.73 182.63 204.77 182.88 204.8C182.9 204.8 182.93 204.8 182.96 204.82C183.24 204.86 183.52 204.9 183.81 204.94C183.87 204.94 183.93 204.96 183.99 204.96C184.37 205.01 184.74 205.06 185.12 205.1C185.41 205.13 185.7 205.16 185.99 205.19C186.24 205.21 186.5 205.24 186.74 205.25C186.93 205.27 187.12 205.28 187.3 205.3C187.45 205.3 187.6 205.32 187.74 205.34C188.06 205.36 188.34 205.38 188.57 205.4C188.67 205.4 188.77 205.42 188.85 205.42C188.94 205.42 189.02 205.42 189.08 205.44C189.25 205.44 189.34 205.46 189.34 205.46C189.57 205.13 187.97 202.36 187.2 200.26C187.2 200.26 187.18 200.24 187.18 200.23C186.9 199.49 186.73 198.82 186.79 198.4C186.79 198.4 186.79 198.34 186.79 198.3C187.37 195.72 188.92 195.02 191.44 194.34C191.55 194.31 191.65 194.28 191.77 194.26H191.79C193.22 193.94 194.63 194.01 196.04 193.97H196.11C197.17 193.94 198.23 193.83 199.29 193.45C201.18 192.75 202.4 191 204.19 190.36C204.21 190.36 204.23 190.34 204.26 190.34C204.84 190.13 205.49 190.06 206.25 190.18C207.04 190.31 207.62 190.6 208.08 191C208.14 191.04 208.18 191.08 208.22 191.12C209.66 192.5 209.79 194.89 211.42 195.83C211.92 196.12 212.64 196.21 213.47 196.16C213.49 196.16 213.51 196.16 213.53 196.16C215.2 196.06 217.26 195.41 218.67 194.68C218.71 194.66 218.75 194.64 218.79 194.62C219.31 194.34 219.74 194.06 220.01 193.79C221.15 192.68 221.47 191.69 221.46 190.68C221.44 189.06 220.57 187.43 220.82 185.28C221.17 182.29 222.85 181.26 225.28 179.8C227.84 178.28 230.41 177.82 232.18 175.22C232.82 174.27 232.98 173.5 233.15 172.8C233.15 172.78 233.15 172.78 233.17 172.77C233.4 171.81 233.65 170.98 235.12 170.01C235.48 169.77 236.09 169.51 236.8 169.25C236.84 169.23 236.89 169.22 236.93 169.21C237.73 168.92 238.64 168.66 239.43 168.47H239.45C240.4 168.25 241.19 168.12 241.47 168.21C241.6 168.25 241.72 168.3 241.84 168.35C242.48 168.66 242.96 169.2 243.43 169.78C243.45 169.8 243.46 169.8 243.47 169.82C243.47 169.82 243.47 169.82 243.47 169.84C244.41 170.98 245.3 172.23 247.13 171.93C253.48 170.87 246.19 159.6 253.96 160.87C258.07 161.54 256.64 164.78 258.36 166.64L258.47 166.76C260.66 168.88 260.21 168.05 263.1 167.24C263.13 167.24 263.16 167.22 263.19 167.22C266.84 166.21 269.05 167.22 272.7 167.05C274.08 166.99 275.35 166.3 276.6 165.64C277.85 164.97 279.1 164.35 280.44 164.46C281.45 164.54 282.29 165.04 283.06 165.71C285.4 167.76 287.06 171.37 290.54 169.41C291.37 168.93 292.14 167.92 292.87 166.71C292.87 166.71 292.89 166.69 292.89 166.68C294.81 163.53 296.61 159.07 299.41 159.21C300.04 159.24 300.7 159.49 301.44 160.04C302.19 160.6 301.88 162.32 302.3 163.09C303.09 164.56 304.88 165.68 305.48 167.07C306.58 169.6 306.02 172.42 305.94 175.32C305.73 183.21 307.5 188.56 310.09 195.61C311.04 198.19 311.64 201.7 311.26 204.45C310.83 207.5 309.19 207.99 307.73 210.32C304.32 215.8 307.44 219.04 308.37 224.44C309.47 230.74 307.67 235.61 304.74 240.65C301.56 246.14 302.25 253.86 303.4 259.73C303.88 262.18 304.21 264.11 305.12 266.33C306.33 269.27 307.75 269.32 305.74 272.39C303.58 275.68 302.86 273.93 304.22 276.44C304.47 276.9 307.52 280.38 308.19 280.49C311.16 280.97 317.51 269.1 318.79 272.12C321.43 278.35 316.36 284.44 315.43 290.6L315.4 290.5Z" fill="#DCDDDD"/>
<path d="M288.49 310.06C287.48 309.78 286.39 309.75 285.38 309.67C283.3 309.51 280.72 309.54 278.77 310.58C281.35 309.11 285.86 309.11 288.49 310.06Z" fill="#DCDDDD"/>
<path d="M292.56 314.32C291.9 313.66 291.67 312.98 291.35 312.33C291.8 312.98 292.16 313.68 292.56 314.32Z" fill="#DCDDDD"/>
<path d="M306.19 315.39C306.19 315.39 306.14 315.39 306.12 315.39C304.49 315.3 303.16 315 301.66 315.05C303.2 314.91 304.71 315.07 306.2 315.4L306.19 315.39Z" fill="#DCDDDD"/>
<path d="M337.99 234.88C336.23 235.8 336 230 339.37 230.28C344.78 230.73 339.92 233.87 337.99 234.88Z" fill="#DCDDDD"/>
<path d="M350.22 238.13C351.3 237.56 351.45 241.15 349.37 240.97C346.03 240.69 349.03 238.75 350.22 238.13Z" fill="#DCDDDD"/>
<path d="M19.67 376.4C20.44 380.98 11.46 378.86 14.38 374.4C14.85 373.68 19.99 368.78 21.05 370.08C21.69 370.87 19.43 374.97 19.67 376.4Z" fill="#DCDDDD"/>
<path d="M23.92 380.66C23.05 380.19 17.65 379.64 22.5 378.31C26.23 377.3 27.13 382.38 23.92 380.66Z" fill="#DCDDDD"/>
<path d="M20.31 384.29C17.1 383.93 21.09 380.32 23.67 383.04C24.61 384.03 25.59 385.04 23.92 386.05C22.47 386.92 21.75 384.45 20.31 384.29Z" fill="#DCDDDD"/>
<path d="M32.5 384.17C33.86 384.57 33.6 386.26 32.28 386.48C29.86 386.89 30.74 383.66 32.5 384.17Z" fill="#DCDDDD"/>
<path d="M7.32 408.66C6.31 409.29 4.87999 408.86 3.99999 409.71C3.28999 410.4 4.40001 412 3.40001 412.79C0.780014 414.84 -1.11001 410.39 0.749989 408.38C1.55999 407.5 2.78001 408.23 3.58001 407.7C4.01001 407.41 5.18998 406.14 5.61998 405.96C6.92998 405.44 7.48998 403.23 8.61998 405.07C9.10998 405.87 7.97 408.25 7.32 408.65V408.66Z" fill="#DCDDDD"/>
<path d="M5.42001 414.98C4.54001 415.78 3.35005 415.11 2.71005 416.29C1.51005 418.51 3.69003 419.22 5.32003 419.17C9.94003 419.02 9.59001 411.19 5.42001 414.98Z" fill="#DCDDDD"/>
<path d="M12.3 428.95C9.69999 429.3 9.05 422.49 12.06 422.74C11.38 422.68 13.21 426.01 13.15 425.7C13.34 426.69 15.41 428.54 12.29 428.96L12.3 428.95Z" fill="#DCDDDD"/>
<path d="M15.97 426.39C16.26 428.44 11.07 434.83 16.55 430.52C18.08 429.31 19.39 428.34 18.57 425.89C18.69 426.26 15.13 422.56 15.46 422.7C12.84 421.6 16 426.61 15.97 426.39Z" fill="#DCDDDD"/>
<path d="M21.44 420.2C20.58 421.55 19.07 422.21 20.94 423.67C20.49 423.32 24.53 423.23 24.17 423.52C26.5 421.61 23.27 417.29 21.45 420.2H21.44Z" fill="#DCDDDD"/>
<path d="M15.94 397.13C15.5 398.85 13.4999 399.13 12.2199 398.04C10.2999 396.41 12.53 394.34 13.09 393.63C16.77 389.01 16.92 393.26 15.94 397.13Z" fill="#DCDDDD"/>
<path d="M22.79 396.79C24.23 397.48 20.99 401.33 19.53 398.38C18.31 395.92 21.45 396.15 22.79 396.79Z" fill="#DCDDDD"/>
<path d="M18.17 400.2C17.59 400.38 12.84 399.91 15.3 402.63C17.82 405.42 20.94 399.34 18.17 400.2Z" fill="#DCDDDD"/>
<path d="M19.74 407.42C16.03 408.71 20.98 403.98 22.26 404.26C23.54 404.54 24.18 405.34 23.78 406.83C23.07 409.41 21.21 406.91 19.75 407.42H19.74Z" fill="#DCDDDD"/>
<path d="M16.9 412.38C17.51 413.9 18.65 412.74 19.55 413.11C18.78 412.8 22.87 414.42 22.17 414.48C23.48 414.38 24.98 414.75 24.36 412.04C23.64 408.92 15.08 407.87 16.9 412.39V412.38Z" fill="#DCDDDD"/>
<path d="M30.87 391.71C32.63 393.19 29.2801 393.99 28.3401 393.19C28.1301 393.01 26.14 390.04 27.93 390.34C28 390.35 30.83 391.67 30.88 391.71H30.87Z" fill="#DCDDDD"/>
<path d="M34.45 389.2C33.33 385.17 31.41 391.35 33.94 391.47C34.61 390.9 34.78 390.14 34.45 389.2Z" fill="#DCDDDD"/>
<path d="M36.03 393.43C35.34 393.62 33.73 396.88 32.73 397.65C31.36 398.7 26.79 399.88 31.19 400.78C32.52 401.05 37.07 399.07 37.81 398.15C39.09 396.55 39.2 392.55 36.04 393.43H36.03Z" fill="#DCDDDD"/>
<path d="M40.64 401.75C41.02 399.58 40.88 396.07 38.74 399.45C37.05 402.12 39.77 406.7 40.64 401.75Z" fill="#DCDDDD"/>
<path d="M35.81 407.76C36 406.31 38.45 406.8 38.2 408.15C37.98 409.35 35.64 409.1 35.81 407.76Z" fill="#DCDDDD"/>
<path d="M35.11 378.99C34.48 379.25 31.78 379.74 31.65 379.77C30.86 379.96 31.58 381.48 30.03 381.32C29.51 381.27 29.48 379.18 29.09 378.87C27.99 377.98 26.49 378.51 25.2 377.37C23.25 375.66 23.42 373.97 26.12 373.36C27.19 373.12 28.95 374.74 29.82 374.28C30.8 373.77 30.34 372.5 30.85 372.05C32.26 370.8 29.67 371.01 32.88 369.66C33.64 369.34 34.21 369.71 34.94 369.65C36.82 369.49 38.06 369.53 39.03 370.97C40.34 372.91 38.58 374.68 38.27 375.29C38.45 374.94 37.03 375.41 36.83 375.64C35.78 376.82 37.36 378.03 35.11 378.98V378.99Z" fill="#DCDDDD"/>
<path d="M8.96995 453.18C7.56995 454.53 11.65 454.73 12.08 455.17C13.67 456.78 11.12 458.35 14.46 458.81C16.77 459.13 18.71 457.44 17.58 455.55C16.94 454.47 9.76995 452.41 8.96995 453.18Z" fill="#DCDDDD"/>
<path d="M35.42 430.01C34.92 428.42 32.27 427 30.92 428.5C30.22 429.28 31.8 430.92 31.18 432.04C30.71 432.91 27.62 434.04 26.64 434.83C25.22 435.97 23.7 437.47 22.14 438.7C19.16 441.05 15.31 445 19.22 448.38C19.5 448.63 23.15 450.3 23.39 450.34C25.7 450.72 25.42 449.96 27.44 449.57C28.58 449.35 29.77 448.88 31.14 448.92C30.7 448.91 34.92 449.21 33.97 449.4C36.34 448.93 37.25 447.19 39.13 444.96C39.78 444.18 40.88 443.25 41.31 442.24C41.52 441.75 42.25 436.59 42.15 436.15C41.54 433.44 38.76 431.19 35.43 430.01H35.42Z" fill="#DCDDDD"/>
<path d="M60.8 467.94C62.06 466.97 63.24 468.67 63.03 465.77C62.87 463.62 59.37 462.99 58.02 464.26C55.49 466.66 57.92 470.16 60.8 467.94Z" fill="#DCDDDD"/>
<path d="M69.9301 456.32C62.0701 452.44 66.18 441.6 71.85 446.9C73.22 448.18 72.47 449.44 72.99 451.02C73.42 452.33 74.81 453.73 75.1 455.02C76.07 459.3 72.5501 457.62 69.9301 456.32Z" fill="#DCDDDD"/>
<path d="M76.13 453.2C75.39 454.65 78.6801 454.48 79.0601 454.64C79.7401 454.62 80.42 454.54 81.09 454.38C81.98 454.53 82.35 454.99 82.21 455.75C83.34 456 82.77 456.84 84.82 455.97C84.43 456.14 86.47 453.3 86.24 454.06C86.49 453.26 86.87 451.08 84.12 450.99C82.56 450.94 82.37 452.56 81.03 452.87C79.6 453.19 77.12 451.29 76.14 453.2H76.13Z" fill="#DCDDDD"/>
<path d="M81.2 449.02C73.09 450.18 73.9801 444.94 79.9201 443.19C82.3501 442.48 83.11 442.92 83.19 445.63C83.22 446.6 84.25 448.58 81.2 449.02Z" fill="#DCDDDD"/>
<path d="M85.1201 448.75C85.8901 450.57 90.51 451.79 91.58 449.68C93.3 446.28 83.6401 445.27 85.1201 448.75Z" fill="#DCDDDD"/>
<path d="M97.53 454.76C96.91 452.2 92.06 452.1 92.74 455.15C93.19 457.14 97.89 456.26 97.53 454.76Z" fill="#DCDDDD"/>
<path d="M102.83 451.78C102.63 450.53 96.0099 448 97.2099 451.2C97.6499 452.37 103.3 454.78 102.83 451.78Z" fill="#DCDDDD"/>
<path d="M101.44 440.61C103.54 441.44 102.79 444.75 100.74 444.06C98.32 443.25 98.5199 439.44 101.44 440.61Z" fill="#DCDDDD"/>
<path d="M114.23 443.2C111.95 443.88 106.78 444.06 105.46 441.62C104.09 439.08 106.07 437.94 108.41 437.27C108.71 437.19 111.38 437.21 111.95 437.22C113.28 437.22 113.84 436.29 115.22 437.32C117.19 438.78 116.57 442.51 114.23 443.21V443.2Z" fill="#DCDDDD"/>
<path d="M140.23 440.27C146.51 441.71 142.58 448.37 138.4 445.52C138.63 445.68 136.88 441.26 136.81 441.79C137.02 440.19 137.34 439.61 140.23 440.28V440.27Z" fill="#DCDDDD"/>
<path d="M135.61 432.56C135.91 432.43 136.22 432.3 136.52 432.18C137.76 432.74 136.15 434.97 136.9 435.85C137.4 436.43 139.36 435.08 140.11 436.36C140.66 437.29 130.83 438.29 135.6 432.56H135.61Z" fill="#DCDDDD"/>
<path d="M159.76 435.04C158.18 433.99 157.38 431.49 159.51 430.45C161.97 429.25 161.03 431.35 162.04 432.39C164.93 435.37 164.19 438 159.76 435.04Z" fill="#DCDDDD"/>
<path d="M158.62 394.95C162.34 394.88 158.26 397.53 158.26 397.39C158.27 397.07 155.7 395 158.62 394.95Z" fill="#DCDDDD"/>
<path d="M158.27 391.91C158.11 392.72 161.91 394.64 162.74 393.57C163.66 392.38 158.82 389.12 158.27 391.91Z" fill="#DCDDDD"/>
<path d="M162.18 417.06C161.86 420.46 156.22 420.19 158.72 425.14C158.28 424.27 161.34 426.4 161.04 426.24C162.59 427.07 163.14 429.75 165.08 427.4C165.65 426.71 166.16 420.28 165.97 419.67C165.91 419.49 162.03 416.58 162.43 416.06C162.35 416.39 162.26 416.72 162.18 417.05V417.06Z" fill="#DCDDDD"/>
<path d="M162.29 414.06C163.03 414.15 167.22 416.76 164.49 413.43C161.94 410.32 161.12 413.91 162.29 414.06Z" fill="#DCDDDD"/>
<path d="M162.8 405.13C162.14 407.42 161.97 409.98 159.92 411.8C155.36 415.85 156.75 409.54 154.38 409.92C154.76 409.92 150.16 415.15 150.14 415.24C149.53 417.59 154.9 423.21 149.77 423.09C148.4 423.06 144.29 419.83 143.9 418.55C142.61 414.22 148.83 412.85 146.44 408.04C145.68 406.51 144.03 406 143.09 404.72C142.1 403.37 141.99 401.79 141.25 400.4C139.07 396.37 140.81 399.05 138.26 400.65C136.54 401.73 132.45 401.52 130.85 402.14C129.26 402.77 129.9 400.69 128.59 402.69C128.65 402.69 129.95 405.35 130.02 405.66C130.62 408.07 128.86 410.69 129.71 413.18C131.13 417.37 146.4 425.36 135.96 427.21C133.62 427.62 134.26 427.77 131.67 426.98C129.92 426.44 123.04 426.76 126.9 429.39C127.2 429.59 128.5 428.18 128.81 428.32C129.23 428.5 130.29 429.48 130.33 429.49C130.35 429.49 133.01 430.82 133.07 430.95C134.1 433.24 130.25 436.33 128.38 437.28C127.01 437.97 125.9 437.69 124.62 438.5C123.89 438.95 124.65 440.85 123.1 440.9C122.47 440.92 120.3 436.83 119.96 436.43C117.25 433.25 115.97 434.34 111.88 434.14C109.48 434.02 106.19 433.25 106.53 429.91C106.72 428.05 108.96 427.55 109.78 426.43C110.19 425.87 110.75 424.79 111.1 424.33C111.81 423.38 110.89 422.42 112.4 421.65C113.52 421.07 114.43 422.75 115.22 422.33C117.4 421.15 116.23 414.75 118.78 414.33C121.47 413.89 120.07 419.42 123.37 418.2C126.52 417.03 125.4 410.61 122.47 410.58C122.42 410.58 121.35 412.07 120.46 412.1C118.97 412.15 117.76 410.07 117.49 410.06C114.63 409.96 115.01 414.92 111.4 416.06C107.37 417.33 108.46 415.16 105.17 417.93C102.51 420.16 97.35 422.04 96.12 425.28C95.52 426.86 95.7899 429.13 95.3299 430.78C95.1199 431.56 94.1 432.24 93.86 433.08C93.59 434.01 94.55 435 94.13 436.01C93.28 438.09 92.16 437.55 90.91 438.83C90.22 439.54 90.44 441.37 89.52 441.76C88.6 442.16 87.77 440.66 87.03 440.89C85.57 441.34 86.0699 442.73 84.1999 442.79C83.5899 442.81 80.25 440.61 79.85 440.22C77.92 438.38 78.0099 437.54 77.8299 434.72C77.7699 433.74 78.43 424.63 77.01 424.46C75.95 424.33 76.18 432.93 75.93 433.81C75.07 436.86 72.6399 440.33 70.1899 442.36C66.8699 445.1 64.23 444.49 63.22 449.15C62.32 453.31 62.85 453 59.5 454.69C59.13 454.5 58.75 454.32 58.38 454.13C57.67 454.42 57.18 454.92 56.9 455.65C56.07 455.84 55.75 458.18 54.3 456.71C52.82 455.22 56.66 451.71 54.62 450.48C52.63 449.3 51.14 454.36 50.68 449.82C50.56 448.62 53.03 446.35 53.22 445.47C53.97 441.92 52.58 445.27 50.55 442.93C48.47 440.53 50.75 437.05 48.37 434.19C46.02 431.36 42.39 430.98 39.36 429.58C35.87 427.97 34.59 425.59 33.38 421.63C32.52 418.85 31.69 414.65 33.51 412C36.89 407.1 37.54 411.89 38.54 414.56C40.06 418.62 41.8299 428.42 48.4399 426.08C46.6099 421.51 38.49 422.5 42.89 415.83C46.82 409.87 47.6 417.26 50.64 418.98C55.68 421.84 54.99 415.66 50.78 413.73C48.53 412.71 38.97 413.09 43 409.04C45.11 406.92 53.4 409.04 54.06 407.7C55.95 403.84 45.97 405.99 45.12 406.1C38.15 406.98 43.31 402.64 43.63 398.45C43.75 396.89 44.42 386.27 42.91 386.42C40.53 386.66 42.1 389.74 40.48 390.97C38.57 392.41 36 390.92 36.34 388.58C36.6 386.79 40.69 384.08 41.57 382.82C42.04 382.14 43.83 382.07 42.89 380.17C42.15 378.65 40.72 380.54 39.9 379.35C39.07 378.13 39.04 376.75 40.63 376.05C44.27 374.41 43.23 378.64 44.56 379.67C48.14 382.44 48.77 375.98 46.73 373.5C44.86 371.23 43.07 367.97 40.85 366C38.13 363.57 35.97 363.1 36.47 358.96C36.89 355.47 39.92 354.53 41.66 352.11C43.35 349.76 43.6 340.62 46.63 339.34C48.17 338.69 49.67 340 50.91 341.76C50.98 341.86 51.05 341.96 51.12 342.06C52.42 344.01 53.41 346.38 53.8 347.31C54.39 348.73 55.2499 351.79 56.6899 353.19C56.6899 353.19 56.6899 353.19 56.7099 353.19C57.6899 354.12 58.9499 354.26 60.5699 352.58C60.9699 352.17 61.0399 351.65 61.0699 351.13C61.0999 350.26 61.01 349.37 62.05 348.89C62.56 348.65 63.02 348.66 63.42 348.83C64.08 349.08 64.6 349.73 65.02 350.4C65.1 350.54 65.17 350.68 65.25 350.83C65.3 350.92 65.35 351.01 65.39 351.11C65.42 351.17 65.46 351.25 65.49 351.32C65.62 351.1 65.76 350.9 65.91 350.72C65.97 350.64 66.03 350.57 66.09 350.5C67.03 349.44 68.01 349.2 69.09 348.24C69.09 348.24 69.0966 348.24 69.11 348.24C69.86 348.78 70.36 348.9 70.63 348.61C70.77 348.45 70.84 348.17 70.85 347.78C70.9 347.49 70.9799 347.21 71.0799 346.95C71.2899 346.39 71.62 345.9 72.06 345.45C73.41 342.98 74.47 338.95 76.38 337C79.6 333.72 82.03 334.35 84.12 336.07C84.12 336.07 84.12 336.07 84.14 336.07C87.13 338.56 89.43 343.29 92.35 342.02C94.51 341.08 94.45 334.7 98.38 337.1C99.56 337.82 99.68 338.47 99.48 339.1V339.12C99.23 339.93 98.46 340.74 98.77 341.7C98.8 341.8 98.83 341.87 98.85 341.95C99.29 343.27 99.42 343.06 100.3 344.29C100.32 344.31 100.32 344.33 100.35 344.35C101.22 345.49 102.27 344.87 102.57 346.34C102.6 346.52 102.63 346.74 102.64 346.99C102.66 347.41 102.39 347.8 102.06 348.16C101.62 348.66 101.08 349.11 101.11 349.51C101.14 349.84 101.21 350.12 101.3 350.37C101.4 350.62 101.52 350.83 101.67 351.02C102.08 351.53 102.68 351.83 103.38 351.98C104.46 352.23 105.75 352.15 106.91 351.98C106.91 351.98 106.91 351.98 106.93 351.98C107.45 351.92 107.94 351.83 108.36 351.76C110.15 351.45 110.8 351.1 112.23 351.23C112.28 351.23 112.33 351.23 112.38 351.25C112.73 351.29 113.02 352.13 113.7 352.43C113.83 352.49 113.96 352.53 114.11 352.54C115.11 352.61 116.06 352.37 117.06 352.19H117.08C117.94 352.02 118.85 351.9 119.88 352.05C120.78 352.17 121.4 352.28 121.94 352.34C122.85 352.45 123.56 352.42 124.97 352.05C125.03 352.03 125.09 352.02 125.14 351.99C126.01 351.7 126.98 350.96 127.9 350.77C128.14 350.72 128.35 350.71 128.54 350.73C129.45 350.83 129.91 351.52 131.28 350.79C132.88 349.92 132.85 348.02 134.89 347.22C135.4 347.02 135.96 346.9 136.55 346.85C136.57 346.85 136.61 346.85 136.63 346.85C136.65 346.85 136.66 346.85 136.69 346.85C137.47 346.8 138.28 346.87 139.02 347.04C139.13 347.06 139.25 347.1 139.36 347.14C139.38 347.14 139.4 347.14 139.42 347.16C139.63 347.22 139.83 347.29 140.02 347.36C143.28 348.62 144.67 351.07 145.51 353.9C145.53 353.97 145.55 354.04 145.57 354.11C145.67 354.44 145.75 354.78 145.83 355.11C146.81 359.2 147 363.81 149.92 366.71C150.9 367.67 152 368.27 153.07 368.89C154.31 369.6 155.52 370.34 156.46 371.69C157.71 373.47 157.76 374.81 159.44 376.37C160.78 377.62 162.51 377.96 163.31 379.81C163.94 381.27 163.5 384.11 162.79 386.08C162.6 386.61 162.39 387.08 162.17 387.45C160.87 389.63 162.04 388.25 159.55 389.57C158.65 390.05 157.93 389.64 157.02 390.32C155.53 391.44 155.95 393.69 153.87 394.5C151.53 395.42 150.37 392.62 148.56 392.98C146.23 393.45 148.31 398.24 149.21 399.57C152.82 404.88 154.52 399.82 158.48 398.99C163.56 397.92 163.65 401.99 162.75 405.14L162.8 405.13Z" fill="#DCDDDD"/>
</svg>
