<svg width="455" height="57" viewBox="0 0 455 57" fill="none" xmlns="http://www.w3.org/2000/svg">
<path d="M440.63 1C440.63 7.99 446.3 13.66 453.29 13.66V42.74C446.3 42.74 440.63 48.41 440.63 55.4H13.6698C13.6698 48.41 7.99977 42.74 1.00977 42.74V13.66C7.99977 13.66 13.6698 7.99 13.6698 1H440.63ZM440.63 0.25H13.6698C13.2598 0.25 12.9198 0.59 12.9198 1C12.9198 7.57 7.57977 12.91 1.00977 12.91C0.599766 12.91 0.259766 13.25 0.259766 13.66V42.74C0.259766 43.15 0.599766 43.49 1.00977 43.49C7.57977 43.49 12.9198 48.83 12.9198 55.4C12.9198 55.81 13.2598 56.15 13.6698 56.15H440.63C441.04 56.15 441.38 55.81 441.38 55.4C441.38 48.83 446.72 43.49 453.29 43.49C453.7 43.49 454.04 43.15 454.04 42.74V13.66C454.04 13.25 453.7 12.91 453.29 12.91C446.72 12.91 441.38 7.57 441.38 1C441.38 0.59 441.04 0.25 440.63 0.25Z" fill="#0E2E40"/>
</svg>
